G75*
G70*
%OFA0B0*%
%FSLAX24Y24*%
%IPPOS*%
%LPD*%
%AMOC8*
5,1,8,0,0,1.08239X$1,22.5*
%
%ADD10C,0.0600*%
%ADD11OC8,0.0520*%
%ADD12C,0.0650*%
%ADD13R,0.0787X0.0394*%
%ADD14R,0.0394X0.0709*%
%ADD15R,0.0650X0.0650*%
%ADD16C,0.0740*%
%ADD17C,0.0520*%
%ADD18R,0.0740X0.0740*%
%ADD19C,0.0740*%
%ADD20C,0.2000*%
%ADD21C,0.0310*%
%ADD22C,0.0100*%
D10*
X007440Y002020D02*
X008040Y002020D01*
X008040Y003020D02*
X007440Y003020D01*
X007440Y004020D02*
X008040Y004020D01*
X013680Y021550D02*
X014280Y021550D01*
X014280Y022550D02*
X013680Y022550D01*
X013680Y023550D02*
X014280Y023550D01*
D11*
X016080Y017930D03*
X016080Y016530D03*
X016080Y015130D03*
X016080Y013800D03*
X019080Y013800D03*
X019080Y015130D03*
X019080Y016530D03*
X019080Y017930D03*
X020800Y017920D03*
X020800Y018920D03*
X020800Y016050D03*
X020800Y015050D03*
X009050Y005680D03*
X008050Y005680D03*
X005349Y006668D03*
X004349Y006668D03*
X004349Y008286D03*
X005349Y008286D03*
X002810Y008790D03*
X001620Y008790D03*
X001620Y005790D03*
X002810Y005790D03*
D12*
X007010Y007410D03*
X007010Y009410D03*
X008628Y011577D03*
X011280Y018760D03*
X013020Y019190D03*
X012120Y000910D03*
D13*
X015294Y002073D03*
X015294Y002664D03*
X015294Y003254D03*
X015294Y003845D03*
X015294Y004435D03*
X015294Y005026D03*
X015294Y005616D03*
X015294Y006207D03*
X015294Y006797D03*
X015294Y007388D03*
X015294Y007979D03*
X015294Y008569D03*
X015294Y009160D03*
X020412Y009160D03*
X020412Y008569D03*
X020412Y007979D03*
X020412Y007388D03*
X020412Y006797D03*
X020412Y006207D03*
X020412Y005616D03*
X020412Y005026D03*
X020412Y004435D03*
X020412Y003845D03*
X020412Y003254D03*
X020412Y002664D03*
X020412Y002073D03*
D14*
X019920Y001384D03*
X019329Y001384D03*
X018738Y001384D03*
X018148Y001384D03*
X017557Y001384D03*
X016967Y001384D03*
X016376Y001384D03*
X015786Y001384D03*
D15*
X012120Y001910D03*
X008628Y010577D03*
X014020Y019190D03*
X011280Y019760D03*
D16*
X008193Y018361D02*
X007453Y018361D01*
X007453Y017361D02*
X008193Y017361D01*
X008193Y016361D02*
X007453Y016361D01*
X007453Y015361D02*
X008193Y015361D01*
X008193Y014361D02*
X007453Y014361D01*
X007453Y013361D02*
X008193Y013361D01*
D17*
X010360Y013170D02*
X010880Y013170D01*
X010880Y014170D02*
X010360Y014170D01*
X010360Y015170D02*
X010880Y015170D01*
X010880Y016170D02*
X010360Y016170D01*
X013360Y016170D02*
X013880Y016170D01*
X013880Y015170D02*
X013360Y015170D01*
X013360Y014170D02*
X013880Y014170D01*
X013880Y013170D02*
X013360Y013170D01*
X013360Y012170D02*
X013880Y012170D01*
X013880Y011170D02*
X013360Y011170D01*
X013360Y010170D02*
X013880Y010170D01*
X013880Y009170D02*
X013360Y009170D01*
X013360Y008170D02*
X013880Y008170D01*
X013880Y007170D02*
X013360Y007170D01*
X013360Y006170D02*
X013880Y006170D01*
X013880Y005170D02*
X013360Y005170D01*
X013360Y004170D02*
X013880Y004170D01*
X013880Y003170D02*
X013360Y003170D01*
X010880Y003170D02*
X010360Y003170D01*
X010360Y004170D02*
X010880Y004170D01*
X010880Y005170D02*
X010360Y005170D01*
X010360Y006170D02*
X010880Y006170D01*
X010880Y007170D02*
X010360Y007170D01*
X010360Y008170D02*
X010880Y008170D01*
X010880Y009170D02*
X010360Y009170D01*
X010360Y010170D02*
X010880Y010170D01*
X010880Y011170D02*
X010360Y011170D01*
X010360Y012170D02*
X010880Y012170D01*
D18*
X004689Y022971D03*
D19*
X005236Y024089D03*
X005779Y022971D03*
X006327Y024089D03*
X006870Y022971D03*
X007413Y024089D03*
X008504Y024089D03*
X007961Y022971D03*
X009051Y022971D03*
D20*
X011791Y023530D03*
X001949Y023530D03*
D21*
X009880Y013660D03*
X012190Y011140D03*
X014500Y012680D03*
X017160Y015970D03*
X018770Y002530D03*
X013800Y002390D03*
X013870Y001410D03*
X002810Y012400D03*
D22*
X000600Y000600D02*
X000600Y024900D01*
X021820Y024900D01*
X021820Y000600D01*
X012482Y000600D01*
X012523Y000641D01*
X012595Y000816D01*
X012595Y001004D01*
X012523Y001179D01*
X012389Y001313D01*
X012214Y001385D01*
X012026Y001385D01*
X011851Y001313D01*
X011717Y001179D01*
X011645Y001004D01*
X011645Y000816D01*
X011717Y000641D01*
X011758Y000600D01*
X000600Y000600D01*
X000600Y000643D02*
X011717Y000643D01*
X011676Y000741D02*
X000600Y000741D01*
X000600Y000840D02*
X011645Y000840D01*
X011645Y000938D02*
X000600Y000938D01*
X000600Y001037D02*
X011658Y001037D01*
X011699Y001135D02*
X000600Y001135D01*
X000600Y001234D02*
X011772Y001234D01*
X011898Y001332D02*
X000600Y001332D01*
X000600Y001431D02*
X013565Y001431D01*
X013565Y001471D02*
X013565Y001349D01*
X013611Y001237D01*
X013697Y001151D01*
X013809Y001105D01*
X013931Y001105D01*
X014043Y001151D01*
X014129Y001237D01*
X014175Y001349D01*
X014175Y001432D01*
X014616Y001873D01*
X014750Y001873D01*
X014750Y001814D01*
X014838Y001726D01*
X015439Y001726D01*
X014469Y001726D01*
X014567Y001825D02*
X014750Y001825D01*
X014533Y002073D02*
X013870Y001410D01*
X013656Y001628D02*
X012595Y001628D01*
X012595Y001726D02*
X013903Y001726D01*
X013892Y001715D02*
X013809Y001715D01*
X013697Y001669D01*
X013611Y001583D01*
X013565Y001471D01*
X013589Y001529D02*
X012595Y001529D01*
X012595Y001523D02*
X012595Y002297D01*
X012507Y002385D01*
X011733Y002385D01*
X011645Y002297D01*
X011645Y001523D01*
X011733Y001435D01*
X012507Y001435D01*
X012595Y001523D01*
X012595Y001825D02*
X014002Y001825D01*
X014100Y001923D02*
X012595Y001923D01*
X012595Y002022D02*
X014199Y002022D01*
X014297Y002120D02*
X013945Y002120D01*
X013973Y002131D02*
X014059Y002217D01*
X014105Y002329D01*
X014105Y002412D01*
X014156Y002464D01*
X014750Y002464D01*
X014750Y002405D01*
X014786Y002368D01*
X014750Y002332D01*
X014750Y002273D01*
X014450Y002273D01*
X013892Y001715D01*
X013861Y002085D02*
X013973Y002131D01*
X013861Y002085D02*
X013739Y002085D01*
X013627Y002131D01*
X013541Y002217D01*
X013495Y002329D01*
X013495Y002451D01*
X013541Y002563D01*
X013627Y002649D01*
X013739Y002695D01*
X013822Y002695D01*
X013887Y002760D01*
X013278Y002760D01*
X013128Y002822D01*
X013012Y002938D01*
X012950Y003088D01*
X012950Y003252D01*
X013012Y003402D01*
X013128Y003518D01*
X013278Y003580D01*
X013962Y003580D01*
X014112Y003518D01*
X014228Y003402D01*
X014290Y003252D01*
X014290Y003088D01*
X014228Y002938D01*
X014153Y002864D01*
X014750Y002864D01*
X014750Y002923D01*
X014786Y002959D01*
X014750Y002995D01*
X014750Y003513D01*
X014786Y003549D01*
X014750Y003586D01*
X014750Y004104D01*
X014786Y004140D01*
X014750Y004176D01*
X014750Y004694D01*
X014786Y004731D01*
X014750Y004767D01*
X014750Y005285D01*
X014786Y005321D01*
X014750Y005357D01*
X014750Y005875D01*
X014786Y005912D01*
X014750Y005948D01*
X014750Y006466D01*
X014786Y006502D01*
X014750Y006538D01*
X014750Y007056D01*
X014786Y007093D01*
X014750Y007129D01*
X014750Y007647D01*
X014786Y007683D01*
X014750Y007720D01*
X014750Y008238D01*
X014786Y008274D01*
X014750Y008310D01*
X014750Y008828D01*
X014786Y008864D01*
X014750Y008901D01*
X014750Y009419D01*
X014838Y009507D01*
X015140Y009507D01*
X015140Y011267D01*
X014417Y011990D01*
X014300Y012107D01*
X014300Y012449D01*
X014241Y012507D01*
X014195Y012619D01*
X014195Y012741D01*
X014241Y012853D01*
X014327Y012939D01*
X014439Y012985D01*
X014561Y012985D01*
X014673Y012939D01*
X014759Y012853D01*
X014805Y012741D01*
X014805Y012619D01*
X014759Y012507D01*
X014700Y012449D01*
X014700Y012273D01*
X015540Y011433D01*
X015540Y009507D01*
X015749Y009507D01*
X015837Y009419D01*
X015837Y008901D01*
X015801Y008864D01*
X015837Y008828D01*
X015837Y008769D01*
X016046Y008769D01*
X016120Y008843D01*
X016120Y011687D01*
X014347Y013460D01*
X014170Y013460D01*
X014228Y013402D01*
X014290Y013252D01*
X014290Y013088D01*
X014228Y012938D01*
X014112Y012822D01*
X013962Y012760D01*
X013278Y012760D01*
X013128Y012822D01*
X013012Y012938D01*
X012950Y013088D01*
X012950Y013252D01*
X013012Y013402D01*
X013070Y013460D01*
X011170Y013460D01*
X011228Y013402D01*
X011290Y013252D01*
X011290Y013088D01*
X011228Y012938D01*
X011112Y012822D01*
X011082Y012810D01*
X012063Y012810D01*
X012180Y012693D01*
X012390Y012483D01*
X012390Y011371D01*
X012449Y011313D01*
X012495Y011201D01*
X012495Y011079D01*
X012449Y010967D01*
X012363Y010881D01*
X012251Y010835D01*
X012129Y010835D01*
X012017Y010881D01*
X011931Y010967D01*
X011885Y011079D01*
X011885Y011201D01*
X011931Y011313D01*
X011990Y011371D01*
X011990Y012317D01*
X011897Y012410D01*
X011220Y012410D01*
X011228Y012402D01*
X011290Y012252D01*
X011290Y012088D01*
X011228Y011938D01*
X011112Y011822D01*
X010962Y011760D01*
X010278Y011760D01*
X010128Y011822D01*
X010012Y011938D01*
X009950Y012088D01*
X009950Y012252D01*
X010012Y012402D01*
X010020Y012410D01*
X008563Y012410D01*
X008470Y012317D01*
X008353Y012200D01*
X003041Y012200D01*
X002983Y012141D01*
X002871Y012095D01*
X002749Y012095D01*
X002637Y012141D01*
X002551Y012227D01*
X002505Y012339D01*
X002505Y012461D01*
X002551Y012573D01*
X002637Y012659D01*
X002749Y012705D01*
X002871Y012705D01*
X002983Y012659D01*
X003041Y012600D01*
X008187Y012600D01*
X008397Y012810D01*
X010158Y012810D01*
X010128Y012822D01*
X010012Y012938D01*
X009950Y013088D01*
X009950Y013252D01*
X010004Y013381D01*
X009941Y013355D01*
X009819Y013355D01*
X009707Y013401D01*
X009621Y013487D01*
X009575Y013599D01*
X009575Y013721D01*
X009621Y013833D01*
X009707Y013919D01*
X009819Y013965D01*
X009941Y013965D01*
X010017Y013934D01*
X010012Y013938D01*
X009950Y014088D01*
X009950Y014252D01*
X010012Y014402D01*
X010128Y014518D01*
X010278Y014580D01*
X010962Y014580D01*
X011112Y014518D01*
X011228Y014402D01*
X011290Y014252D01*
X011290Y014088D01*
X011228Y013938D01*
X011150Y013860D01*
X013090Y013860D01*
X013012Y013938D01*
X012950Y014088D01*
X012950Y014252D01*
X013012Y014402D01*
X013128Y014518D01*
X013278Y014580D01*
X013962Y014580D01*
X014112Y014518D01*
X014228Y014402D01*
X014290Y014252D01*
X014290Y014088D01*
X014228Y013938D01*
X014150Y013860D01*
X014513Y013860D01*
X014630Y013743D01*
X016520Y011853D01*
X016520Y008677D01*
X016403Y008560D01*
X016212Y008369D01*
X015837Y008369D01*
X015837Y008310D01*
X015801Y008274D01*
X015837Y008238D01*
X015837Y007720D01*
X015801Y007683D01*
X015837Y007647D01*
X015837Y007129D01*
X015801Y007093D01*
X015837Y007056D01*
X015837Y006538D01*
X015801Y006502D01*
X015837Y006466D01*
X015837Y005948D01*
X015801Y005912D01*
X015837Y005875D01*
X015837Y005357D01*
X015801Y005321D01*
X015837Y005285D01*
X015837Y004767D01*
X015801Y004731D01*
X015837Y004694D01*
X015837Y004176D01*
X015801Y004140D01*
X015837Y004104D01*
X015837Y003586D01*
X015801Y003549D01*
X015837Y003513D01*
X015837Y002995D01*
X015801Y002959D01*
X015837Y002923D01*
X015837Y002405D01*
X015801Y002368D01*
X015837Y002332D01*
X015837Y001888D01*
X016045Y001888D01*
X016081Y001852D01*
X016117Y001888D01*
X016635Y001888D01*
X016671Y001852D01*
X016708Y001888D01*
X017226Y001888D01*
X017262Y001852D01*
X017298Y001888D01*
X017816Y001888D01*
X017853Y001852D01*
X017889Y001888D01*
X018407Y001888D01*
X018443Y001852D01*
X018479Y001888D01*
X018997Y001888D01*
X019034Y001852D01*
X019070Y001888D01*
X019129Y001888D01*
X019027Y001990D01*
X019027Y001990D01*
X018792Y002225D01*
X018709Y002225D01*
X018597Y002271D01*
X018511Y002357D01*
X018465Y002469D01*
X018465Y002591D01*
X018511Y002703D01*
X018597Y002789D01*
X018709Y002835D01*
X018831Y002835D01*
X018943Y002789D01*
X019029Y002703D01*
X019075Y002591D01*
X019075Y002508D01*
X019310Y002273D01*
X019868Y002273D01*
X019868Y002332D01*
X019904Y002368D01*
X019868Y002405D01*
X019868Y002923D01*
X019904Y002959D01*
X019868Y002995D01*
X019868Y003054D01*
X018733Y003054D01*
X018127Y003660D01*
X018010Y003777D01*
X018010Y014837D01*
X017182Y015665D01*
X017099Y015665D01*
X016987Y015711D01*
X016901Y015797D01*
X016855Y015909D01*
X016855Y016031D01*
X016901Y016143D01*
X016987Y016229D01*
X017099Y016275D01*
X017221Y016275D01*
X017333Y016229D01*
X017419Y016143D01*
X017465Y016031D01*
X017465Y015948D01*
X018410Y015003D01*
X018410Y003943D01*
X018899Y003454D01*
X019868Y003454D01*
X019868Y003513D01*
X019904Y003549D01*
X019868Y003586D01*
X019868Y004104D01*
X019904Y004140D01*
X019868Y004176D01*
X019868Y004694D01*
X019904Y004731D01*
X019868Y004767D01*
X019868Y005285D01*
X019904Y005321D01*
X019868Y005357D01*
X019868Y005875D01*
X019904Y005912D01*
X019868Y005948D01*
X019868Y006466D01*
X019904Y006502D01*
X019868Y006538D01*
X019868Y007056D01*
X019904Y007093D01*
X019868Y007129D01*
X019868Y007647D01*
X019904Y007683D01*
X019868Y007720D01*
X019868Y008238D01*
X019904Y008274D01*
X019868Y008310D01*
X019868Y008828D01*
X019904Y008864D01*
X019868Y008901D01*
X019868Y009419D01*
X019956Y009507D01*
X020867Y009507D01*
X020955Y009419D01*
X020955Y008901D01*
X020919Y008864D01*
X020955Y008828D01*
X020955Y008310D01*
X020919Y008274D01*
X020955Y008238D01*
X020955Y007720D01*
X020919Y007683D01*
X020955Y007647D01*
X020955Y007129D01*
X020919Y007093D01*
X020955Y007056D01*
X020955Y006538D01*
X020919Y006502D01*
X020955Y006466D01*
X020955Y005948D01*
X020919Y005912D01*
X020955Y005875D01*
X020955Y005357D01*
X020919Y005321D01*
X020955Y005285D01*
X020955Y004767D01*
X020919Y004731D01*
X020955Y004694D01*
X020955Y004176D01*
X020919Y004140D01*
X020955Y004104D01*
X020955Y003586D01*
X020919Y003549D01*
X020955Y003513D01*
X020955Y002995D01*
X020919Y002959D01*
X020955Y002923D01*
X020955Y002405D01*
X020919Y002368D01*
X020955Y002332D01*
X020955Y001814D01*
X020867Y001726D01*
X020266Y001726D01*
X021820Y001726D01*
X021820Y001628D02*
X020266Y001628D01*
X020266Y001726D02*
X020266Y000968D01*
X020179Y000880D01*
X019661Y000880D01*
X019624Y000916D01*
X019588Y000880D01*
X019070Y000880D01*
X019034Y000916D01*
X018997Y000880D01*
X018479Y000880D01*
X018443Y000916D01*
X018407Y000880D01*
X017889Y000880D01*
X017853Y000916D01*
X017816Y000880D01*
X017298Y000880D01*
X017262Y000916D01*
X017226Y000880D01*
X016708Y000880D01*
X016671Y000916D01*
X016635Y000880D01*
X016117Y000880D01*
X016081Y000916D01*
X016045Y000880D01*
X015527Y000880D01*
X015439Y000968D01*
X015439Y001726D01*
X015439Y001628D02*
X014370Y001628D01*
X014272Y001529D02*
X015439Y001529D01*
X015439Y001431D02*
X014175Y001431D01*
X014168Y001332D02*
X015439Y001332D01*
X015439Y001234D02*
X014125Y001234D01*
X014003Y001135D02*
X015439Y001135D01*
X015439Y001037D02*
X012582Y001037D01*
X012595Y000938D02*
X015468Y000938D01*
X015837Y001923D02*
X019094Y001923D01*
X018996Y002022D02*
X015837Y002022D01*
X015837Y002120D02*
X018897Y002120D01*
X018799Y002219D02*
X015837Y002219D01*
X015837Y002317D02*
X018552Y002317D01*
X018487Y002416D02*
X015837Y002416D01*
X015837Y002514D02*
X018465Y002514D01*
X018474Y002613D02*
X015837Y002613D01*
X015837Y002711D02*
X018520Y002711D01*
X018648Y002810D02*
X015837Y002810D01*
X015837Y002908D02*
X019868Y002908D01*
X019868Y002810D02*
X018892Y002810D01*
X019020Y002711D02*
X019868Y002711D01*
X019868Y002613D02*
X019066Y002613D01*
X019075Y002514D02*
X019868Y002514D01*
X019868Y002416D02*
X019167Y002416D01*
X019266Y002317D02*
X019868Y002317D01*
X019645Y001873D02*
X019624Y001852D01*
X019603Y001873D01*
X019645Y001873D01*
X019227Y002073D02*
X020412Y002073D01*
X020266Y001529D02*
X021820Y001529D01*
X021820Y001431D02*
X020266Y001431D01*
X020266Y001332D02*
X021820Y001332D01*
X021820Y001234D02*
X020266Y001234D01*
X020266Y001135D02*
X021820Y001135D01*
X021820Y001037D02*
X020266Y001037D01*
X020237Y000938D02*
X021820Y000938D01*
X021820Y000840D02*
X012595Y000840D01*
X012564Y000741D02*
X021820Y000741D01*
X021820Y000643D02*
X012523Y000643D01*
X012541Y001135D02*
X013737Y001135D01*
X013615Y001234D02*
X012468Y001234D01*
X012342Y001332D02*
X013572Y001332D01*
X013655Y002120D02*
X012595Y002120D01*
X012595Y002219D02*
X013541Y002219D01*
X013500Y002317D02*
X012575Y002317D01*
X013042Y002908D02*
X011198Y002908D01*
X011228Y002938D02*
X011112Y002822D01*
X010962Y002760D01*
X010278Y002760D01*
X010128Y002822D01*
X010012Y002938D01*
X009950Y003088D01*
X009950Y003252D01*
X010012Y003402D01*
X010128Y003518D01*
X010278Y003580D01*
X010962Y003580D01*
X011112Y003518D01*
X011228Y003402D01*
X011290Y003252D01*
X011290Y003088D01*
X011228Y002938D01*
X011256Y003007D02*
X012984Y003007D01*
X012950Y003105D02*
X011290Y003105D01*
X011290Y003204D02*
X012950Y003204D01*
X012971Y003302D02*
X011269Y003302D01*
X011228Y003401D02*
X013012Y003401D01*
X013109Y003499D02*
X011131Y003499D01*
X011045Y003795D02*
X013195Y003795D01*
X013128Y003822D02*
X013278Y003760D01*
X013962Y003760D01*
X014112Y003822D01*
X014228Y003938D01*
X014290Y004088D01*
X014290Y004252D01*
X014228Y004402D01*
X014112Y004518D01*
X013962Y004580D01*
X013278Y004580D01*
X013128Y004518D01*
X013012Y004402D01*
X012950Y004252D01*
X012950Y004088D01*
X013012Y003938D01*
X013128Y003822D01*
X013057Y003893D02*
X011183Y003893D01*
X011228Y003938D02*
X011112Y003822D01*
X010962Y003760D01*
X010278Y003760D01*
X010128Y003822D01*
X010012Y003938D01*
X009950Y004088D01*
X009950Y004252D01*
X010012Y004402D01*
X010128Y004518D01*
X010278Y004580D01*
X010962Y004580D01*
X011112Y004518D01*
X011228Y004402D01*
X011290Y004252D01*
X011290Y004088D01*
X011228Y003938D01*
X011250Y003992D02*
X012990Y003992D01*
X012950Y004090D02*
X011290Y004090D01*
X011290Y004189D02*
X012950Y004189D01*
X012965Y004287D02*
X011275Y004287D01*
X011235Y004386D02*
X013005Y004386D01*
X013094Y004484D02*
X011146Y004484D01*
X011009Y004780D02*
X013231Y004780D01*
X013278Y004760D02*
X013962Y004760D01*
X014112Y004822D01*
X014228Y004938D01*
X014290Y005088D01*
X014290Y005252D01*
X014228Y005402D01*
X014112Y005518D01*
X013962Y005580D01*
X013278Y005580D01*
X013128Y005518D01*
X013012Y005402D01*
X012950Y005252D01*
X012950Y005088D01*
X013012Y004938D01*
X013128Y004822D01*
X013278Y004760D01*
X013072Y004878D02*
X011168Y004878D01*
X011112Y004822D02*
X011228Y004938D01*
X011290Y005088D01*
X011290Y005252D01*
X011228Y005402D01*
X011112Y005518D01*
X010962Y005580D01*
X010278Y005580D01*
X010128Y005518D01*
X010012Y005402D01*
X009950Y005252D01*
X009950Y005088D01*
X010012Y004938D01*
X010128Y004822D01*
X010278Y004760D01*
X010962Y004760D01*
X011112Y004822D01*
X011244Y004977D02*
X012996Y004977D01*
X012956Y005075D02*
X011284Y005075D01*
X011290Y005174D02*
X012950Y005174D01*
X012958Y005272D02*
X011282Y005272D01*
X011241Y005371D02*
X012999Y005371D01*
X013079Y005469D02*
X011161Y005469D01*
X010992Y005568D02*
X013248Y005568D01*
X013278Y005760D02*
X013128Y005822D01*
X013012Y005938D01*
X012950Y006088D01*
X012950Y006252D01*
X013012Y006402D01*
X013128Y006518D01*
X013278Y006580D01*
X013962Y006580D01*
X014112Y006518D01*
X014228Y006402D01*
X014290Y006252D01*
X014290Y006088D01*
X014228Y005938D01*
X014112Y005822D01*
X013962Y005760D01*
X013278Y005760D01*
X013268Y005765D02*
X010972Y005765D01*
X010962Y005760D02*
X011112Y005822D01*
X011228Y005938D01*
X011290Y006088D01*
X011290Y006252D01*
X011228Y006402D01*
X011112Y006518D01*
X010962Y006580D01*
X010278Y006580D01*
X010128Y006518D01*
X010012Y006402D01*
X009950Y006252D01*
X009950Y006088D01*
X010012Y005938D01*
X010128Y005822D01*
X010278Y005760D01*
X010962Y005760D01*
X011153Y005863D02*
X013087Y005863D01*
X013003Y005962D02*
X011237Y005962D01*
X011278Y006060D02*
X012962Y006060D01*
X012950Y006159D02*
X011290Y006159D01*
X011288Y006257D02*
X012952Y006257D01*
X012993Y006356D02*
X011247Y006356D01*
X011176Y006454D02*
X013064Y006454D01*
X013212Y006553D02*
X011028Y006553D01*
X010962Y006760D02*
X011112Y006822D01*
X011228Y006938D01*
X011290Y007088D01*
X011290Y007252D01*
X011228Y007402D01*
X011112Y007518D01*
X010962Y007580D01*
X010278Y007580D01*
X010128Y007518D01*
X010012Y007402D01*
X009950Y007252D01*
X009950Y007088D01*
X010012Y006938D01*
X010128Y006822D01*
X010278Y006760D01*
X010962Y006760D01*
X011138Y006848D02*
X013102Y006848D01*
X013128Y006822D02*
X013278Y006760D01*
X013962Y006760D01*
X014112Y006822D01*
X014228Y006938D01*
X014290Y007088D01*
X014290Y007252D01*
X014228Y007402D01*
X014112Y007518D01*
X013962Y007580D01*
X013278Y007580D01*
X013128Y007518D01*
X013012Y007402D01*
X012950Y007252D01*
X012950Y007088D01*
X013012Y006938D01*
X013128Y006822D01*
X013009Y006947D02*
X011231Y006947D01*
X011272Y007045D02*
X012968Y007045D01*
X012950Y007144D02*
X011290Y007144D01*
X011290Y007242D02*
X012950Y007242D01*
X012987Y007341D02*
X011253Y007341D01*
X011191Y007439D02*
X013049Y007439D01*
X013176Y007538D02*
X011064Y007538D01*
X010962Y007760D02*
X011112Y007822D01*
X011228Y007938D01*
X011290Y008088D01*
X011290Y008252D01*
X011228Y008402D01*
X011112Y008518D01*
X010962Y008580D01*
X010278Y008580D01*
X010128Y008518D01*
X010012Y008402D01*
X009950Y008252D01*
X009950Y008088D01*
X010012Y007938D01*
X010128Y007822D01*
X010278Y007760D01*
X010962Y007760D01*
X011123Y007833D02*
X013117Y007833D01*
X013128Y007822D02*
X013278Y007760D01*
X013962Y007760D01*
X014112Y007822D01*
X014228Y007938D01*
X014290Y008088D01*
X014290Y008252D01*
X014228Y008402D01*
X014112Y008518D01*
X013962Y008580D01*
X013278Y008580D01*
X013128Y008518D01*
X013012Y008402D01*
X012950Y008252D01*
X012950Y008088D01*
X013012Y007938D01*
X013128Y007822D01*
X013019Y007932D02*
X011221Y007932D01*
X011266Y008030D02*
X012974Y008030D01*
X012950Y008129D02*
X011290Y008129D01*
X011290Y008227D02*
X012950Y008227D01*
X012981Y008326D02*
X011259Y008326D01*
X011206Y008424D02*
X013034Y008424D01*
X013140Y008523D02*
X011100Y008523D01*
X010962Y008760D02*
X011112Y008822D01*
X011228Y008938D01*
X011290Y009088D01*
X011290Y009252D01*
X011228Y009402D01*
X011112Y009518D01*
X010962Y009580D01*
X010278Y009580D01*
X010128Y009518D01*
X010012Y009402D01*
X009950Y009252D01*
X009950Y009088D01*
X010012Y008938D01*
X010128Y008822D01*
X010278Y008760D01*
X010962Y008760D01*
X011102Y008818D02*
X013138Y008818D01*
X013128Y008822D02*
X013278Y008760D01*
X013962Y008760D01*
X014112Y008822D01*
X014228Y008938D01*
X014290Y009088D01*
X014290Y009252D01*
X014228Y009402D01*
X014112Y009518D01*
X013962Y009580D01*
X013278Y009580D01*
X013128Y009518D01*
X013012Y009402D01*
X012950Y009252D01*
X012950Y009088D01*
X013012Y008938D01*
X013128Y008822D01*
X013034Y008917D02*
X011206Y008917D01*
X011260Y009015D02*
X012980Y009015D01*
X012950Y009114D02*
X011290Y009114D01*
X011290Y009212D02*
X012950Y009212D01*
X012974Y009311D02*
X011266Y009311D01*
X011221Y009409D02*
X013019Y009409D01*
X013118Y009508D02*
X011122Y009508D01*
X010962Y009760D02*
X011112Y009822D01*
X011228Y009938D01*
X011290Y010088D01*
X011290Y010252D01*
X011228Y010402D01*
X011112Y010518D01*
X010962Y010580D01*
X010278Y010580D01*
X010128Y010518D01*
X010012Y010402D01*
X009950Y010252D01*
X009950Y010088D01*
X010012Y009938D01*
X010128Y009822D01*
X010278Y009760D01*
X010962Y009760D01*
X011065Y009803D02*
X013175Y009803D01*
X013128Y009822D02*
X013278Y009760D01*
X013962Y009760D01*
X014112Y009822D01*
X014228Y009938D01*
X014290Y010088D01*
X014290Y010252D01*
X014228Y010402D01*
X014112Y010518D01*
X013962Y010580D01*
X013278Y010580D01*
X013128Y010518D01*
X013012Y010402D01*
X012950Y010252D01*
X012950Y010088D01*
X013012Y009938D01*
X013128Y009822D01*
X013049Y009902D02*
X011191Y009902D01*
X011253Y010000D02*
X012987Y010000D01*
X012950Y010099D02*
X011290Y010099D01*
X011290Y010197D02*
X012950Y010197D01*
X012968Y010296D02*
X011272Y010296D01*
X011231Y010394D02*
X013009Y010394D01*
X013103Y010493D02*
X011137Y010493D01*
X011029Y010788D02*
X013211Y010788D01*
X013278Y010760D02*
X013128Y010822D01*
X013012Y010938D01*
X012950Y011088D01*
X012950Y011252D01*
X013012Y011402D01*
X013128Y011518D01*
X013278Y011580D01*
X013962Y011580D01*
X014112Y011518D01*
X014228Y011402D01*
X014290Y011252D01*
X014290Y011088D01*
X014228Y010938D01*
X014112Y010822D01*
X013962Y010760D01*
X013278Y010760D01*
X013064Y010887D02*
X012368Y010887D01*
X012456Y010985D02*
X012993Y010985D01*
X012952Y011084D02*
X012495Y011084D01*
X012495Y011182D02*
X012950Y011182D01*
X012962Y011281D02*
X012462Y011281D01*
X012390Y011379D02*
X013003Y011379D01*
X013088Y011478D02*
X012390Y011478D01*
X012390Y011576D02*
X013269Y011576D01*
X013278Y011760D02*
X013128Y011822D01*
X013012Y011938D01*
X012950Y012088D01*
X012950Y012252D01*
X013012Y012402D01*
X013128Y012518D01*
X013278Y012580D01*
X013962Y012580D01*
X014112Y012518D01*
X014228Y012402D01*
X014290Y012252D01*
X014290Y012088D01*
X014228Y011938D01*
X014112Y011822D01*
X013962Y011760D01*
X013278Y011760D01*
X013247Y011773D02*
X012390Y011773D01*
X012390Y011675D02*
X014733Y011675D01*
X014634Y011773D02*
X013993Y011773D01*
X014161Y011872D02*
X014536Y011872D01*
X014437Y011970D02*
X014241Y011970D01*
X014282Y012069D02*
X014339Y012069D01*
X014300Y012167D02*
X014290Y012167D01*
X014284Y012266D02*
X014300Y012266D01*
X014300Y012364D02*
X014243Y012364D01*
X014286Y012463D02*
X014167Y012463D01*
X014219Y012561D02*
X014007Y012561D01*
X014195Y012660D02*
X012213Y012660D01*
X012115Y012758D02*
X014202Y012758D01*
X014245Y012857D02*
X014146Y012857D01*
X014235Y012955D02*
X014367Y012955D01*
X014276Y013054D02*
X014754Y013054D01*
X014655Y013152D02*
X014290Y013152D01*
X014290Y013251D02*
X014557Y013251D01*
X014458Y013349D02*
X014250Y013349D01*
X014182Y013448D02*
X014360Y013448D01*
X014430Y013660D02*
X009880Y013660D01*
X009759Y013940D02*
X008508Y013940D01*
X008488Y013920D02*
X008634Y014066D01*
X008713Y014257D01*
X008713Y014464D01*
X008634Y014655D01*
X008488Y014801D01*
X008345Y014861D01*
X008488Y014920D01*
X008634Y015066D01*
X008713Y015257D01*
X008713Y015464D01*
X008634Y015655D01*
X008488Y015801D01*
X008345Y015861D01*
X008488Y015920D01*
X008634Y016066D01*
X008713Y016257D01*
X008713Y016464D01*
X008634Y016655D01*
X008488Y016801D01*
X008345Y016861D01*
X008488Y016920D01*
X008634Y017066D01*
X008713Y017257D01*
X008713Y017464D01*
X008634Y017655D01*
X008488Y017801D01*
X008345Y017861D01*
X008488Y017920D01*
X008634Y018066D01*
X008713Y018257D01*
X008713Y018464D01*
X008634Y018655D01*
X008488Y018801D01*
X008297Y018881D01*
X007350Y018881D01*
X007159Y018801D01*
X007012Y018655D01*
X006933Y018464D01*
X006933Y018257D01*
X007012Y018066D01*
X007159Y017920D01*
X007302Y017861D01*
X007159Y017801D01*
X007012Y017655D01*
X006933Y017464D01*
X006933Y017257D01*
X007012Y017066D01*
X007159Y016920D01*
X007302Y016861D01*
X007159Y016801D01*
X007012Y016655D01*
X006933Y016464D01*
X006933Y016257D01*
X007012Y016066D01*
X007159Y015920D01*
X007302Y015861D01*
X007159Y015801D01*
X007012Y015655D01*
X006933Y015464D01*
X006933Y015257D01*
X007012Y015066D01*
X007159Y014920D01*
X007302Y014861D01*
X007159Y014801D01*
X007012Y014655D01*
X006933Y014464D01*
X006933Y014257D01*
X007012Y014066D01*
X007159Y013920D01*
X007302Y013861D01*
X007159Y013801D01*
X007012Y013655D01*
X006933Y013464D01*
X006933Y013257D01*
X007012Y013066D01*
X007159Y012920D01*
X007350Y012841D01*
X008297Y012841D01*
X008488Y012920D01*
X008634Y013066D01*
X008713Y013257D01*
X008713Y013464D01*
X008634Y013655D01*
X008488Y013801D01*
X008345Y013861D01*
X008488Y013920D01*
X008391Y013842D02*
X009630Y013842D01*
X009584Y013743D02*
X008546Y013743D01*
X008639Y013645D02*
X009575Y013645D01*
X009597Y013546D02*
X008679Y013546D01*
X008713Y013448D02*
X009661Y013448D01*
X009990Y013349D02*
X008713Y013349D01*
X008711Y013251D02*
X009950Y013251D01*
X009950Y013152D02*
X008670Y013152D01*
X008622Y013054D02*
X009964Y013054D01*
X010005Y012955D02*
X008523Y012955D01*
X008335Y012857D02*
X010094Y012857D01*
X009997Y012364D02*
X008517Y012364D01*
X008418Y012266D02*
X009956Y012266D01*
X009950Y012167D02*
X003008Y012167D01*
X002810Y012400D02*
X008270Y012400D01*
X008480Y012610D01*
X011980Y012610D01*
X012190Y012400D01*
X012190Y011140D01*
X011918Y011281D02*
X011278Y011281D01*
X011290Y011252D02*
X011228Y011402D01*
X011112Y011518D01*
X010962Y011580D01*
X010278Y011580D01*
X010128Y011518D01*
X010012Y011402D01*
X009950Y011252D01*
X009950Y011088D01*
X010012Y010938D01*
X010128Y010822D01*
X010278Y010760D01*
X010962Y010760D01*
X011112Y010822D01*
X011228Y010938D01*
X011290Y011088D01*
X011290Y011252D01*
X011290Y011182D02*
X011885Y011182D01*
X011885Y011084D02*
X011288Y011084D01*
X011247Y010985D02*
X011924Y010985D01*
X012012Y010887D02*
X011176Y010887D01*
X011237Y011379D02*
X011990Y011379D01*
X011990Y011478D02*
X011152Y011478D01*
X010971Y011576D02*
X011990Y011576D01*
X011990Y011675D02*
X009102Y011675D01*
X009103Y011671D02*
X009031Y011846D01*
X008897Y011980D01*
X008723Y012052D01*
X008534Y012052D01*
X008359Y011980D01*
X008225Y011846D01*
X008153Y011671D01*
X008153Y011482D01*
X008225Y011308D01*
X008359Y011174D01*
X008534Y011102D01*
X008723Y011102D01*
X008897Y011174D01*
X009031Y011308D01*
X009103Y011482D01*
X009103Y011671D01*
X009103Y011576D02*
X010269Y011576D01*
X010247Y011773D02*
X009061Y011773D01*
X009005Y011872D02*
X010079Y011872D01*
X009999Y011970D02*
X008907Y011970D01*
X009101Y011478D02*
X010088Y011478D01*
X010003Y011379D02*
X009060Y011379D01*
X009003Y011281D02*
X009962Y011281D01*
X009950Y011182D02*
X008905Y011182D01*
X009015Y011052D02*
X008241Y011052D01*
X008153Y010964D01*
X008153Y010190D01*
X008241Y010102D01*
X009015Y010102D01*
X009103Y010190D01*
X009103Y010964D01*
X009015Y011052D01*
X009082Y010985D02*
X009993Y010985D01*
X009952Y011084D02*
X000600Y011084D01*
X000600Y011182D02*
X008351Y011182D01*
X008253Y011281D02*
X000600Y011281D01*
X000600Y011379D02*
X008196Y011379D01*
X008155Y011478D02*
X000600Y011478D01*
X000600Y011576D02*
X008153Y011576D01*
X008154Y011675D02*
X000600Y011675D01*
X000600Y011773D02*
X008195Y011773D01*
X008251Y011872D02*
X000600Y011872D01*
X000600Y011970D02*
X008349Y011970D01*
X008247Y012660D02*
X002980Y012660D01*
X002640Y012660D02*
X000600Y012660D01*
X000600Y012758D02*
X008345Y012758D01*
X008607Y014039D02*
X009971Y014039D01*
X009950Y014137D02*
X008664Y014137D01*
X008704Y014236D02*
X009950Y014236D01*
X009984Y014334D02*
X008713Y014334D01*
X008713Y014433D02*
X010043Y014433D01*
X010160Y014531D02*
X008686Y014531D01*
X008645Y014630D02*
X018010Y014630D01*
X018010Y014728D02*
X016258Y014728D01*
X016250Y014720D02*
X016490Y014960D01*
X016490Y015300D01*
X016250Y015540D01*
X015910Y015540D01*
X015670Y015300D01*
X015670Y014960D01*
X015910Y014720D01*
X016250Y014720D01*
X016356Y014827D02*
X018010Y014827D01*
X017922Y014925D02*
X016455Y014925D01*
X016490Y015024D02*
X017824Y015024D01*
X017725Y015122D02*
X016490Y015122D01*
X016490Y015221D02*
X017627Y015221D01*
X017528Y015319D02*
X016471Y015319D01*
X016372Y015418D02*
X017430Y015418D01*
X017331Y015516D02*
X016274Y015516D01*
X015886Y015516D02*
X014114Y015516D01*
X014112Y015518D02*
X013962Y015580D01*
X013278Y015580D01*
X013128Y015518D01*
X013012Y015402D01*
X012950Y015252D01*
X012950Y015088D01*
X013012Y014938D01*
X013128Y014822D01*
X013278Y014760D01*
X013962Y014760D01*
X014112Y014822D01*
X014228Y014938D01*
X014290Y015088D01*
X014290Y015252D01*
X014228Y015402D01*
X014112Y015518D01*
X014212Y015418D02*
X015788Y015418D01*
X015689Y015319D02*
X014262Y015319D01*
X014290Y015221D02*
X015670Y015221D01*
X015670Y015122D02*
X014290Y015122D01*
X014263Y015024D02*
X015670Y015024D01*
X015705Y014925D02*
X014215Y014925D01*
X014116Y014827D02*
X015804Y014827D01*
X015902Y014728D02*
X008561Y014728D01*
X008427Y014827D02*
X010124Y014827D01*
X010128Y014822D02*
X010278Y014760D01*
X010962Y014760D01*
X011112Y014822D01*
X011228Y014938D01*
X011290Y015088D01*
X011290Y015252D01*
X011228Y015402D01*
X011112Y015518D01*
X010962Y015580D01*
X010278Y015580D01*
X010128Y015518D01*
X010012Y015402D01*
X009950Y015252D01*
X009950Y015088D01*
X010012Y014938D01*
X010128Y014822D01*
X010025Y014925D02*
X008493Y014925D01*
X008592Y015024D02*
X009977Y015024D01*
X009950Y015122D02*
X008657Y015122D01*
X008698Y015221D02*
X009950Y015221D01*
X009978Y015319D02*
X008713Y015319D01*
X008713Y015418D02*
X010028Y015418D01*
X010126Y015516D02*
X008692Y015516D01*
X008651Y015615D02*
X017233Y015615D01*
X016986Y015713D02*
X008576Y015713D01*
X008464Y015812D02*
X010154Y015812D01*
X010128Y015822D02*
X010278Y015760D01*
X010962Y015760D01*
X011112Y015822D01*
X011228Y015938D01*
X011290Y016088D01*
X011290Y016252D01*
X011228Y016402D01*
X011112Y016518D01*
X010962Y016580D01*
X010278Y016580D01*
X010128Y016518D01*
X010012Y016402D01*
X009950Y016252D01*
X009950Y016088D01*
X010012Y015938D01*
X010128Y015822D01*
X010040Y015910D02*
X008464Y015910D01*
X008577Y016009D02*
X009983Y016009D01*
X009950Y016107D02*
X008651Y016107D01*
X008692Y016206D02*
X009950Y016206D01*
X009972Y016304D02*
X008713Y016304D01*
X008713Y016403D02*
X010013Y016403D01*
X010111Y016501D02*
X008698Y016501D01*
X008657Y016600D02*
X015670Y016600D01*
X015670Y016698D02*
X008591Y016698D01*
X008493Y016797D02*
X015767Y016797D01*
X015670Y016700D02*
X015910Y016940D01*
X016250Y016940D01*
X016490Y016700D01*
X016490Y016360D01*
X016250Y016120D01*
X015910Y016120D01*
X015670Y016360D01*
X015670Y016700D01*
X015670Y016501D02*
X014129Y016501D01*
X014112Y016518D02*
X014228Y016402D01*
X014290Y016252D01*
X014290Y016088D01*
X014228Y015938D01*
X014112Y015822D01*
X013962Y015760D01*
X013278Y015760D01*
X013128Y015822D01*
X013012Y015938D01*
X012950Y016088D01*
X012950Y016252D01*
X013012Y016402D01*
X013128Y016518D01*
X013278Y016580D01*
X013962Y016580D01*
X014112Y016518D01*
X014227Y016403D02*
X015670Y016403D01*
X015726Y016304D02*
X014268Y016304D01*
X014290Y016206D02*
X015825Y016206D01*
X016335Y016206D02*
X016964Y016206D01*
X016887Y016107D02*
X014290Y016107D01*
X014257Y016009D02*
X016855Y016009D01*
X016855Y015910D02*
X014200Y015910D01*
X014086Y015812D02*
X016896Y015812D01*
X017160Y015970D02*
X018210Y014920D01*
X018210Y003860D01*
X018816Y003254D01*
X020412Y003254D01*
X020955Y003302D02*
X021820Y003302D01*
X021820Y003204D02*
X020955Y003204D01*
X020955Y003105D02*
X021820Y003105D01*
X021820Y003007D02*
X020955Y003007D01*
X020955Y002908D02*
X021820Y002908D01*
X021820Y002810D02*
X020955Y002810D01*
X020955Y002711D02*
X021820Y002711D01*
X021820Y002613D02*
X020955Y002613D01*
X020955Y002514D02*
X021820Y002514D01*
X021820Y002416D02*
X020955Y002416D01*
X020955Y002317D02*
X021820Y002317D01*
X021820Y002219D02*
X020955Y002219D01*
X020955Y002120D02*
X021820Y002120D01*
X021820Y002022D02*
X020955Y002022D01*
X020955Y001923D02*
X021820Y001923D01*
X021820Y001825D02*
X020955Y001825D01*
X020955Y003401D02*
X021820Y003401D01*
X021820Y003499D02*
X020955Y003499D01*
X020955Y003598D02*
X021820Y003598D01*
X021820Y003696D02*
X020955Y003696D01*
X020955Y003795D02*
X021820Y003795D01*
X021820Y003893D02*
X020955Y003893D01*
X020955Y003992D02*
X021820Y003992D01*
X021820Y004090D02*
X020955Y004090D01*
X020955Y004189D02*
X021820Y004189D01*
X021820Y004287D02*
X020955Y004287D01*
X020955Y004386D02*
X021820Y004386D01*
X021820Y004484D02*
X020955Y004484D01*
X020955Y004583D02*
X021820Y004583D01*
X021820Y004681D02*
X020955Y004681D01*
X020955Y004780D02*
X021820Y004780D01*
X021820Y004878D02*
X020955Y004878D01*
X020955Y004977D02*
X021820Y004977D01*
X021820Y005075D02*
X020955Y005075D01*
X020955Y005174D02*
X021820Y005174D01*
X021820Y005272D02*
X020955Y005272D01*
X020955Y005371D02*
X021820Y005371D01*
X021820Y005469D02*
X020955Y005469D01*
X020955Y005568D02*
X021820Y005568D01*
X021820Y005666D02*
X020955Y005666D01*
X020955Y005765D02*
X021820Y005765D01*
X021820Y005863D02*
X020955Y005863D01*
X020955Y005962D02*
X021820Y005962D01*
X021820Y006060D02*
X020955Y006060D01*
X020955Y006159D02*
X021820Y006159D01*
X021820Y006257D02*
X020955Y006257D01*
X020955Y006356D02*
X021820Y006356D01*
X021820Y006454D02*
X020955Y006454D01*
X020955Y006553D02*
X021820Y006553D01*
X021820Y006651D02*
X020955Y006651D01*
X020955Y006750D02*
X021820Y006750D01*
X021820Y006848D02*
X020955Y006848D01*
X020955Y006947D02*
X021820Y006947D01*
X021820Y007045D02*
X020955Y007045D01*
X020955Y007144D02*
X021820Y007144D01*
X021820Y007242D02*
X020955Y007242D01*
X020955Y007341D02*
X021820Y007341D01*
X021820Y007439D02*
X020955Y007439D01*
X020955Y007538D02*
X021820Y007538D01*
X021820Y007636D02*
X020955Y007636D01*
X020955Y007735D02*
X021820Y007735D01*
X021820Y007833D02*
X020955Y007833D01*
X020955Y007932D02*
X021820Y007932D01*
X021820Y008030D02*
X020955Y008030D01*
X020955Y008129D02*
X021820Y008129D01*
X021820Y008227D02*
X020955Y008227D01*
X020955Y008326D02*
X021820Y008326D01*
X021820Y008424D02*
X020955Y008424D01*
X020955Y008523D02*
X021820Y008523D01*
X021820Y008621D02*
X020955Y008621D01*
X020955Y008720D02*
X021820Y008720D01*
X021820Y008818D02*
X020955Y008818D01*
X020955Y008917D02*
X021820Y008917D01*
X021820Y009015D02*
X020955Y009015D01*
X020955Y009114D02*
X021820Y009114D01*
X021820Y009212D02*
X020955Y009212D01*
X020955Y009311D02*
X021820Y009311D01*
X021820Y009409D02*
X020955Y009409D01*
X021820Y009508D02*
X018410Y009508D01*
X018410Y009606D02*
X021820Y009606D01*
X021820Y009705D02*
X018410Y009705D01*
X018410Y009803D02*
X021820Y009803D01*
X021820Y009902D02*
X018410Y009902D01*
X018410Y010000D02*
X021820Y010000D01*
X021820Y010099D02*
X018410Y010099D01*
X018410Y010197D02*
X021820Y010197D01*
X021820Y010296D02*
X018410Y010296D01*
X018410Y010394D02*
X021820Y010394D01*
X021820Y010493D02*
X018410Y010493D01*
X018410Y010591D02*
X021820Y010591D01*
X021820Y010690D02*
X018410Y010690D01*
X018410Y010788D02*
X021820Y010788D01*
X021820Y010887D02*
X018410Y010887D01*
X018410Y010985D02*
X021820Y010985D01*
X021820Y011084D02*
X018410Y011084D01*
X018410Y011182D02*
X021820Y011182D01*
X021820Y011281D02*
X018410Y011281D01*
X018410Y011379D02*
X021820Y011379D01*
X021820Y011478D02*
X018410Y011478D01*
X018410Y011576D02*
X021820Y011576D01*
X021820Y011675D02*
X018410Y011675D01*
X018410Y011773D02*
X021820Y011773D01*
X021820Y011872D02*
X018410Y011872D01*
X018410Y011970D02*
X021820Y011970D01*
X021820Y012069D02*
X018410Y012069D01*
X018410Y012167D02*
X021820Y012167D01*
X021820Y012266D02*
X018410Y012266D01*
X018410Y012364D02*
X021820Y012364D01*
X021820Y012463D02*
X018410Y012463D01*
X018410Y012561D02*
X021820Y012561D01*
X021820Y012660D02*
X018410Y012660D01*
X018410Y012758D02*
X021820Y012758D01*
X021820Y012857D02*
X018410Y012857D01*
X018410Y012955D02*
X021820Y012955D01*
X021820Y013054D02*
X018410Y013054D01*
X018410Y013152D02*
X021820Y013152D01*
X021820Y013251D02*
X018410Y013251D01*
X018410Y013349D02*
X021820Y013349D01*
X021820Y013448D02*
X019307Y013448D01*
X019250Y013390D02*
X019490Y013630D01*
X019490Y013970D01*
X019250Y014210D01*
X018910Y014210D01*
X018670Y013970D01*
X018670Y013630D01*
X018910Y013390D01*
X019250Y013390D01*
X019406Y013546D02*
X021820Y013546D01*
X021820Y013645D02*
X019490Y013645D01*
X019490Y013743D02*
X021820Y013743D01*
X021820Y013842D02*
X019490Y013842D01*
X019490Y013940D02*
X021820Y013940D01*
X021820Y014039D02*
X019421Y014039D01*
X019323Y014137D02*
X021820Y014137D01*
X021820Y014236D02*
X018410Y014236D01*
X018410Y014334D02*
X021820Y014334D01*
X021820Y014433D02*
X018410Y014433D01*
X018410Y014531D02*
X021820Y014531D01*
X021820Y014630D02*
X018410Y014630D01*
X018410Y014728D02*
X018902Y014728D01*
X018910Y014720D02*
X019250Y014720D01*
X019490Y014960D01*
X019490Y015300D01*
X019250Y015540D01*
X018910Y015540D01*
X018670Y015300D01*
X018670Y014960D01*
X018910Y014720D01*
X018804Y014827D02*
X018410Y014827D01*
X018410Y014925D02*
X018705Y014925D01*
X018670Y015024D02*
X018389Y015024D01*
X018291Y015122D02*
X018670Y015122D01*
X018670Y015221D02*
X018192Y015221D01*
X018094Y015319D02*
X018689Y015319D01*
X018788Y015418D02*
X017995Y015418D01*
X017897Y015516D02*
X018886Y015516D01*
X019274Y015516D02*
X021820Y015516D01*
X021820Y015418D02*
X021012Y015418D01*
X020970Y015460D02*
X020630Y015460D01*
X020390Y015220D01*
X020390Y014880D01*
X020630Y014640D01*
X020970Y014640D01*
X021210Y014880D01*
X021210Y015220D01*
X020970Y015460D01*
X020970Y015640D02*
X020630Y015640D01*
X020390Y015880D01*
X020390Y016220D01*
X020630Y016460D01*
X020970Y016460D01*
X021210Y016220D01*
X021210Y015880D01*
X020970Y015640D01*
X021043Y015713D02*
X021820Y015713D01*
X021820Y015615D02*
X017798Y015615D01*
X017700Y015713D02*
X020557Y015713D01*
X020459Y015812D02*
X017601Y015812D01*
X017503Y015910D02*
X020390Y015910D01*
X020390Y016009D02*
X017465Y016009D01*
X017433Y016107D02*
X020390Y016107D01*
X020390Y016206D02*
X019335Y016206D01*
X019250Y016120D02*
X019490Y016360D01*
X019490Y016700D01*
X019250Y016940D01*
X018910Y016940D01*
X018670Y016700D01*
X018670Y016360D01*
X018910Y016120D01*
X019250Y016120D01*
X019434Y016304D02*
X020474Y016304D01*
X020573Y016403D02*
X019490Y016403D01*
X019490Y016501D02*
X021820Y016501D01*
X021820Y016403D02*
X021027Y016403D01*
X021126Y016304D02*
X021820Y016304D01*
X021820Y016206D02*
X021210Y016206D01*
X021210Y016107D02*
X021820Y016107D01*
X021820Y016009D02*
X021210Y016009D01*
X021210Y015910D02*
X021820Y015910D01*
X021820Y015812D02*
X021141Y015812D01*
X021111Y015319D02*
X021820Y015319D01*
X021820Y015221D02*
X021209Y015221D01*
X021210Y015122D02*
X021820Y015122D01*
X021820Y015024D02*
X021210Y015024D01*
X021210Y014925D02*
X021820Y014925D01*
X021820Y014827D02*
X021156Y014827D01*
X021058Y014728D02*
X021820Y014728D01*
X020542Y014728D02*
X019258Y014728D01*
X019356Y014827D02*
X020444Y014827D01*
X020390Y014925D02*
X019455Y014925D01*
X019490Y015024D02*
X020390Y015024D01*
X020390Y015122D02*
X019490Y015122D01*
X019490Y015221D02*
X020391Y015221D01*
X020489Y015319D02*
X019471Y015319D01*
X019372Y015418D02*
X020588Y015418D01*
X019490Y016600D02*
X021820Y016600D01*
X021820Y016698D02*
X019490Y016698D01*
X019393Y016797D02*
X021820Y016797D01*
X021820Y016895D02*
X019295Y016895D01*
X018865Y016895D02*
X016295Y016895D01*
X016393Y016797D02*
X018767Y016797D01*
X018670Y016698D02*
X016490Y016698D01*
X016490Y016600D02*
X018670Y016600D01*
X018670Y016501D02*
X016490Y016501D01*
X016490Y016403D02*
X018670Y016403D01*
X018726Y016304D02*
X016434Y016304D01*
X015865Y016895D02*
X008428Y016895D01*
X008562Y016994D02*
X021820Y016994D01*
X021820Y017092D02*
X008645Y017092D01*
X008686Y017191D02*
X021820Y017191D01*
X021820Y017289D02*
X008713Y017289D01*
X008713Y017388D02*
X021820Y017388D01*
X021820Y017486D02*
X008704Y017486D01*
X008663Y017585D02*
X015846Y017585D01*
X015910Y017520D02*
X016250Y017520D01*
X016490Y017760D01*
X016490Y018100D01*
X016250Y018340D01*
X015910Y018340D01*
X015670Y018100D01*
X015670Y017760D01*
X015910Y017520D01*
X015747Y017683D02*
X008606Y017683D01*
X008508Y017782D02*
X015670Y017782D01*
X015670Y017880D02*
X008392Y017880D01*
X008547Y017979D02*
X015670Y017979D01*
X015670Y018077D02*
X008639Y018077D01*
X008679Y018176D02*
X015746Y018176D01*
X015844Y018274D02*
X008713Y018274D01*
X008713Y018373D02*
X010996Y018373D01*
X011011Y018357D02*
X011186Y018285D01*
X011374Y018285D01*
X011549Y018357D01*
X011683Y018491D01*
X011755Y018666D01*
X011755Y018854D01*
X011683Y019029D01*
X011549Y019163D01*
X011374Y019235D01*
X011186Y019235D01*
X011011Y019163D01*
X010877Y019029D01*
X010805Y018854D01*
X010805Y018666D01*
X010877Y018491D01*
X011011Y018357D01*
X010897Y018471D02*
X008710Y018471D01*
X008670Y018570D02*
X010845Y018570D01*
X010805Y018668D02*
X008621Y018668D01*
X008523Y018767D02*
X010805Y018767D01*
X010809Y018865D02*
X008334Y018865D01*
X007312Y018865D02*
X000600Y018865D01*
X000600Y018767D02*
X007124Y018767D01*
X007025Y018668D02*
X000600Y018668D01*
X000600Y018570D02*
X006977Y018570D01*
X006936Y018471D02*
X000600Y018471D01*
X000600Y018373D02*
X006933Y018373D01*
X006933Y018274D02*
X000600Y018274D01*
X000600Y018176D02*
X006967Y018176D01*
X007008Y018077D02*
X000600Y018077D01*
X000600Y017979D02*
X007100Y017979D01*
X007255Y017880D02*
X000600Y017880D01*
X000600Y017782D02*
X007139Y017782D01*
X007040Y017683D02*
X000600Y017683D01*
X000600Y017585D02*
X006983Y017585D01*
X006942Y017486D02*
X000600Y017486D01*
X000600Y017388D02*
X006933Y017388D01*
X006933Y017289D02*
X000600Y017289D01*
X000600Y017191D02*
X006961Y017191D01*
X007002Y017092D02*
X000600Y017092D01*
X000600Y016994D02*
X007085Y016994D01*
X007219Y016895D02*
X000600Y016895D01*
X000600Y016797D02*
X007154Y016797D01*
X007055Y016698D02*
X000600Y016698D01*
X000600Y016600D02*
X006989Y016600D01*
X006949Y016501D02*
X000600Y016501D01*
X000600Y016403D02*
X006933Y016403D01*
X006933Y016304D02*
X000600Y016304D01*
X000600Y016206D02*
X006955Y016206D01*
X006996Y016107D02*
X000600Y016107D01*
X000600Y016009D02*
X007070Y016009D01*
X007182Y015910D02*
X000600Y015910D01*
X000600Y015812D02*
X007183Y015812D01*
X007070Y015713D02*
X000600Y015713D01*
X000600Y015615D02*
X006996Y015615D01*
X006955Y015516D02*
X000600Y015516D01*
X000600Y015418D02*
X006933Y015418D01*
X006933Y015319D02*
X000600Y015319D01*
X000600Y015221D02*
X006948Y015221D01*
X006989Y015122D02*
X000600Y015122D01*
X000600Y015024D02*
X007055Y015024D01*
X007154Y014925D02*
X000600Y014925D01*
X000600Y014827D02*
X007219Y014827D01*
X007085Y014728D02*
X000600Y014728D01*
X000600Y014630D02*
X007002Y014630D01*
X006961Y014531D02*
X000600Y014531D01*
X000600Y014433D02*
X006933Y014433D01*
X006933Y014334D02*
X000600Y014334D01*
X000600Y014236D02*
X006942Y014236D01*
X006983Y014137D02*
X000600Y014137D01*
X000600Y014039D02*
X007040Y014039D01*
X007139Y013940D02*
X000600Y013940D01*
X000600Y013842D02*
X007255Y013842D01*
X007100Y013743D02*
X000600Y013743D01*
X000600Y013645D02*
X007008Y013645D01*
X006967Y013546D02*
X000600Y013546D01*
X000600Y013448D02*
X006933Y013448D01*
X006933Y013349D02*
X000600Y013349D01*
X000600Y013251D02*
X006936Y013251D01*
X006977Y013152D02*
X000600Y013152D01*
X000600Y013054D02*
X007025Y013054D01*
X007124Y012955D02*
X000600Y012955D01*
X000600Y012857D02*
X007311Y012857D01*
X008174Y010985D02*
X000600Y010985D01*
X000600Y010887D02*
X008153Y010887D01*
X008153Y010788D02*
X000600Y010788D01*
X000600Y010690D02*
X008153Y010690D01*
X008153Y010591D02*
X000600Y010591D01*
X000600Y010493D02*
X008153Y010493D01*
X008153Y010394D02*
X000600Y010394D01*
X000600Y010296D02*
X008153Y010296D01*
X008153Y010197D02*
X000600Y010197D01*
X000600Y010099D02*
X009950Y010099D01*
X009950Y010197D02*
X009103Y010197D01*
X009103Y010296D02*
X009968Y010296D01*
X010009Y010394D02*
X009103Y010394D01*
X009103Y010493D02*
X010103Y010493D01*
X010211Y010788D02*
X009103Y010788D01*
X009103Y010690D02*
X015140Y010690D01*
X015140Y010788D02*
X014029Y010788D01*
X014176Y010887D02*
X015140Y010887D01*
X015140Y010985D02*
X014247Y010985D01*
X014288Y011084D02*
X015140Y011084D01*
X015140Y011182D02*
X014290Y011182D01*
X014278Y011281D02*
X015127Y011281D01*
X015028Y011379D02*
X014237Y011379D01*
X014152Y011478D02*
X014930Y011478D01*
X014831Y011576D02*
X013971Y011576D01*
X014500Y012190D02*
X014500Y012680D01*
X014781Y012561D02*
X015246Y012561D01*
X015148Y012660D02*
X014805Y012660D01*
X014798Y012758D02*
X015049Y012758D01*
X014951Y012857D02*
X014755Y012857D01*
X014852Y012955D02*
X014633Y012955D01*
X014925Y013448D02*
X015853Y013448D01*
X015910Y013390D02*
X016250Y013390D01*
X016490Y013630D01*
X016490Y013970D01*
X016250Y014210D01*
X015910Y014210D01*
X015670Y013970D01*
X015670Y013630D01*
X015910Y013390D01*
X015754Y013546D02*
X014827Y013546D01*
X014728Y013645D02*
X015670Y013645D01*
X015670Y013743D02*
X014630Y013743D01*
X014531Y013842D02*
X015670Y013842D01*
X015670Y013940D02*
X014229Y013940D01*
X014269Y014039D02*
X015739Y014039D01*
X015837Y014137D02*
X014290Y014137D01*
X014290Y014236D02*
X018010Y014236D01*
X018010Y014334D02*
X014256Y014334D01*
X014197Y014433D02*
X018010Y014433D01*
X018010Y014531D02*
X014080Y014531D01*
X014430Y013660D02*
X016320Y011770D01*
X016320Y008760D01*
X016129Y008569D01*
X015294Y008569D01*
X015294Y009160D02*
X015340Y009206D01*
X015340Y011350D01*
X014500Y012190D01*
X014707Y012266D02*
X015542Y012266D01*
X015443Y012364D02*
X014700Y012364D01*
X014714Y012463D02*
X015345Y012463D01*
X015615Y012758D02*
X018010Y012758D01*
X018010Y012660D02*
X015713Y012660D01*
X015812Y012561D02*
X018010Y012561D01*
X018010Y012463D02*
X015910Y012463D01*
X016009Y012364D02*
X018010Y012364D01*
X018010Y012266D02*
X016107Y012266D01*
X016206Y012167D02*
X018010Y012167D01*
X018010Y012069D02*
X016304Y012069D01*
X016403Y011970D02*
X018010Y011970D01*
X018010Y011872D02*
X016501Y011872D01*
X016520Y011773D02*
X018010Y011773D01*
X018010Y011675D02*
X016520Y011675D01*
X016520Y011576D02*
X018010Y011576D01*
X018010Y011478D02*
X016520Y011478D01*
X016520Y011379D02*
X018010Y011379D01*
X018010Y011281D02*
X016520Y011281D01*
X016520Y011182D02*
X018010Y011182D01*
X018010Y011084D02*
X016520Y011084D01*
X016520Y010985D02*
X018010Y010985D01*
X018010Y010887D02*
X016520Y010887D01*
X016520Y010788D02*
X018010Y010788D01*
X018010Y010690D02*
X016520Y010690D01*
X016520Y010591D02*
X018010Y010591D01*
X018010Y010493D02*
X016520Y010493D01*
X016520Y010394D02*
X018010Y010394D01*
X018010Y010296D02*
X016520Y010296D01*
X016520Y010197D02*
X018010Y010197D01*
X018010Y010099D02*
X016520Y010099D01*
X016520Y010000D02*
X018010Y010000D01*
X018010Y009902D02*
X016520Y009902D01*
X016520Y009803D02*
X018010Y009803D01*
X018010Y009705D02*
X016520Y009705D01*
X016520Y009606D02*
X018010Y009606D01*
X018010Y009508D02*
X016520Y009508D01*
X016520Y009409D02*
X018010Y009409D01*
X018010Y009311D02*
X016520Y009311D01*
X016520Y009212D02*
X018010Y009212D01*
X018010Y009114D02*
X016520Y009114D01*
X016520Y009015D02*
X018010Y009015D01*
X018010Y008917D02*
X016520Y008917D01*
X016520Y008818D02*
X018010Y008818D01*
X018010Y008720D02*
X016520Y008720D01*
X016464Y008621D02*
X018010Y008621D01*
X018010Y008523D02*
X016365Y008523D01*
X016267Y008424D02*
X018010Y008424D01*
X018010Y008326D02*
X015837Y008326D01*
X015837Y008227D02*
X018010Y008227D01*
X018010Y008129D02*
X015837Y008129D01*
X015837Y008030D02*
X018010Y008030D01*
X018010Y007932D02*
X015837Y007932D01*
X015837Y007833D02*
X018010Y007833D01*
X018010Y007735D02*
X015837Y007735D01*
X015837Y007636D02*
X018010Y007636D01*
X018010Y007538D02*
X015837Y007538D01*
X015837Y007439D02*
X018010Y007439D01*
X018010Y007341D02*
X015837Y007341D01*
X015837Y007242D02*
X018010Y007242D01*
X018010Y007144D02*
X015837Y007144D01*
X015837Y007045D02*
X018010Y007045D01*
X018010Y006947D02*
X015837Y006947D01*
X015837Y006848D02*
X018010Y006848D01*
X018010Y006750D02*
X015837Y006750D01*
X015837Y006651D02*
X018010Y006651D01*
X018010Y006553D02*
X015837Y006553D01*
X015837Y006454D02*
X018010Y006454D01*
X018010Y006356D02*
X015837Y006356D01*
X015837Y006257D02*
X018010Y006257D01*
X018010Y006159D02*
X015837Y006159D01*
X015837Y006060D02*
X018010Y006060D01*
X018010Y005962D02*
X015837Y005962D01*
X015837Y005863D02*
X018010Y005863D01*
X018010Y005765D02*
X015837Y005765D01*
X015837Y005666D02*
X018010Y005666D01*
X018010Y005568D02*
X015837Y005568D01*
X015837Y005469D02*
X018010Y005469D01*
X018010Y005371D02*
X015837Y005371D01*
X015837Y005272D02*
X018010Y005272D01*
X018010Y005174D02*
X015837Y005174D01*
X015837Y005075D02*
X018010Y005075D01*
X018010Y004977D02*
X015837Y004977D01*
X015837Y004878D02*
X018010Y004878D01*
X018010Y004780D02*
X015837Y004780D01*
X015837Y004681D02*
X018010Y004681D01*
X018010Y004583D02*
X015837Y004583D01*
X015837Y004484D02*
X018010Y004484D01*
X018010Y004386D02*
X015837Y004386D01*
X015837Y004287D02*
X018010Y004287D01*
X018010Y004189D02*
X015837Y004189D01*
X015837Y004090D02*
X018010Y004090D01*
X018010Y003992D02*
X015837Y003992D01*
X015837Y003893D02*
X018010Y003893D01*
X018010Y003795D02*
X015837Y003795D01*
X015837Y003696D02*
X018091Y003696D01*
X018190Y003598D02*
X015837Y003598D01*
X015837Y003499D02*
X018288Y003499D01*
X018387Y003401D02*
X015837Y003401D01*
X015837Y003302D02*
X018485Y003302D01*
X018584Y003204D02*
X015837Y003204D01*
X015837Y003105D02*
X018682Y003105D01*
X018854Y003499D02*
X019868Y003499D01*
X019868Y003598D02*
X018755Y003598D01*
X018657Y003696D02*
X019868Y003696D01*
X019868Y003795D02*
X018558Y003795D01*
X018460Y003893D02*
X019868Y003893D01*
X019868Y003992D02*
X018410Y003992D01*
X018410Y004090D02*
X019868Y004090D01*
X019868Y004189D02*
X018410Y004189D01*
X018410Y004287D02*
X019868Y004287D01*
X019868Y004386D02*
X018410Y004386D01*
X018410Y004484D02*
X019868Y004484D01*
X019868Y004583D02*
X018410Y004583D01*
X018410Y004681D02*
X019868Y004681D01*
X019868Y004780D02*
X018410Y004780D01*
X018410Y004878D02*
X019868Y004878D01*
X019868Y004977D02*
X018410Y004977D01*
X018410Y005075D02*
X019868Y005075D01*
X019868Y005174D02*
X018410Y005174D01*
X018410Y005272D02*
X019868Y005272D01*
X019868Y005371D02*
X018410Y005371D01*
X018410Y005469D02*
X019868Y005469D01*
X019868Y005568D02*
X018410Y005568D01*
X018410Y005666D02*
X019868Y005666D01*
X019868Y005765D02*
X018410Y005765D01*
X018410Y005863D02*
X019868Y005863D01*
X019868Y005962D02*
X018410Y005962D01*
X018410Y006060D02*
X019868Y006060D01*
X019868Y006159D02*
X018410Y006159D01*
X018410Y006257D02*
X019868Y006257D01*
X019868Y006356D02*
X018410Y006356D01*
X018410Y006454D02*
X019868Y006454D01*
X019868Y006553D02*
X018410Y006553D01*
X018410Y006651D02*
X019868Y006651D01*
X019868Y006750D02*
X018410Y006750D01*
X018410Y006848D02*
X019868Y006848D01*
X019868Y006947D02*
X018410Y006947D01*
X018410Y007045D02*
X019868Y007045D01*
X019868Y007144D02*
X018410Y007144D01*
X018410Y007242D02*
X019868Y007242D01*
X019868Y007341D02*
X018410Y007341D01*
X018410Y007439D02*
X019868Y007439D01*
X019868Y007538D02*
X018410Y007538D01*
X018410Y007636D02*
X019868Y007636D01*
X019868Y007735D02*
X018410Y007735D01*
X018410Y007833D02*
X019868Y007833D01*
X019868Y007932D02*
X018410Y007932D01*
X018410Y008030D02*
X019868Y008030D01*
X019868Y008129D02*
X018410Y008129D01*
X018410Y008227D02*
X019868Y008227D01*
X019868Y008326D02*
X018410Y008326D01*
X018410Y008424D02*
X019868Y008424D01*
X019868Y008523D02*
X018410Y008523D01*
X018410Y008621D02*
X019868Y008621D01*
X019868Y008720D02*
X018410Y008720D01*
X018410Y008818D02*
X019868Y008818D01*
X019868Y008917D02*
X018410Y008917D01*
X018410Y009015D02*
X019868Y009015D01*
X019868Y009114D02*
X018410Y009114D01*
X018410Y009212D02*
X019868Y009212D01*
X019868Y009311D02*
X018410Y009311D01*
X018410Y009409D02*
X019868Y009409D01*
X018010Y012857D02*
X015516Y012857D01*
X015418Y012955D02*
X018010Y012955D01*
X018010Y013054D02*
X015319Y013054D01*
X015221Y013152D02*
X018010Y013152D01*
X018010Y013251D02*
X015122Y013251D01*
X015024Y013349D02*
X018010Y013349D01*
X018010Y013448D02*
X016307Y013448D01*
X016406Y013546D02*
X018010Y013546D01*
X018010Y013645D02*
X016490Y013645D01*
X016490Y013743D02*
X018010Y013743D01*
X018010Y013842D02*
X016490Y013842D01*
X016490Y013940D02*
X018010Y013940D01*
X018010Y014039D02*
X016421Y014039D01*
X016323Y014137D02*
X018010Y014137D01*
X018410Y014137D02*
X018837Y014137D01*
X018739Y014039D02*
X018410Y014039D01*
X018410Y013940D02*
X018670Y013940D01*
X018670Y013842D02*
X018410Y013842D01*
X018410Y013743D02*
X018670Y013743D01*
X018670Y013645D02*
X018410Y013645D01*
X018410Y013546D02*
X018754Y013546D01*
X018853Y013448D02*
X018410Y013448D01*
X018825Y016206D02*
X017356Y016206D01*
X016314Y017585D02*
X018846Y017585D01*
X018910Y017520D02*
X019250Y017520D01*
X019490Y017760D01*
X019490Y018100D01*
X019250Y018340D01*
X018910Y018340D01*
X018670Y018100D01*
X018670Y017760D01*
X018910Y017520D01*
X018747Y017683D02*
X016413Y017683D01*
X016490Y017782D02*
X018670Y017782D01*
X018670Y017880D02*
X016490Y017880D01*
X016490Y017979D02*
X018670Y017979D01*
X018670Y018077D02*
X016490Y018077D01*
X016414Y018176D02*
X018746Y018176D01*
X018844Y018274D02*
X016316Y018274D01*
X014495Y018803D02*
X014407Y018715D01*
X013633Y018715D01*
X013545Y018803D01*
X013545Y019577D01*
X013633Y019665D01*
X014407Y019665D01*
X014495Y019577D01*
X014495Y018803D01*
X014459Y018767D02*
X020390Y018767D01*
X020390Y018750D02*
X020630Y018510D01*
X020970Y018510D01*
X021210Y018750D01*
X021210Y019090D01*
X020970Y019330D01*
X020630Y019330D01*
X020390Y019090D01*
X020390Y018750D01*
X020390Y018865D02*
X014495Y018865D01*
X014495Y018964D02*
X020390Y018964D01*
X020390Y019062D02*
X014495Y019062D01*
X014495Y019161D02*
X020461Y019161D01*
X020559Y019259D02*
X014495Y019259D01*
X014495Y019358D02*
X021820Y019358D01*
X021820Y019456D02*
X014495Y019456D01*
X014495Y019555D02*
X021820Y019555D01*
X021820Y019653D02*
X014419Y019653D01*
X013621Y019653D02*
X013143Y019653D01*
X013114Y019665D02*
X012926Y019665D01*
X012751Y019593D01*
X012617Y019459D01*
X012545Y019284D01*
X012545Y019096D01*
X012617Y018921D01*
X012751Y018787D01*
X012926Y018715D01*
X013114Y018715D01*
X013289Y018787D01*
X013423Y018921D01*
X013495Y019096D01*
X013495Y019284D01*
X013423Y019459D01*
X013289Y019593D01*
X013114Y019665D01*
X012897Y019653D02*
X011755Y019653D01*
X011755Y019555D02*
X012713Y019555D01*
X012616Y019456D02*
X011755Y019456D01*
X011755Y019373D02*
X011755Y020147D01*
X011667Y020235D01*
X010893Y020235D01*
X010805Y020147D01*
X010805Y019373D01*
X010893Y019285D01*
X011667Y019285D01*
X011755Y019373D01*
X011740Y019358D02*
X012575Y019358D01*
X012545Y019259D02*
X000600Y019259D01*
X000600Y019161D02*
X011009Y019161D01*
X010910Y019062D02*
X000600Y019062D01*
X000600Y018964D02*
X010850Y018964D01*
X010820Y019358D02*
X000600Y019358D01*
X000600Y019456D02*
X010805Y019456D01*
X010805Y019555D02*
X000600Y019555D01*
X000600Y019653D02*
X010805Y019653D01*
X010805Y019752D02*
X000600Y019752D01*
X000600Y019850D02*
X010805Y019850D01*
X010805Y019949D02*
X000600Y019949D01*
X000600Y020047D02*
X010805Y020047D01*
X010805Y020146D02*
X000600Y020146D01*
X000600Y020244D02*
X021820Y020244D01*
X021820Y020146D02*
X011755Y020146D01*
X011755Y020047D02*
X021820Y020047D01*
X021820Y019949D02*
X011755Y019949D01*
X011755Y019850D02*
X021820Y019850D01*
X021820Y019752D02*
X011755Y019752D01*
X011551Y019161D02*
X012545Y019161D01*
X012559Y019062D02*
X011650Y019062D01*
X011710Y018964D02*
X012600Y018964D01*
X012673Y018865D02*
X011751Y018865D01*
X011755Y018767D02*
X012801Y018767D01*
X013239Y018767D02*
X013581Y018767D01*
X013545Y018865D02*
X013367Y018865D01*
X013440Y018964D02*
X013545Y018964D01*
X013545Y019062D02*
X013481Y019062D01*
X013495Y019161D02*
X013545Y019161D01*
X013545Y019259D02*
X013495Y019259D01*
X013465Y019358D02*
X013545Y019358D01*
X013545Y019456D02*
X013424Y019456D01*
X013327Y019555D02*
X013545Y019555D01*
X013590Y021100D02*
X013425Y021169D01*
X013299Y021295D01*
X013230Y021460D01*
X013230Y021640D01*
X013299Y021805D01*
X013425Y021931D01*
X013590Y022000D01*
X014370Y022000D01*
X014535Y021931D01*
X014661Y021805D01*
X014730Y021640D01*
X014730Y021460D01*
X014661Y021295D01*
X014535Y021169D01*
X014370Y021100D01*
X013590Y021100D01*
X013517Y021131D02*
X000600Y021131D01*
X000600Y021229D02*
X013365Y021229D01*
X013285Y021328D02*
X000600Y021328D01*
X000600Y021426D02*
X013244Y021426D01*
X013230Y021525D02*
X000600Y021525D01*
X000600Y021623D02*
X013230Y021623D01*
X013264Y021722D02*
X000600Y021722D01*
X000600Y021820D02*
X013314Y021820D01*
X013412Y021919D02*
X000600Y021919D01*
X000600Y022017D02*
X018918Y022017D01*
X018974Y021919D02*
X014548Y021919D01*
X014646Y021820D02*
X019054Y021820D01*
X019000Y021875D02*
X019205Y021670D01*
X019455Y021525D01*
X019735Y021450D01*
X020025Y021450D01*
X020305Y021525D01*
X020555Y021670D01*
X020760Y021875D01*
X020905Y022125D01*
X020980Y022405D01*
X020980Y022695D01*
X020905Y022975D01*
X020760Y023225D01*
X020555Y023430D01*
X020305Y023575D01*
X020025Y023650D01*
X019735Y023650D01*
X019455Y023575D01*
X019205Y023430D01*
X019000Y023225D01*
X018855Y022975D01*
X018780Y022695D01*
X018780Y022405D01*
X018855Y022125D01*
X019000Y021875D01*
X019153Y021722D02*
X014696Y021722D01*
X014730Y021623D02*
X019286Y021623D01*
X019457Y021525D02*
X014730Y021525D01*
X014716Y021426D02*
X021820Y021426D01*
X021820Y021328D02*
X014675Y021328D01*
X014595Y021229D02*
X021820Y021229D01*
X021820Y021131D02*
X014443Y021131D01*
X014370Y022100D02*
X014535Y022169D01*
X014661Y022295D01*
X014730Y022460D01*
X014730Y022640D01*
X014661Y022805D01*
X018810Y022805D01*
X018836Y022904D02*
X014563Y022904D01*
X014535Y022931D02*
X014370Y023000D01*
X013590Y023000D01*
X013425Y022931D01*
X013299Y022805D01*
X012693Y022805D01*
X012711Y022824D02*
X012863Y023086D01*
X012941Y023379D01*
X012941Y023681D01*
X012863Y023974D01*
X012711Y024236D01*
X012497Y024450D01*
X012235Y024602D01*
X011943Y024680D01*
X011640Y024680D01*
X011347Y024602D01*
X011085Y024450D01*
X010871Y024236D01*
X010720Y023974D01*
X010641Y023681D01*
X010641Y023379D01*
X010720Y023086D01*
X010871Y022824D01*
X011085Y022610D01*
X011347Y022458D01*
X011640Y022380D01*
X011943Y022380D01*
X012235Y022458D01*
X012497Y022610D01*
X012711Y022824D01*
X012757Y022904D02*
X013397Y022904D01*
X013299Y022805D02*
X013230Y022640D01*
X013230Y022460D01*
X013299Y022295D01*
X013425Y022169D01*
X013590Y022100D01*
X014370Y022100D01*
X014407Y022116D02*
X018861Y022116D01*
X018831Y022214D02*
X014580Y022214D01*
X014669Y022313D02*
X018805Y022313D01*
X018780Y022411D02*
X014710Y022411D01*
X014730Y022510D02*
X018780Y022510D01*
X018780Y022608D02*
X014730Y022608D01*
X014702Y022707D02*
X018783Y022707D01*
X018871Y023002D02*
X012814Y023002D01*
X012867Y023101D02*
X013589Y023101D01*
X013590Y023100D02*
X014370Y023100D01*
X014535Y023169D01*
X014661Y023295D01*
X014730Y023460D01*
X014730Y023640D01*
X014661Y023805D01*
X014535Y023931D01*
X014370Y024000D01*
X013590Y024000D01*
X013425Y023931D01*
X013299Y023805D01*
X013230Y023640D01*
X013230Y023460D01*
X013299Y023295D01*
X013425Y023169D01*
X013590Y023100D01*
X013395Y023199D02*
X012893Y023199D01*
X012920Y023298D02*
X013297Y023298D01*
X013257Y023396D02*
X012941Y023396D01*
X012941Y023495D02*
X013230Y023495D01*
X013230Y023593D02*
X012941Y023593D01*
X012939Y023692D02*
X013252Y023692D01*
X013292Y023790D02*
X012912Y023790D01*
X012886Y023889D02*
X013382Y023889D01*
X013559Y023987D02*
X012855Y023987D01*
X012798Y024086D02*
X021820Y024086D01*
X021820Y024184D02*
X012742Y024184D01*
X012665Y024283D02*
X021820Y024283D01*
X021820Y024381D02*
X012567Y024381D01*
X012447Y024480D02*
X021820Y024480D01*
X021820Y024578D02*
X012276Y024578D01*
X011955Y024677D02*
X021820Y024677D01*
X021820Y024775D02*
X000600Y024775D01*
X000600Y024677D02*
X001785Y024677D01*
X001797Y024680D02*
X001505Y024602D01*
X001243Y024450D01*
X001029Y024236D01*
X000877Y023974D01*
X000799Y023681D01*
X000799Y023379D01*
X000877Y023086D01*
X001029Y022824D01*
X001243Y022610D01*
X001505Y022458D01*
X001797Y022380D01*
X002100Y022380D01*
X002393Y022458D01*
X002655Y022610D01*
X002869Y022824D01*
X003020Y023086D01*
X003099Y023379D01*
X003099Y023681D01*
X003020Y023974D01*
X002869Y024236D01*
X002655Y024450D01*
X002393Y024602D01*
X002100Y024680D01*
X001797Y024680D01*
X002113Y024677D02*
X011627Y024677D01*
X011307Y024578D02*
X008682Y024578D01*
X008607Y024609D02*
X008400Y024609D01*
X008209Y024530D01*
X008063Y024384D01*
X007984Y024192D01*
X007984Y023986D01*
X008063Y023794D01*
X008209Y023648D01*
X008400Y023569D01*
X008607Y023569D01*
X008798Y023648D01*
X008945Y023794D01*
X009024Y023986D01*
X009024Y024192D01*
X008945Y024384D01*
X008798Y024530D01*
X008607Y024609D01*
X008849Y024480D02*
X011136Y024480D01*
X011016Y024381D02*
X008946Y024381D01*
X008987Y024283D02*
X010917Y024283D01*
X010841Y024184D02*
X009024Y024184D01*
X009024Y024086D02*
X010784Y024086D01*
X010727Y023987D02*
X009024Y023987D01*
X008984Y023889D02*
X010697Y023889D01*
X010670Y023790D02*
X008940Y023790D01*
X008842Y023692D02*
X010644Y023692D01*
X010641Y023593D02*
X008665Y023593D01*
X008757Y023412D02*
X008610Y023266D01*
X008531Y023074D01*
X008531Y022868D01*
X008610Y022676D01*
X008757Y022530D01*
X008948Y022451D01*
X009155Y022451D01*
X009346Y022530D01*
X009492Y022676D01*
X009571Y022868D01*
X009571Y023074D01*
X009492Y023266D01*
X009346Y023412D01*
X009155Y023491D01*
X008948Y023491D01*
X008757Y023412D01*
X008741Y023396D02*
X008271Y023396D01*
X008255Y023412D02*
X008064Y023491D01*
X007857Y023491D01*
X007666Y023412D01*
X007520Y023266D01*
X007441Y023074D01*
X007441Y022868D01*
X007520Y022676D01*
X007666Y022530D01*
X007857Y022451D01*
X008064Y022451D01*
X008255Y022530D01*
X008401Y022676D01*
X008481Y022868D01*
X008481Y023074D01*
X008401Y023266D01*
X008255Y023412D01*
X008369Y023298D02*
X008642Y023298D01*
X008583Y023199D02*
X008429Y023199D01*
X008470Y023101D02*
X008542Y023101D01*
X008531Y023002D02*
X008481Y023002D01*
X008481Y022904D02*
X008531Y022904D01*
X008557Y022805D02*
X008455Y022805D01*
X008414Y022707D02*
X008598Y022707D01*
X008679Y022608D02*
X008333Y022608D01*
X008205Y022510D02*
X008806Y022510D01*
X009296Y022510D02*
X011259Y022510D01*
X011088Y022608D02*
X009424Y022608D01*
X009504Y022707D02*
X010988Y022707D01*
X010890Y022805D02*
X009545Y022805D01*
X009571Y022904D02*
X010825Y022904D01*
X010768Y023002D02*
X009571Y023002D01*
X009560Y023101D02*
X010716Y023101D01*
X010689Y023199D02*
X009519Y023199D01*
X009460Y023298D02*
X010663Y023298D01*
X010641Y023396D02*
X009361Y023396D01*
X008342Y023593D02*
X007575Y023593D01*
X007517Y023569D02*
X007708Y023648D01*
X007854Y023794D01*
X007933Y023986D01*
X007933Y024192D01*
X007854Y024384D01*
X007708Y024530D01*
X007517Y024609D01*
X007310Y024609D01*
X007119Y024530D01*
X006972Y024384D01*
X006893Y024192D01*
X006893Y023986D01*
X006972Y023794D01*
X007119Y023648D01*
X007310Y023569D01*
X007517Y023569D01*
X007650Y023396D02*
X007180Y023396D01*
X007165Y023412D02*
X007311Y023266D01*
X007390Y023074D01*
X007390Y022868D01*
X007311Y022676D01*
X007165Y022530D01*
X006973Y022451D01*
X006767Y022451D01*
X006575Y022530D01*
X006429Y022676D01*
X006350Y022868D01*
X006350Y023074D01*
X006429Y023266D01*
X006575Y023412D01*
X006767Y023491D01*
X006973Y023491D01*
X007165Y023412D01*
X007279Y023298D02*
X007552Y023298D01*
X007492Y023199D02*
X007338Y023199D01*
X007379Y023101D02*
X007451Y023101D01*
X007441Y023002D02*
X007390Y023002D01*
X007390Y022904D02*
X007441Y022904D01*
X007466Y022805D02*
X007364Y022805D01*
X007323Y022707D02*
X007507Y022707D01*
X007588Y022608D02*
X007243Y022608D01*
X007115Y022510D02*
X007716Y022510D01*
X007252Y023593D02*
X006488Y023593D01*
X006430Y023569D02*
X006621Y023648D01*
X006768Y023794D01*
X006847Y023986D01*
X006847Y024192D01*
X006768Y024384D01*
X006621Y024530D01*
X006430Y024609D01*
X006223Y024609D01*
X006032Y024530D01*
X005886Y024384D01*
X005807Y024192D01*
X005807Y023986D01*
X005886Y023794D01*
X006032Y023648D01*
X006223Y023569D01*
X006430Y023569D01*
X006560Y023396D02*
X006090Y023396D01*
X006074Y023412D02*
X005883Y023491D01*
X005676Y023491D01*
X005485Y023412D01*
X005339Y023266D01*
X005259Y023074D01*
X005259Y022868D01*
X005339Y022676D01*
X005485Y022530D01*
X005676Y022451D01*
X005883Y022451D01*
X006074Y022530D01*
X006220Y022676D01*
X006299Y022868D01*
X006299Y023074D01*
X006220Y023266D01*
X006074Y023412D01*
X006188Y023298D02*
X006461Y023298D01*
X006402Y023199D02*
X006248Y023199D01*
X006289Y023101D02*
X006361Y023101D01*
X006350Y023002D02*
X006299Y023002D01*
X006299Y022904D02*
X006350Y022904D01*
X006376Y022805D02*
X006274Y022805D01*
X006233Y022707D02*
X006417Y022707D01*
X006497Y022608D02*
X006152Y022608D01*
X006024Y022510D02*
X006625Y022510D01*
X006165Y023593D02*
X005398Y023593D01*
X005340Y023569D02*
X005531Y023648D01*
X005677Y023794D01*
X005756Y023986D01*
X005756Y024192D01*
X005677Y024384D01*
X005531Y024530D01*
X005340Y024609D01*
X005133Y024609D01*
X004942Y024530D01*
X004795Y024384D01*
X004716Y024192D01*
X004716Y023986D01*
X004795Y023794D01*
X004942Y023648D01*
X005133Y023569D01*
X005340Y023569D01*
X005209Y023403D02*
X005121Y023491D01*
X004257Y023491D01*
X004169Y023403D01*
X004169Y022539D01*
X004257Y022451D01*
X005121Y022451D01*
X005209Y022539D01*
X005209Y023403D01*
X005209Y023396D02*
X005469Y023396D01*
X005371Y023298D02*
X005209Y023298D01*
X005209Y023199D02*
X005311Y023199D01*
X005270Y023101D02*
X005209Y023101D01*
X005209Y023002D02*
X005259Y023002D01*
X005259Y022904D02*
X005209Y022904D01*
X005209Y022805D02*
X005285Y022805D01*
X005326Y022707D02*
X005209Y022707D01*
X005209Y022608D02*
X005407Y022608D01*
X005535Y022510D02*
X005180Y022510D01*
X005075Y023593D02*
X003099Y023593D01*
X003099Y023495D02*
X010641Y023495D01*
X011524Y022411D02*
X002216Y022411D01*
X002481Y022510D02*
X004198Y022510D01*
X004169Y022608D02*
X002652Y022608D01*
X002752Y022707D02*
X004169Y022707D01*
X004169Y022805D02*
X002850Y022805D01*
X002915Y022904D02*
X004169Y022904D01*
X004169Y023002D02*
X002972Y023002D01*
X003024Y023101D02*
X004169Y023101D01*
X004169Y023199D02*
X003051Y023199D01*
X003077Y023298D02*
X004169Y023298D01*
X004169Y023396D02*
X003099Y023396D01*
X003096Y023692D02*
X004898Y023692D01*
X004800Y023790D02*
X003070Y023790D01*
X003043Y023889D02*
X004756Y023889D01*
X004716Y023987D02*
X003013Y023987D01*
X002956Y024086D02*
X004716Y024086D01*
X004716Y024184D02*
X002899Y024184D01*
X002823Y024283D02*
X004753Y024283D01*
X004794Y024381D02*
X002724Y024381D01*
X002604Y024480D02*
X004891Y024480D01*
X005058Y024578D02*
X002433Y024578D01*
X001464Y024578D02*
X000600Y024578D01*
X000600Y024480D02*
X001293Y024480D01*
X001173Y024381D02*
X000600Y024381D01*
X000600Y024283D02*
X001075Y024283D01*
X000998Y024184D02*
X000600Y024184D01*
X000600Y024086D02*
X000942Y024086D01*
X000885Y023987D02*
X000600Y023987D01*
X000600Y023889D02*
X000854Y023889D01*
X000828Y023790D02*
X000600Y023790D01*
X000600Y023692D02*
X000801Y023692D01*
X000799Y023593D02*
X000600Y023593D01*
X000600Y023495D02*
X000799Y023495D01*
X000799Y023396D02*
X000600Y023396D01*
X000600Y023298D02*
X000820Y023298D01*
X000847Y023199D02*
X000600Y023199D01*
X000600Y023101D02*
X000873Y023101D01*
X000926Y023002D02*
X000600Y023002D01*
X000600Y022904D02*
X000983Y022904D01*
X001047Y022805D02*
X000600Y022805D01*
X000600Y022707D02*
X001146Y022707D01*
X001246Y022608D02*
X000600Y022608D01*
X000600Y022510D02*
X001416Y022510D01*
X001681Y022411D02*
X000600Y022411D01*
X000600Y022313D02*
X013291Y022313D01*
X013250Y022411D02*
X012059Y022411D01*
X012324Y022510D02*
X013230Y022510D01*
X013230Y022608D02*
X012494Y022608D01*
X012594Y022707D02*
X013258Y022707D01*
X013380Y022214D02*
X000600Y022214D01*
X000600Y022116D02*
X013553Y022116D01*
X014535Y022931D02*
X014661Y022805D01*
X014565Y023199D02*
X018985Y023199D01*
X018928Y023101D02*
X014371Y023101D01*
X014663Y023298D02*
X019072Y023298D01*
X019170Y023396D02*
X014703Y023396D01*
X014730Y023495D02*
X019316Y023495D01*
X019523Y023593D02*
X014730Y023593D01*
X014708Y023692D02*
X021820Y023692D01*
X021820Y023790D02*
X014668Y023790D01*
X014578Y023889D02*
X021820Y023889D01*
X021820Y023987D02*
X014401Y023987D01*
X011755Y018668D02*
X020472Y018668D01*
X020571Y018570D02*
X011715Y018570D01*
X011663Y018471D02*
X021820Y018471D01*
X021820Y018373D02*
X011564Y018373D01*
X011129Y016501D02*
X013111Y016501D01*
X013013Y016403D02*
X011227Y016403D01*
X011268Y016304D02*
X012972Y016304D01*
X012950Y016206D02*
X011290Y016206D01*
X011290Y016107D02*
X012950Y016107D01*
X012983Y016009D02*
X011257Y016009D01*
X011200Y015910D02*
X013040Y015910D01*
X013154Y015812D02*
X011086Y015812D01*
X011114Y015516D02*
X013126Y015516D01*
X013028Y015418D02*
X011212Y015418D01*
X011262Y015319D02*
X012978Y015319D01*
X012950Y015221D02*
X011290Y015221D01*
X011290Y015122D02*
X012950Y015122D01*
X012977Y015024D02*
X011263Y015024D01*
X011215Y014925D02*
X013025Y014925D01*
X013124Y014827D02*
X011116Y014827D01*
X011080Y014531D02*
X013160Y014531D01*
X013043Y014433D02*
X011197Y014433D01*
X011256Y014334D02*
X012984Y014334D01*
X012950Y014236D02*
X011290Y014236D01*
X011290Y014137D02*
X012950Y014137D01*
X012971Y014039D02*
X011269Y014039D01*
X011229Y013940D02*
X013011Y013940D01*
X013058Y013448D02*
X011182Y013448D01*
X011250Y013349D02*
X012990Y013349D01*
X012950Y013251D02*
X011290Y013251D01*
X011290Y013152D02*
X012950Y013152D01*
X012964Y013054D02*
X011276Y013054D01*
X011235Y012955D02*
X013005Y012955D01*
X013094Y012857D02*
X011146Y012857D01*
X011243Y012364D02*
X011943Y012364D01*
X011990Y012266D02*
X011284Y012266D01*
X011290Y012167D02*
X011990Y012167D01*
X011990Y012069D02*
X011282Y012069D01*
X011241Y011970D02*
X011990Y011970D01*
X011990Y011872D02*
X011161Y011872D01*
X010993Y011773D02*
X011990Y011773D01*
X012390Y011872D02*
X013079Y011872D01*
X012999Y011970D02*
X012390Y011970D01*
X012390Y012069D02*
X012958Y012069D01*
X012950Y012167D02*
X012390Y012167D01*
X012390Y012266D02*
X012956Y012266D01*
X012997Y012364D02*
X012390Y012364D01*
X012390Y012463D02*
X013073Y012463D01*
X013233Y012561D02*
X012312Y012561D01*
X014137Y010493D02*
X015140Y010493D01*
X015140Y010591D02*
X009103Y010591D01*
X009103Y010887D02*
X010064Y010887D01*
X009987Y010000D02*
X000600Y010000D01*
X000600Y009902D02*
X010049Y009902D01*
X010175Y009803D02*
X007289Y009803D01*
X007279Y009813D02*
X007104Y009885D01*
X006916Y009885D01*
X006741Y009813D01*
X006607Y009679D01*
X006535Y009504D01*
X006535Y009316D01*
X006607Y009141D01*
X006741Y009007D01*
X006916Y008935D01*
X007104Y008935D01*
X007279Y009007D01*
X007413Y009141D01*
X007485Y009316D01*
X007485Y009504D01*
X007413Y009679D01*
X007279Y009813D01*
X007387Y009705D02*
X015140Y009705D01*
X015140Y009803D02*
X014065Y009803D01*
X014191Y009902D02*
X015140Y009902D01*
X015140Y010000D02*
X014253Y010000D01*
X014290Y010099D02*
X015140Y010099D01*
X015140Y010197D02*
X014290Y010197D01*
X014272Y010296D02*
X015140Y010296D01*
X015140Y010394D02*
X014231Y010394D01*
X014122Y009508D02*
X015140Y009508D01*
X015140Y009606D02*
X007443Y009606D01*
X007484Y009508D02*
X010118Y009508D01*
X010019Y009409D02*
X007485Y009409D01*
X007483Y009311D02*
X009974Y009311D01*
X009950Y009212D02*
X007442Y009212D01*
X007385Y009114D02*
X009950Y009114D01*
X009980Y009015D02*
X007287Y009015D01*
X006733Y009015D02*
X003165Y009015D01*
X003220Y008960D02*
X002980Y009200D01*
X002640Y009200D01*
X002400Y008960D01*
X002400Y008620D01*
X002640Y008380D01*
X002980Y008380D01*
X003220Y008620D01*
X003220Y008960D01*
X003220Y008917D02*
X010034Y008917D01*
X010138Y008818D02*
X003220Y008818D01*
X003220Y008720D02*
X014750Y008720D01*
X014750Y008818D02*
X014102Y008818D01*
X014206Y008917D02*
X014750Y008917D01*
X014750Y009015D02*
X014260Y009015D01*
X014290Y009114D02*
X014750Y009114D01*
X014750Y009212D02*
X014290Y009212D01*
X014266Y009311D02*
X014750Y009311D01*
X014750Y009409D02*
X014221Y009409D01*
X014100Y008523D02*
X014750Y008523D01*
X014750Y008621D02*
X005594Y008621D01*
X005518Y008696D02*
X005179Y008696D01*
X004939Y008456D01*
X004939Y008116D01*
X005179Y007876D01*
X005518Y007876D01*
X005759Y008116D01*
X005759Y008456D01*
X005518Y008696D01*
X005692Y008523D02*
X010140Y008523D01*
X010034Y008424D02*
X005759Y008424D01*
X005759Y008326D02*
X009981Y008326D01*
X009950Y008227D02*
X005759Y008227D01*
X005759Y008129D02*
X009950Y008129D01*
X009974Y008030D02*
X005672Y008030D01*
X005574Y007932D02*
X010019Y007932D01*
X010117Y007833D02*
X007230Y007833D01*
X007279Y007813D02*
X007104Y007885D01*
X006916Y007885D01*
X006741Y007813D01*
X006607Y007679D01*
X006535Y007504D01*
X006535Y007316D01*
X006607Y007141D01*
X006741Y007007D01*
X006916Y006935D01*
X007104Y006935D01*
X007279Y007007D01*
X007413Y007141D01*
X007485Y007316D01*
X007485Y007504D01*
X007413Y007679D01*
X007279Y007813D01*
X007357Y007735D02*
X014750Y007735D01*
X014750Y007833D02*
X014123Y007833D01*
X014221Y007932D02*
X014750Y007932D01*
X014750Y008030D02*
X014266Y008030D01*
X014290Y008129D02*
X014750Y008129D01*
X014750Y008227D02*
X014290Y008227D01*
X014259Y008326D02*
X014750Y008326D01*
X014750Y008424D02*
X014206Y008424D01*
X014064Y007538D02*
X014750Y007538D01*
X014750Y007636D02*
X007431Y007636D01*
X007471Y007538D02*
X010176Y007538D01*
X010049Y007439D02*
X007485Y007439D01*
X007485Y007341D02*
X009987Y007341D01*
X009950Y007242D02*
X007455Y007242D01*
X007414Y007144D02*
X009950Y007144D01*
X009968Y007045D02*
X007317Y007045D01*
X007132Y006947D02*
X010009Y006947D01*
X010102Y006848D02*
X005748Y006848D01*
X005759Y006838D02*
X005518Y007078D01*
X005179Y007078D01*
X004939Y006838D01*
X004939Y006498D01*
X005179Y006258D01*
X005518Y006258D01*
X005759Y006498D01*
X005759Y006838D01*
X005759Y006750D02*
X014750Y006750D01*
X014750Y006848D02*
X014138Y006848D01*
X014231Y006947D02*
X014750Y006947D01*
X014750Y007045D02*
X014272Y007045D01*
X014290Y007144D02*
X014750Y007144D01*
X014750Y007242D02*
X014290Y007242D01*
X014253Y007341D02*
X014750Y007341D01*
X014750Y007439D02*
X014191Y007439D01*
X014750Y006651D02*
X005759Y006651D01*
X005759Y006553D02*
X010212Y006553D01*
X010064Y006454D02*
X005715Y006454D01*
X005616Y006356D02*
X009993Y006356D01*
X009952Y006257D02*
X000600Y006257D01*
X000600Y006159D02*
X001409Y006159D01*
X001450Y006200D02*
X001210Y005960D01*
X001210Y005620D01*
X001450Y005380D01*
X001790Y005380D01*
X002030Y005620D01*
X002030Y005960D01*
X001790Y006200D01*
X001450Y006200D01*
X001310Y006060D02*
X000600Y006060D01*
X000600Y005962D02*
X001212Y005962D01*
X001210Y005863D02*
X000600Y005863D01*
X000600Y005765D02*
X001210Y005765D01*
X001210Y005666D02*
X000600Y005666D01*
X000600Y005568D02*
X001263Y005568D01*
X001361Y005469D02*
X000600Y005469D01*
X000600Y005371D02*
X007780Y005371D01*
X007681Y005469D02*
X003069Y005469D01*
X002980Y005380D02*
X003220Y005620D01*
X003220Y005960D01*
X002980Y006200D01*
X002640Y006200D01*
X002400Y005960D01*
X002400Y005620D01*
X002640Y005380D01*
X002980Y005380D01*
X003167Y005568D02*
X007640Y005568D01*
X007640Y005510D02*
X007880Y005270D01*
X008220Y005270D01*
X008460Y005510D01*
X008460Y005850D01*
X008220Y006090D01*
X007880Y006090D01*
X007640Y005850D01*
X007640Y005510D01*
X007640Y005666D02*
X003220Y005666D01*
X003220Y005765D02*
X007640Y005765D01*
X007653Y005863D02*
X003220Y005863D01*
X003218Y005962D02*
X007752Y005962D01*
X007850Y006060D02*
X003120Y006060D01*
X003021Y006159D02*
X009950Y006159D01*
X009962Y006060D02*
X009250Y006060D01*
X009220Y006090D02*
X008880Y006090D01*
X008640Y005850D01*
X008640Y005510D01*
X008880Y005270D01*
X009220Y005270D01*
X009460Y005510D01*
X009460Y005850D01*
X009220Y006090D01*
X009348Y005962D02*
X010003Y005962D01*
X010087Y005863D02*
X009447Y005863D01*
X009460Y005765D02*
X010268Y005765D01*
X010248Y005568D02*
X009460Y005568D01*
X009460Y005666D02*
X014750Y005666D01*
X014750Y005568D02*
X013992Y005568D01*
X014161Y005469D02*
X014750Y005469D01*
X014750Y005371D02*
X014241Y005371D01*
X014282Y005272D02*
X014750Y005272D01*
X014750Y005174D02*
X014290Y005174D01*
X014284Y005075D02*
X014750Y005075D01*
X014750Y004977D02*
X014244Y004977D01*
X014168Y004878D02*
X014750Y004878D01*
X014750Y004780D02*
X014009Y004780D01*
X014146Y004484D02*
X014750Y004484D01*
X014750Y004386D02*
X014235Y004386D01*
X014275Y004287D02*
X014750Y004287D01*
X014750Y004189D02*
X014290Y004189D01*
X014290Y004090D02*
X014750Y004090D01*
X014750Y003992D02*
X014250Y003992D01*
X014183Y003893D02*
X014750Y003893D01*
X014750Y003795D02*
X014045Y003795D01*
X014131Y003499D02*
X014750Y003499D01*
X014750Y003401D02*
X014228Y003401D01*
X014269Y003302D02*
X014750Y003302D01*
X014750Y003204D02*
X014290Y003204D01*
X014290Y003105D02*
X014750Y003105D01*
X014750Y003007D02*
X014256Y003007D01*
X014198Y002908D02*
X014750Y002908D01*
X014750Y002416D02*
X014108Y002416D01*
X014100Y002317D02*
X014750Y002317D01*
X014533Y002073D02*
X015294Y002073D01*
X015294Y002664D02*
X014074Y002664D01*
X013800Y002390D01*
X013521Y002514D02*
X002818Y002514D01*
X002865Y002595D02*
X002940Y002875D01*
X002940Y003165D01*
X002865Y003445D01*
X002720Y003695D01*
X002515Y003900D01*
X002265Y004045D01*
X001985Y004120D01*
X001695Y004120D01*
X001415Y004045D01*
X001165Y003900D01*
X000960Y003695D01*
X000815Y003445D01*
X000740Y003165D01*
X000740Y002875D01*
X000815Y002595D01*
X000960Y002345D01*
X001165Y002140D01*
X001415Y001995D01*
X001695Y001920D01*
X001985Y001920D01*
X002265Y001995D01*
X002515Y002140D01*
X002720Y002345D01*
X002865Y002595D01*
X002870Y002613D02*
X007248Y002613D01*
X007185Y002639D02*
X007350Y002570D01*
X008130Y002570D01*
X008295Y002639D01*
X008421Y002765D01*
X008490Y002930D01*
X008490Y003110D01*
X008421Y003275D01*
X008295Y003401D01*
X008130Y003470D01*
X007350Y003470D01*
X007185Y003401D01*
X007059Y003275D01*
X006990Y003110D01*
X006990Y002930D01*
X007059Y002765D01*
X007185Y002639D01*
X007113Y002711D02*
X002896Y002711D01*
X002922Y002810D02*
X007040Y002810D01*
X006999Y002908D02*
X002940Y002908D01*
X002940Y003007D02*
X006990Y003007D01*
X006990Y003105D02*
X002940Y003105D01*
X002930Y003204D02*
X007029Y003204D01*
X007086Y003302D02*
X002903Y003302D01*
X002877Y003401D02*
X007184Y003401D01*
X007284Y003598D02*
X002777Y003598D01*
X002720Y003696D02*
X007128Y003696D01*
X007185Y003639D02*
X007059Y003765D01*
X006990Y003930D01*
X006990Y004110D01*
X007059Y004275D01*
X007185Y004401D01*
X007350Y004470D01*
X008130Y004470D01*
X008295Y004401D01*
X008421Y004275D01*
X008490Y004110D01*
X008490Y003930D01*
X008421Y003765D01*
X008295Y003639D01*
X008130Y003570D01*
X007350Y003570D01*
X007185Y003639D01*
X007046Y003795D02*
X002621Y003795D01*
X002523Y003893D02*
X007006Y003893D01*
X006990Y003992D02*
X002357Y003992D01*
X002097Y004090D02*
X006990Y004090D01*
X007023Y004189D02*
X000600Y004189D01*
X000600Y004287D02*
X007071Y004287D01*
X007169Y004386D02*
X000600Y004386D01*
X000600Y004484D02*
X010094Y004484D01*
X010005Y004386D02*
X008311Y004386D01*
X008409Y004287D02*
X009965Y004287D01*
X009950Y004189D02*
X008457Y004189D01*
X008490Y004090D02*
X009950Y004090D01*
X009990Y003992D02*
X008490Y003992D01*
X008474Y003893D02*
X010057Y003893D01*
X010195Y003795D02*
X008434Y003795D01*
X008352Y003696D02*
X014750Y003696D01*
X014750Y003598D02*
X008196Y003598D01*
X008296Y003401D02*
X010012Y003401D01*
X009971Y003302D02*
X008394Y003302D01*
X008451Y003204D02*
X009950Y003204D01*
X009950Y003105D02*
X008490Y003105D01*
X008490Y003007D02*
X009984Y003007D01*
X010042Y002908D02*
X008481Y002908D01*
X008440Y002810D02*
X010159Y002810D01*
X010109Y003499D02*
X002834Y003499D01*
X002761Y002416D02*
X007219Y002416D01*
X007185Y002401D02*
X007059Y002275D01*
X006990Y002110D01*
X006990Y001930D01*
X007059Y001765D01*
X007185Y001639D01*
X007350Y001570D01*
X008130Y001570D01*
X008295Y001639D01*
X008421Y001765D01*
X008490Y001930D01*
X008490Y002110D01*
X008421Y002275D01*
X008295Y002401D01*
X008130Y002470D01*
X007350Y002470D01*
X007185Y002401D01*
X007101Y002317D02*
X002693Y002317D01*
X002594Y002219D02*
X007035Y002219D01*
X006994Y002120D02*
X002481Y002120D01*
X002311Y002022D02*
X006990Y002022D01*
X006993Y001923D02*
X001996Y001923D01*
X001684Y001923D02*
X000600Y001923D01*
X000600Y001825D02*
X007034Y001825D01*
X007098Y001726D02*
X000600Y001726D01*
X000600Y001628D02*
X007212Y001628D01*
X008268Y001628D02*
X011645Y001628D01*
X011645Y001726D02*
X008382Y001726D01*
X008446Y001825D02*
X011645Y001825D01*
X011645Y001923D02*
X008487Y001923D01*
X008490Y002022D02*
X011645Y002022D01*
X011645Y002120D02*
X008486Y002120D01*
X008445Y002219D02*
X011645Y002219D01*
X011665Y002317D02*
X008379Y002317D01*
X008261Y002416D02*
X013495Y002416D01*
X013591Y002613D02*
X008232Y002613D01*
X008367Y002711D02*
X013838Y002711D01*
X014059Y002219D02*
X014396Y002219D01*
X013159Y002810D02*
X011081Y002810D01*
X011645Y001529D02*
X000600Y001529D01*
X000600Y002022D02*
X001369Y002022D01*
X001199Y002120D02*
X000600Y002120D01*
X000600Y002219D02*
X001086Y002219D01*
X000987Y002317D02*
X000600Y002317D01*
X000600Y002416D02*
X000919Y002416D01*
X000862Y002514D02*
X000600Y002514D01*
X000600Y002613D02*
X000810Y002613D01*
X000784Y002711D02*
X000600Y002711D01*
X000600Y002810D02*
X000758Y002810D01*
X000740Y002908D02*
X000600Y002908D01*
X000600Y003007D02*
X000740Y003007D01*
X000740Y003105D02*
X000600Y003105D01*
X000600Y003204D02*
X000750Y003204D01*
X000777Y003302D02*
X000600Y003302D01*
X000600Y003401D02*
X000803Y003401D01*
X000846Y003499D02*
X000600Y003499D01*
X000600Y003598D02*
X000903Y003598D01*
X000960Y003696D02*
X000600Y003696D01*
X000600Y003795D02*
X001059Y003795D01*
X001157Y003893D02*
X000600Y003893D01*
X000600Y003992D02*
X001323Y003992D01*
X001583Y004090D02*
X000600Y004090D01*
X000600Y004583D02*
X014750Y004583D01*
X014750Y004681D02*
X000600Y004681D01*
X000600Y004780D02*
X010231Y004780D01*
X010072Y004878D02*
X000600Y004878D01*
X000600Y004977D02*
X009996Y004977D01*
X009956Y005075D02*
X000600Y005075D01*
X000600Y005174D02*
X009950Y005174D01*
X009958Y005272D02*
X009222Y005272D01*
X009320Y005371D02*
X009999Y005371D01*
X010079Y005469D02*
X009419Y005469D01*
X008878Y005272D02*
X008222Y005272D01*
X008320Y005371D02*
X008780Y005371D01*
X008681Y005469D02*
X008419Y005469D01*
X008460Y005568D02*
X008640Y005568D01*
X008640Y005666D02*
X008460Y005666D01*
X008460Y005765D02*
X008640Y005765D01*
X008653Y005863D02*
X008447Y005863D01*
X008348Y005962D02*
X008752Y005962D01*
X008850Y006060D02*
X008250Y006060D01*
X007878Y005272D02*
X000600Y005272D01*
X000600Y006356D02*
X004081Y006356D01*
X004179Y006258D02*
X004518Y006258D01*
X004759Y006498D01*
X004759Y006838D01*
X004518Y007078D01*
X004179Y007078D01*
X003939Y006838D01*
X003939Y006498D01*
X004179Y006258D01*
X003982Y006454D02*
X000600Y006454D01*
X000600Y006553D02*
X003939Y006553D01*
X003939Y006651D02*
X000600Y006651D01*
X000600Y006750D02*
X003939Y006750D01*
X003949Y006848D02*
X000600Y006848D01*
X000600Y006947D02*
X004047Y006947D01*
X004146Y007045D02*
X000600Y007045D01*
X000600Y007144D02*
X006606Y007144D01*
X006565Y007242D02*
X000600Y007242D01*
X000600Y007341D02*
X006535Y007341D01*
X006535Y007439D02*
X000600Y007439D01*
X000600Y007538D02*
X006549Y007538D01*
X006589Y007636D02*
X000600Y007636D01*
X000600Y007735D02*
X006663Y007735D01*
X006790Y007833D02*
X000600Y007833D01*
X000600Y007932D02*
X004123Y007932D01*
X004179Y007876D02*
X004518Y007876D01*
X004759Y008116D01*
X004759Y008456D01*
X004518Y008696D01*
X004179Y008696D01*
X003939Y008456D01*
X003939Y008116D01*
X004179Y007876D01*
X004025Y008030D02*
X000600Y008030D01*
X000600Y008129D02*
X003939Y008129D01*
X003939Y008227D02*
X000600Y008227D01*
X000600Y008326D02*
X003939Y008326D01*
X003939Y008424D02*
X003024Y008424D01*
X003122Y008523D02*
X004005Y008523D01*
X004103Y008621D02*
X003220Y008621D01*
X003066Y009114D02*
X006635Y009114D01*
X006578Y009212D02*
X000600Y009212D01*
X000600Y009114D02*
X001364Y009114D01*
X001450Y009200D02*
X001210Y008960D01*
X001210Y008620D01*
X001450Y008380D01*
X001790Y008380D01*
X002030Y008620D01*
X002030Y008960D01*
X001790Y009200D01*
X001450Y009200D01*
X001265Y009015D02*
X000600Y009015D01*
X000600Y008917D02*
X001210Y008917D01*
X001210Y008818D02*
X000600Y008818D01*
X000600Y008720D02*
X001210Y008720D01*
X001210Y008621D02*
X000600Y008621D01*
X000600Y008523D02*
X001308Y008523D01*
X001406Y008424D02*
X000600Y008424D01*
X000600Y009311D02*
X006537Y009311D01*
X006535Y009409D02*
X000600Y009409D01*
X000600Y009508D02*
X006536Y009508D01*
X006577Y009606D02*
X000600Y009606D01*
X000600Y009705D02*
X006633Y009705D01*
X006731Y009803D02*
X000600Y009803D01*
X001876Y009114D02*
X002554Y009114D01*
X002455Y009015D02*
X001975Y009015D01*
X002030Y008917D02*
X002400Y008917D01*
X002400Y008818D02*
X002030Y008818D01*
X002030Y008720D02*
X002400Y008720D01*
X002400Y008621D02*
X002030Y008621D01*
X001932Y008523D02*
X002498Y008523D01*
X002596Y008424D02*
X001834Y008424D01*
X001831Y006159D02*
X002599Y006159D01*
X002500Y006060D02*
X001930Y006060D01*
X002028Y005962D02*
X002402Y005962D01*
X002400Y005863D02*
X002030Y005863D01*
X002030Y005765D02*
X002400Y005765D01*
X002400Y005666D02*
X002030Y005666D01*
X001977Y005568D02*
X002453Y005568D01*
X002551Y005469D02*
X001879Y005469D01*
X004616Y006356D02*
X005081Y006356D01*
X004982Y006454D02*
X004715Y006454D01*
X004759Y006553D02*
X004939Y006553D01*
X004939Y006651D02*
X004759Y006651D01*
X004759Y006750D02*
X004939Y006750D01*
X004949Y006848D02*
X004748Y006848D01*
X004650Y006947D02*
X005047Y006947D01*
X005146Y007045D02*
X004551Y007045D01*
X004574Y007932D02*
X005123Y007932D01*
X005025Y008030D02*
X004672Y008030D01*
X004759Y008129D02*
X004939Y008129D01*
X004939Y008227D02*
X004759Y008227D01*
X004759Y008326D02*
X004939Y008326D01*
X004939Y008424D02*
X004759Y008424D01*
X004692Y008523D02*
X005005Y008523D01*
X005103Y008621D02*
X004594Y008621D01*
X005551Y007045D02*
X006703Y007045D01*
X006888Y006947D02*
X005650Y006947D01*
X002612Y012167D02*
X000600Y012167D01*
X000600Y012069D02*
X009958Y012069D01*
X010001Y013940D02*
X010011Y013940D01*
X014806Y012167D02*
X015640Y012167D01*
X015739Y012069D02*
X014904Y012069D01*
X015003Y011970D02*
X015837Y011970D01*
X015936Y011872D02*
X015101Y011872D01*
X015200Y011773D02*
X016034Y011773D01*
X016120Y011675D02*
X015298Y011675D01*
X015397Y011576D02*
X016120Y011576D01*
X016120Y011478D02*
X015495Y011478D01*
X015540Y011379D02*
X016120Y011379D01*
X016120Y011281D02*
X015540Y011281D01*
X015540Y011182D02*
X016120Y011182D01*
X016120Y011084D02*
X015540Y011084D01*
X015540Y010985D02*
X016120Y010985D01*
X016120Y010887D02*
X015540Y010887D01*
X015540Y010788D02*
X016120Y010788D01*
X016120Y010690D02*
X015540Y010690D01*
X015540Y010591D02*
X016120Y010591D01*
X016120Y010493D02*
X015540Y010493D01*
X015540Y010394D02*
X016120Y010394D01*
X016120Y010296D02*
X015540Y010296D01*
X015540Y010197D02*
X016120Y010197D01*
X016120Y010099D02*
X015540Y010099D01*
X015540Y010000D02*
X016120Y010000D01*
X016120Y009902D02*
X015540Y009902D01*
X015540Y009803D02*
X016120Y009803D01*
X016120Y009705D02*
X015540Y009705D01*
X015540Y009606D02*
X016120Y009606D01*
X016120Y009508D02*
X015540Y009508D01*
X015837Y009409D02*
X016120Y009409D01*
X016120Y009311D02*
X015837Y009311D01*
X015837Y009212D02*
X016120Y009212D01*
X016120Y009114D02*
X015837Y009114D01*
X015837Y009015D02*
X016120Y009015D01*
X016120Y008917D02*
X015837Y008917D01*
X015837Y008818D02*
X016095Y008818D01*
X014750Y006553D02*
X014028Y006553D01*
X014176Y006454D02*
X014750Y006454D01*
X014750Y006356D02*
X014247Y006356D01*
X014288Y006257D02*
X014750Y006257D01*
X014750Y006159D02*
X014290Y006159D01*
X014278Y006060D02*
X014750Y006060D01*
X014750Y005962D02*
X014237Y005962D01*
X014153Y005863D02*
X014750Y005863D01*
X014750Y005765D02*
X013972Y005765D01*
X015837Y003007D02*
X019868Y003007D01*
X019227Y002073D02*
X018770Y002530D01*
X019314Y017585D02*
X020556Y017585D01*
X020630Y017510D02*
X020390Y017750D01*
X020390Y018090D01*
X020630Y018330D01*
X020970Y018330D01*
X021210Y018090D01*
X021210Y017750D01*
X020970Y017510D01*
X020630Y017510D01*
X020457Y017683D02*
X019413Y017683D01*
X019490Y017782D02*
X020390Y017782D01*
X020390Y017880D02*
X019490Y017880D01*
X019490Y017979D02*
X020390Y017979D01*
X020390Y018077D02*
X019490Y018077D01*
X019414Y018176D02*
X020476Y018176D01*
X020574Y018274D02*
X019316Y018274D01*
X021026Y018274D02*
X021820Y018274D01*
X021820Y018176D02*
X021124Y018176D01*
X021210Y018077D02*
X021820Y018077D01*
X021820Y017979D02*
X021210Y017979D01*
X021210Y017880D02*
X021820Y017880D01*
X021820Y017782D02*
X021210Y017782D01*
X021143Y017683D02*
X021820Y017683D01*
X021820Y017585D02*
X021044Y017585D01*
X021029Y018570D02*
X021820Y018570D01*
X021820Y018668D02*
X021128Y018668D01*
X021210Y018767D02*
X021820Y018767D01*
X021820Y018865D02*
X021210Y018865D01*
X021210Y018964D02*
X021820Y018964D01*
X021820Y019062D02*
X021210Y019062D01*
X021139Y019161D02*
X021820Y019161D01*
X021820Y019259D02*
X021041Y019259D01*
X021820Y020343D02*
X000600Y020343D01*
X000600Y020441D02*
X021820Y020441D01*
X021820Y020540D02*
X000600Y020540D01*
X000600Y020638D02*
X021820Y020638D01*
X021820Y020737D02*
X000600Y020737D01*
X000600Y020835D02*
X021820Y020835D01*
X021820Y020934D02*
X000600Y020934D01*
X000600Y021032D02*
X021820Y021032D01*
X021820Y021525D02*
X020303Y021525D01*
X020474Y021623D02*
X021820Y021623D01*
X021820Y021722D02*
X020607Y021722D01*
X020706Y021820D02*
X021820Y021820D01*
X021820Y021919D02*
X020786Y021919D01*
X020842Y022017D02*
X021820Y022017D01*
X021820Y022116D02*
X020899Y022116D01*
X020929Y022214D02*
X021820Y022214D01*
X021820Y022313D02*
X020955Y022313D01*
X020980Y022411D02*
X021820Y022411D01*
X021820Y022510D02*
X020980Y022510D01*
X020980Y022608D02*
X021820Y022608D01*
X021820Y022707D02*
X020977Y022707D01*
X020950Y022805D02*
X021820Y022805D01*
X021820Y022904D02*
X020924Y022904D01*
X020889Y023002D02*
X021820Y023002D01*
X021820Y023101D02*
X020832Y023101D01*
X020775Y023199D02*
X021820Y023199D01*
X021820Y023298D02*
X020688Y023298D01*
X020590Y023396D02*
X021820Y023396D01*
X021820Y023495D02*
X020444Y023495D01*
X020237Y023593D02*
X021820Y023593D01*
X021820Y024874D02*
X000600Y024874D01*
X005414Y024578D02*
X006148Y024578D01*
X005982Y024480D02*
X005581Y024480D01*
X005678Y024381D02*
X005885Y024381D01*
X005844Y024283D02*
X005719Y024283D01*
X005756Y024184D02*
X005807Y024184D01*
X005807Y024086D02*
X005756Y024086D01*
X005756Y023987D02*
X005807Y023987D01*
X005847Y023889D02*
X005716Y023889D01*
X005673Y023790D02*
X005890Y023790D01*
X005989Y023692D02*
X005574Y023692D01*
X006665Y023692D02*
X007075Y023692D01*
X006977Y023790D02*
X006763Y023790D01*
X006806Y023889D02*
X006934Y023889D01*
X006893Y023987D02*
X006847Y023987D01*
X006847Y024086D02*
X006893Y024086D01*
X006893Y024184D02*
X006847Y024184D01*
X006809Y024283D02*
X006931Y024283D01*
X006971Y024381D02*
X006769Y024381D01*
X006672Y024480D02*
X007068Y024480D01*
X007235Y024578D02*
X006505Y024578D01*
X007592Y024578D02*
X008326Y024578D01*
X008159Y024480D02*
X007758Y024480D01*
X007855Y024381D02*
X008062Y024381D01*
X008021Y024283D02*
X007896Y024283D01*
X007933Y024184D02*
X007984Y024184D01*
X007984Y024086D02*
X007933Y024086D01*
X007933Y023987D02*
X007984Y023987D01*
X008024Y023889D02*
X007893Y023889D01*
X007850Y023790D02*
X008067Y023790D01*
X008166Y023692D02*
X007751Y023692D01*
X002547Y012561D02*
X000600Y012561D01*
X000600Y012463D02*
X002506Y012463D01*
X002505Y012364D02*
X000600Y012364D01*
X000600Y012266D02*
X002536Y012266D01*
M02*
