%
M48
M72
T01C0.0150
T02C0.0276
T03C0.0320
T04C0.0400
T05C0.0440
T06C0.1300
%
T01
X2810Y12400
X9880Y13660
X12190Y11140
X14500Y12680
X17160Y15970
X18770Y2530
X13800Y2390
X13870Y1410
T02
X12120Y910
X12120Y1910
X7010Y7410
X7010Y9410
X8628Y10577
X8628Y11577
X11280Y18760
X11280Y19760
X13020Y19190
X14020Y19190
T03
X16080Y17930
X16080Y16530
X16080Y15130
X16080Y13800
X13620Y14170
X13620Y13170
X13620Y12170
X13620Y11170
X13620Y10170
X13620Y9170
X13620Y8170
X13620Y7170
X13620Y6170
X13620Y5170
X13620Y4170
X13620Y3170
X10620Y3170
X10620Y4170
X10620Y5170
X10620Y6170
X10620Y7170
X10620Y8170
X10620Y9170
X10620Y10170
X10620Y11170
X10620Y12170
X10620Y13170
X10620Y14170
X10620Y15170
X10620Y16170
X13620Y16170
X13620Y15170
X19080Y15130
X19080Y13800
X20800Y15050
X20800Y16050
X20800Y17920
X20800Y18920
X19080Y17930
X19080Y16530
X9050Y5680
X8050Y5680
X5349Y6668
X4349Y6668
X4349Y8286
X5349Y8286
X2810Y8790
X1620Y8790
X1620Y5790
X2810Y5790
T04
X7740Y4020
X7740Y3020
X7740Y2020
X13980Y21550
X13980Y22550
X13980Y23550
X9051Y22971
X8504Y24089
X7413Y24089
X6870Y22971
X6327Y24089
X5779Y22971
X5236Y24089
X4689Y22971
X7961Y22971
T05
X7823Y18361
X7823Y17361
X7823Y16361
X7823Y15361
X7823Y14361
X7823Y13361
T06
X1840Y3020
X1949Y23530
X11791Y23530
X19880Y22550
M30
