G75*
G70*
%OFA0B0*%
%FSLAX24Y24*%
%IPPOS*%
%LPD*%
%AMOC8*
5,1,8,0,0,1.08239X$1,22.5*
%
%ADD10C,0.0070*%
%ADD11R,0.0350X0.0500*%
%ADD12C,0.0080*%
%ADD13C,0.0100*%
%ADD14R,0.0150X0.0200*%
%ADD15C,0.0060*%
%ADD16R,0.0500X0.0350*%
D10*
X001130Y003020D02*
X001132Y003073D01*
X001138Y003126D01*
X001148Y003178D01*
X001162Y003229D01*
X001179Y003279D01*
X001200Y003328D01*
X001225Y003375D01*
X001253Y003420D01*
X001285Y003463D01*
X001320Y003503D01*
X001357Y003540D01*
X001397Y003575D01*
X001440Y003607D01*
X001485Y003635D01*
X001532Y003660D01*
X001581Y003681D01*
X001631Y003698D01*
X001682Y003712D01*
X001734Y003722D01*
X001787Y003728D01*
X001840Y003730D01*
X001893Y003728D01*
X001946Y003722D01*
X001998Y003712D01*
X002049Y003698D01*
X002099Y003681D01*
X002148Y003660D01*
X002195Y003635D01*
X002240Y003607D01*
X002283Y003575D01*
X002323Y003540D01*
X002360Y003503D01*
X002395Y003463D01*
X002427Y003420D01*
X002455Y003375D01*
X002480Y003328D01*
X002501Y003279D01*
X002518Y003229D01*
X002532Y003178D01*
X002542Y003126D01*
X002548Y003073D01*
X002550Y003020D01*
X002548Y002967D01*
X002542Y002914D01*
X002532Y002862D01*
X002518Y002811D01*
X002501Y002761D01*
X002480Y002712D01*
X002455Y002665D01*
X002427Y002620D01*
X002395Y002577D01*
X002360Y002537D01*
X002323Y002500D01*
X002283Y002465D01*
X002240Y002433D01*
X002195Y002405D01*
X002148Y002380D01*
X002099Y002359D01*
X002049Y002342D01*
X001998Y002328D01*
X001946Y002318D01*
X001893Y002312D01*
X001840Y002310D01*
X001787Y002312D01*
X001734Y002318D01*
X001682Y002328D01*
X001631Y002342D01*
X001581Y002359D01*
X001532Y002380D01*
X001485Y002405D01*
X001440Y002433D01*
X001397Y002465D01*
X001357Y002500D01*
X001320Y002537D01*
X001285Y002577D01*
X001253Y002620D01*
X001225Y002665D01*
X001200Y002712D01*
X001179Y002761D01*
X001162Y002811D01*
X001148Y002862D01*
X001138Y002914D01*
X001132Y002967D01*
X001130Y003020D01*
X003574Y003166D02*
X003995Y003166D01*
X004205Y003377D01*
X003995Y003587D01*
X003574Y003587D01*
X003680Y002942D02*
X003574Y002837D01*
X003574Y002627D01*
X003680Y002522D01*
X003890Y002732D02*
X003890Y002837D01*
X003995Y002942D01*
X004100Y002942D01*
X004205Y002837D01*
X004205Y002627D01*
X004100Y002522D01*
X004100Y002305D02*
X004205Y002305D01*
X004205Y002200D01*
X004100Y002200D01*
X004100Y002305D01*
X004100Y001975D02*
X003995Y001975D01*
X003890Y001870D01*
X003890Y001765D01*
X003890Y001870D02*
X003785Y001975D01*
X003680Y001975D01*
X003574Y001870D01*
X003574Y001660D01*
X003680Y001555D01*
X004100Y001555D02*
X004205Y001660D01*
X004205Y001870D01*
X004100Y001975D01*
X003890Y002837D02*
X003785Y002942D01*
X003680Y002942D01*
X003999Y006168D02*
X003982Y006170D01*
X003965Y006174D01*
X003949Y006181D01*
X003935Y006191D01*
X003922Y006204D01*
X003912Y006218D01*
X003905Y006234D01*
X003901Y006251D01*
X003899Y006268D01*
X003899Y007068D02*
X003901Y007085D01*
X003905Y007102D01*
X003912Y007118D01*
X003922Y007132D01*
X003935Y007145D01*
X003949Y007155D01*
X003965Y007162D01*
X003982Y007166D01*
X003999Y007168D01*
X003999Y007786D02*
X003982Y007788D01*
X003965Y007792D01*
X003949Y007799D01*
X003935Y007809D01*
X003922Y007822D01*
X003912Y007836D01*
X003905Y007852D01*
X003901Y007869D01*
X003899Y007886D01*
X003899Y008686D02*
X003907Y008707D01*
X003917Y008726D01*
X003930Y008743D01*
X003946Y008758D01*
X003964Y008771D01*
X003983Y008780D01*
X004004Y008787D01*
X004026Y008790D01*
X004047Y008789D01*
X004069Y008786D01*
X005699Y008786D01*
X005716Y008784D01*
X005733Y008780D01*
X005749Y008773D01*
X005763Y008763D01*
X005776Y008750D01*
X005786Y008736D01*
X005793Y008720D01*
X005797Y008703D01*
X005799Y008686D01*
X005799Y007886D02*
X005797Y007869D01*
X005793Y007852D01*
X005786Y007836D01*
X005776Y007822D01*
X005763Y007809D01*
X005749Y007799D01*
X005733Y007792D01*
X005716Y007788D01*
X005699Y007786D01*
X005699Y007168D02*
X005716Y007166D01*
X005733Y007162D01*
X005749Y007155D01*
X005763Y007145D01*
X005776Y007132D01*
X005786Y007118D01*
X005793Y007102D01*
X005797Y007085D01*
X005799Y007068D01*
X005799Y006268D02*
X005797Y006251D01*
X005793Y006234D01*
X005786Y006218D01*
X005776Y006204D01*
X005763Y006191D01*
X005749Y006181D01*
X005733Y006174D01*
X005716Y006170D01*
X005699Y006168D01*
X011620Y016670D02*
X011622Y016626D01*
X011628Y016583D01*
X011637Y016541D01*
X011650Y016499D01*
X011667Y016459D01*
X011687Y016420D01*
X011710Y016383D01*
X011737Y016349D01*
X011766Y016316D01*
X011799Y016287D01*
X011833Y016260D01*
X011870Y016237D01*
X011909Y016217D01*
X011949Y016200D01*
X011991Y016187D01*
X012033Y016178D01*
X012076Y016172D01*
X012120Y016170D01*
X012164Y016172D01*
X012207Y016178D01*
X012249Y016187D01*
X012291Y016200D01*
X012331Y016217D01*
X012370Y016237D01*
X012407Y016260D01*
X012441Y016287D01*
X012474Y016316D01*
X012503Y016349D01*
X012530Y016383D01*
X012553Y016420D01*
X012573Y016459D01*
X012590Y016499D01*
X012603Y016541D01*
X012612Y016583D01*
X012618Y016626D01*
X012620Y016670D01*
X014957Y016755D02*
X014957Y016435D01*
X014957Y016542D02*
X015117Y016542D01*
X015170Y016595D01*
X015170Y016702D01*
X015117Y016755D01*
X014957Y016755D01*
X015064Y016542D02*
X015170Y016435D01*
X015316Y016435D02*
X015529Y016649D01*
X015529Y016702D01*
X015476Y016755D01*
X015369Y016755D01*
X015316Y016702D01*
X015316Y016435D02*
X015529Y016435D01*
X015454Y015365D02*
X015508Y015312D01*
X015508Y015259D01*
X015454Y015205D01*
X015508Y015152D01*
X015508Y015098D01*
X015454Y015045D01*
X015347Y015045D01*
X015294Y015098D01*
X015401Y015205D02*
X015454Y015205D01*
X015454Y015365D02*
X015347Y015365D01*
X015294Y015312D01*
X015149Y015312D02*
X015149Y015205D01*
X015095Y015152D01*
X014935Y015152D01*
X015042Y015152D02*
X015149Y015045D01*
X014935Y015045D02*
X014935Y015365D01*
X015095Y015365D01*
X015149Y015312D01*
X015095Y014035D02*
X014935Y014035D01*
X014935Y013715D01*
X014935Y013822D02*
X015095Y013822D01*
X015149Y013875D01*
X015149Y013982D01*
X015095Y014035D01*
X015042Y013822D02*
X015149Y013715D01*
X015294Y013875D02*
X015508Y013875D01*
X015454Y013715D02*
X015454Y014035D01*
X015294Y013875D01*
X016580Y014100D02*
X016582Y014117D01*
X016586Y014134D01*
X016593Y014150D01*
X016603Y014164D01*
X016616Y014177D01*
X016630Y014187D01*
X016646Y014194D01*
X016663Y014198D01*
X016680Y014200D01*
X016680Y014730D02*
X016663Y014732D01*
X016646Y014736D01*
X016630Y014743D01*
X016616Y014753D01*
X016603Y014766D01*
X016593Y014780D01*
X016586Y014796D01*
X016582Y014813D01*
X016580Y014830D01*
X016580Y015430D02*
X016582Y015447D01*
X016586Y015464D01*
X016593Y015480D01*
X016603Y015494D01*
X016616Y015507D01*
X016630Y015517D01*
X016646Y015524D01*
X016663Y015528D01*
X016680Y015530D01*
X016680Y016130D02*
X016663Y016132D01*
X016646Y016136D01*
X016630Y016143D01*
X016616Y016153D01*
X016603Y016166D01*
X016593Y016180D01*
X016586Y016196D01*
X016582Y016213D01*
X016580Y016230D01*
X016580Y016830D02*
X016582Y016847D01*
X016586Y016864D01*
X016593Y016880D01*
X016603Y016894D01*
X016616Y016907D01*
X016630Y016917D01*
X016646Y016924D01*
X016663Y016928D01*
X016680Y016930D01*
X016680Y017530D02*
X016663Y017532D01*
X016646Y017536D01*
X016630Y017543D01*
X016616Y017553D01*
X016603Y017566D01*
X016593Y017580D01*
X016586Y017596D01*
X016582Y017613D01*
X016580Y017630D01*
X016580Y018230D02*
X016582Y018247D01*
X016586Y018264D01*
X016593Y018280D01*
X016603Y018294D01*
X016616Y018307D01*
X016630Y018317D01*
X016646Y018324D01*
X016663Y018328D01*
X016680Y018330D01*
X017318Y018032D02*
X017371Y018085D01*
X017478Y018085D01*
X017531Y018032D01*
X017531Y017979D01*
X017318Y017765D01*
X017531Y017765D01*
X017677Y017765D02*
X017890Y017979D01*
X017890Y018032D01*
X017837Y018085D01*
X017730Y018085D01*
X017677Y018032D01*
X017677Y017765D02*
X017890Y017765D01*
X018036Y017818D02*
X018036Y018032D01*
X018089Y018085D01*
X018196Y018085D01*
X018249Y018032D01*
X018036Y017818D01*
X018089Y017765D01*
X018196Y017765D01*
X018249Y017818D01*
X018249Y018032D01*
X018480Y018330D02*
X018497Y018328D01*
X018514Y018324D01*
X018530Y018317D01*
X018544Y018307D01*
X018557Y018294D01*
X018567Y018280D01*
X018574Y018264D01*
X018578Y018247D01*
X018580Y018230D01*
X018580Y017630D02*
X018578Y017613D01*
X018574Y017596D01*
X018567Y017580D01*
X018557Y017566D01*
X018544Y017553D01*
X018530Y017543D01*
X018514Y017536D01*
X018497Y017532D01*
X018480Y017530D01*
X018480Y016930D02*
X018497Y016928D01*
X018514Y016924D01*
X018530Y016917D01*
X018544Y016907D01*
X018557Y016894D01*
X018567Y016880D01*
X018574Y016864D01*
X018578Y016847D01*
X018580Y016830D01*
X018249Y016632D02*
X018036Y016418D01*
X018089Y016365D01*
X018196Y016365D01*
X018249Y016418D01*
X018249Y016632D01*
X018196Y016685D01*
X018089Y016685D01*
X018036Y016632D01*
X018036Y016418D01*
X017890Y016365D02*
X017677Y016365D01*
X017890Y016579D01*
X017890Y016632D01*
X017837Y016685D01*
X017730Y016685D01*
X017677Y016632D01*
X017531Y016632D02*
X017478Y016685D01*
X017371Y016685D01*
X017318Y016632D01*
X017531Y016632D02*
X017531Y016579D01*
X017318Y016365D01*
X017531Y016365D01*
X017432Y015295D02*
X017432Y014975D01*
X017325Y014975D02*
X017539Y014975D01*
X017684Y015028D02*
X017898Y015242D01*
X017898Y015028D01*
X017844Y014975D01*
X017737Y014975D01*
X017684Y015028D01*
X017684Y015242D01*
X017737Y015295D01*
X017844Y015295D01*
X017898Y015242D01*
X018043Y015242D02*
X018097Y015295D01*
X018203Y015295D01*
X018257Y015242D01*
X018043Y015028D01*
X018097Y014975D01*
X018203Y014975D01*
X018257Y015028D01*
X018257Y015242D01*
X018043Y015242D02*
X018043Y015028D01*
X018480Y014730D02*
X018497Y014732D01*
X018514Y014736D01*
X018530Y014743D01*
X018544Y014753D01*
X018557Y014766D01*
X018567Y014780D01*
X018574Y014796D01*
X018578Y014813D01*
X018580Y014830D01*
X018580Y015430D02*
X018578Y015447D01*
X018574Y015464D01*
X018567Y015480D01*
X018557Y015494D01*
X018544Y015507D01*
X018530Y015517D01*
X018514Y015524D01*
X018497Y015528D01*
X018480Y015530D01*
X018480Y016130D02*
X018497Y016132D01*
X018514Y016136D01*
X018530Y016143D01*
X018544Y016153D01*
X018557Y016166D01*
X018567Y016180D01*
X018574Y016196D01*
X018578Y016213D01*
X018580Y016230D01*
X017432Y015295D02*
X017325Y015189D01*
X017798Y013965D02*
X017745Y013912D01*
X017798Y013965D02*
X017905Y013965D01*
X017959Y013912D01*
X017959Y013859D01*
X017745Y013645D01*
X017959Y013645D01*
X018104Y013645D02*
X018104Y013965D01*
X018264Y013859D02*
X018104Y013752D01*
X018264Y013645D01*
X018480Y013400D02*
X018497Y013402D01*
X018514Y013406D01*
X018530Y013413D01*
X018544Y013423D01*
X018557Y013436D01*
X018567Y013450D01*
X018574Y013466D01*
X018578Y013483D01*
X018580Y013500D01*
X018580Y014100D02*
X018578Y014117D01*
X018574Y014134D01*
X018567Y014150D01*
X018557Y014164D01*
X018544Y014177D01*
X018530Y014187D01*
X018514Y014194D01*
X018497Y014198D01*
X018480Y014200D01*
X016680Y013400D02*
X016663Y013402D01*
X016646Y013406D01*
X016630Y013413D01*
X016616Y013423D01*
X016603Y013436D01*
X016593Y013450D01*
X016586Y013466D01*
X016582Y013483D01*
X016580Y013500D01*
X015529Y017765D02*
X015316Y017765D01*
X015423Y017765D02*
X015423Y018085D01*
X015316Y017979D01*
X015170Y018032D02*
X015170Y017925D01*
X015117Y017872D01*
X014957Y017872D01*
X015064Y017872D02*
X015170Y017765D01*
X014957Y017765D02*
X014957Y018085D01*
X015117Y018085D01*
X015170Y018032D01*
X017354Y022776D02*
X017670Y022776D01*
X017565Y022986D01*
X017565Y023091D01*
X017670Y023196D01*
X017880Y023196D01*
X017985Y023091D01*
X017985Y022881D01*
X017880Y022776D01*
X017354Y022776D02*
X017354Y023196D01*
X017354Y023420D02*
X017775Y023420D01*
X017985Y023631D01*
X017775Y023841D01*
X017354Y023841D01*
X019170Y022550D02*
X019172Y022603D01*
X019178Y022656D01*
X019188Y022708D01*
X019202Y022759D01*
X019219Y022809D01*
X019240Y022858D01*
X019265Y022905D01*
X019293Y022950D01*
X019325Y022993D01*
X019360Y023033D01*
X019397Y023070D01*
X019437Y023105D01*
X019480Y023137D01*
X019525Y023165D01*
X019572Y023190D01*
X019621Y023211D01*
X019671Y023228D01*
X019722Y023242D01*
X019774Y023252D01*
X019827Y023258D01*
X019880Y023260D01*
X019933Y023258D01*
X019986Y023252D01*
X020038Y023242D01*
X020089Y023228D01*
X020139Y023211D01*
X020188Y023190D01*
X020235Y023165D01*
X020280Y023137D01*
X020323Y023105D01*
X020363Y023070D01*
X020400Y023033D01*
X020435Y022993D01*
X020467Y022950D01*
X020495Y022905D01*
X020520Y022858D01*
X020541Y022809D01*
X020558Y022759D01*
X020572Y022708D01*
X020582Y022656D01*
X020588Y022603D01*
X020590Y022550D01*
X020588Y022497D01*
X020582Y022444D01*
X020572Y022392D01*
X020558Y022341D01*
X020541Y022291D01*
X020520Y022242D01*
X020495Y022195D01*
X020467Y022150D01*
X020435Y022107D01*
X020400Y022067D01*
X020363Y022030D01*
X020323Y021995D01*
X020280Y021963D01*
X020235Y021935D01*
X020188Y021910D01*
X020139Y021889D01*
X020089Y021872D01*
X020038Y021858D01*
X019986Y021848D01*
X019933Y021842D01*
X019880Y021840D01*
X019827Y021842D01*
X019774Y021848D01*
X019722Y021858D01*
X019671Y021872D01*
X019621Y021889D01*
X019572Y021910D01*
X019525Y021935D01*
X019480Y021963D01*
X019437Y021995D01*
X019397Y022030D01*
X019360Y022067D01*
X019325Y022107D01*
X019293Y022150D01*
X019265Y022195D01*
X019240Y022242D01*
X019219Y022291D01*
X019202Y022341D01*
X019188Y022392D01*
X019178Y022444D01*
X019172Y022497D01*
X019170Y022550D01*
X021288Y019057D02*
X021288Y018657D01*
X019800Y018420D02*
X019802Y018483D01*
X019808Y018545D01*
X019818Y018607D01*
X019831Y018669D01*
X019849Y018729D01*
X019870Y018788D01*
X019895Y018846D01*
X019924Y018902D01*
X019956Y018956D01*
X019991Y019008D01*
X020029Y019057D01*
X020071Y019105D01*
X020115Y019149D01*
X020163Y019191D01*
X020212Y019229D01*
X020264Y019264D01*
X020318Y019296D01*
X020374Y019325D01*
X020432Y019350D01*
X020491Y019371D01*
X020551Y019389D01*
X020613Y019402D01*
X020675Y019412D01*
X020737Y019418D01*
X020800Y019420D01*
X020863Y019418D01*
X020925Y019412D01*
X020987Y019402D01*
X021049Y019389D01*
X021109Y019371D01*
X021168Y019350D01*
X021226Y019325D01*
X021282Y019296D01*
X021336Y019264D01*
X021388Y019229D01*
X021437Y019191D01*
X021485Y019149D01*
X021529Y019105D01*
X021571Y019057D01*
X021609Y019008D01*
X021644Y018956D01*
X021676Y018902D01*
X021705Y018846D01*
X021730Y018788D01*
X021751Y018729D01*
X021769Y018669D01*
X021782Y018607D01*
X021792Y018545D01*
X021798Y018483D01*
X021800Y018420D01*
X021798Y018357D01*
X021792Y018295D01*
X021782Y018233D01*
X021769Y018171D01*
X021751Y018111D01*
X021730Y018052D01*
X021705Y017994D01*
X021676Y017938D01*
X021644Y017884D01*
X021609Y017832D01*
X021571Y017783D01*
X021529Y017735D01*
X021485Y017691D01*
X021437Y017649D01*
X021388Y017611D01*
X021336Y017576D01*
X021282Y017544D01*
X021226Y017515D01*
X021168Y017490D01*
X021109Y017469D01*
X021049Y017451D01*
X020987Y017438D01*
X020925Y017428D01*
X020863Y017422D01*
X020800Y017420D01*
X020737Y017422D01*
X020675Y017428D01*
X020613Y017438D01*
X020551Y017451D01*
X020491Y017469D01*
X020432Y017490D01*
X020374Y017515D01*
X020318Y017544D01*
X020264Y017576D01*
X020212Y017611D01*
X020163Y017649D01*
X020115Y017691D01*
X020071Y017735D01*
X020029Y017783D01*
X019991Y017832D01*
X019956Y017884D01*
X019924Y017938D01*
X019895Y017994D01*
X019870Y018052D01*
X019849Y018111D01*
X019831Y018171D01*
X019818Y018233D01*
X019808Y018295D01*
X019802Y018357D01*
X019800Y018420D01*
X019800Y015550D02*
X019802Y015613D01*
X019808Y015675D01*
X019818Y015737D01*
X019831Y015799D01*
X019849Y015859D01*
X019870Y015918D01*
X019895Y015976D01*
X019924Y016032D01*
X019956Y016086D01*
X019991Y016138D01*
X020029Y016187D01*
X020071Y016235D01*
X020115Y016279D01*
X020163Y016321D01*
X020212Y016359D01*
X020264Y016394D01*
X020318Y016426D01*
X020374Y016455D01*
X020432Y016480D01*
X020491Y016501D01*
X020551Y016519D01*
X020613Y016532D01*
X020675Y016542D01*
X020737Y016548D01*
X020800Y016550D01*
X020863Y016548D01*
X020925Y016542D01*
X020987Y016532D01*
X021049Y016519D01*
X021109Y016501D01*
X021168Y016480D01*
X021226Y016455D01*
X021282Y016426D01*
X021336Y016394D01*
X021388Y016359D01*
X021437Y016321D01*
X021485Y016279D01*
X021529Y016235D01*
X021571Y016187D01*
X021609Y016138D01*
X021644Y016086D01*
X021676Y016032D01*
X021705Y015976D01*
X021730Y015918D01*
X021751Y015859D01*
X021769Y015799D01*
X021782Y015737D01*
X021792Y015675D01*
X021798Y015613D01*
X021800Y015550D01*
X021798Y015487D01*
X021792Y015425D01*
X021782Y015363D01*
X021769Y015301D01*
X021751Y015241D01*
X021730Y015182D01*
X021705Y015124D01*
X021676Y015068D01*
X021644Y015014D01*
X021609Y014962D01*
X021571Y014913D01*
X021529Y014865D01*
X021485Y014821D01*
X021437Y014779D01*
X021388Y014741D01*
X021336Y014706D01*
X021282Y014674D01*
X021226Y014645D01*
X021168Y014620D01*
X021109Y014599D01*
X021049Y014581D01*
X020987Y014568D01*
X020925Y014558D01*
X020863Y014552D01*
X020800Y014550D01*
X020737Y014552D01*
X020675Y014558D01*
X020613Y014568D01*
X020551Y014581D01*
X020491Y014599D01*
X020432Y014620D01*
X020374Y014645D01*
X020318Y014674D01*
X020264Y014706D01*
X020212Y014741D01*
X020163Y014779D01*
X020115Y014821D01*
X020071Y014865D01*
X020029Y014913D01*
X019991Y014962D01*
X019956Y015014D01*
X019924Y015068D01*
X019895Y015124D01*
X019870Y015182D01*
X019849Y015241D01*
X019831Y015301D01*
X019818Y015363D01*
X019808Y015425D01*
X019802Y015487D01*
X019800Y015550D01*
X021288Y015277D02*
X021288Y014877D01*
D11*
X014805Y021550D03*
X014805Y022550D03*
X014805Y023550D03*
X006915Y004020D03*
X006915Y003020D03*
X006915Y002020D03*
D12*
X001240Y000970D02*
X000490Y000970D01*
X000490Y005070D01*
X001240Y005070D01*
X001240Y004720D01*
X001840Y004720D01*
X001840Y005070D01*
X006740Y005070D01*
X006740Y000970D01*
X001840Y000970D01*
X001840Y001320D01*
X001240Y001320D01*
X001240Y000970D01*
X001130Y003020D02*
X001132Y003073D01*
X001138Y003126D01*
X001148Y003178D01*
X001162Y003229D01*
X001179Y003279D01*
X001200Y003328D01*
X001225Y003375D01*
X001253Y003420D01*
X001285Y003463D01*
X001320Y003503D01*
X001357Y003540D01*
X001397Y003575D01*
X001440Y003607D01*
X001485Y003635D01*
X001532Y003660D01*
X001581Y003681D01*
X001631Y003698D01*
X001682Y003712D01*
X001734Y003722D01*
X001787Y003728D01*
X001840Y003730D01*
X001893Y003728D01*
X001946Y003722D01*
X001998Y003712D01*
X002049Y003698D01*
X002099Y003681D01*
X002148Y003660D01*
X002195Y003635D01*
X002240Y003607D01*
X002283Y003575D01*
X002323Y003540D01*
X002360Y003503D01*
X002395Y003463D01*
X002427Y003420D01*
X002455Y003375D01*
X002480Y003328D01*
X002501Y003279D01*
X002518Y003229D01*
X002532Y003178D01*
X002542Y003126D01*
X002548Y003073D01*
X002550Y003020D01*
X002548Y002967D01*
X002542Y002914D01*
X002532Y002862D01*
X002518Y002811D01*
X002501Y002761D01*
X002480Y002712D01*
X002455Y002665D01*
X002427Y002620D01*
X002395Y002577D01*
X002360Y002537D01*
X002323Y002500D01*
X002283Y002465D01*
X002240Y002433D01*
X002195Y002405D01*
X002148Y002380D01*
X002099Y002359D01*
X002049Y002342D01*
X001998Y002328D01*
X001946Y002318D01*
X001893Y002312D01*
X001840Y002310D01*
X001787Y002312D01*
X001734Y002318D01*
X001682Y002328D01*
X001631Y002342D01*
X001581Y002359D01*
X001532Y002380D01*
X001485Y002405D01*
X001440Y002433D01*
X001397Y002465D01*
X001357Y002500D01*
X001320Y002537D01*
X001285Y002577D01*
X001253Y002620D01*
X001225Y002665D01*
X001200Y002712D01*
X001179Y002761D01*
X001162Y002811D01*
X001148Y002862D01*
X001138Y002914D01*
X001132Y002967D01*
X001130Y003020D01*
X001132Y003073D01*
X001138Y003126D01*
X001148Y003178D01*
X001162Y003229D01*
X001179Y003279D01*
X001200Y003328D01*
X001225Y003375D01*
X001253Y003420D01*
X001285Y003463D01*
X001320Y003503D01*
X001357Y003540D01*
X001397Y003575D01*
X001440Y003607D01*
X001485Y003635D01*
X001532Y003660D01*
X001581Y003681D01*
X001631Y003698D01*
X001682Y003712D01*
X001734Y003722D01*
X001787Y003728D01*
X001840Y003730D01*
X001893Y003728D01*
X001946Y003722D01*
X001998Y003712D01*
X002049Y003698D01*
X002099Y003681D01*
X002148Y003660D01*
X002195Y003635D01*
X002240Y003607D01*
X002283Y003575D01*
X002323Y003540D01*
X002360Y003503D01*
X002395Y003463D01*
X002427Y003420D01*
X002455Y003375D01*
X002480Y003328D01*
X002501Y003279D01*
X002518Y003229D01*
X002532Y003178D01*
X002542Y003126D01*
X002548Y003073D01*
X002550Y003020D01*
X002548Y002967D01*
X002542Y002914D01*
X002532Y002862D01*
X002518Y002811D01*
X002501Y002761D01*
X002480Y002712D01*
X002455Y002665D01*
X002427Y002620D01*
X002395Y002577D01*
X002360Y002537D01*
X002323Y002500D01*
X002283Y002465D01*
X002240Y002433D01*
X002195Y002405D01*
X002148Y002380D01*
X002099Y002359D01*
X002049Y002342D01*
X001998Y002328D01*
X001946Y002318D01*
X001893Y002312D01*
X001840Y002310D01*
X001787Y002312D01*
X001734Y002318D01*
X001682Y002328D01*
X001631Y002342D01*
X001581Y002359D01*
X001532Y002380D01*
X001485Y002405D01*
X001440Y002433D01*
X001397Y002465D01*
X001357Y002500D01*
X001320Y002537D01*
X001285Y002577D01*
X001253Y002620D01*
X001225Y002665D01*
X001200Y002712D01*
X001179Y002761D01*
X001162Y002811D01*
X001148Y002862D01*
X001138Y002914D01*
X001132Y002967D01*
X001130Y003020D01*
X003240Y001220D02*
X006490Y001220D01*
X006490Y004820D01*
X003240Y004820D01*
X003240Y001220D01*
X003958Y005538D02*
X004098Y005538D01*
X004168Y005608D01*
X004348Y005608D02*
X004348Y005748D01*
X004558Y005748D01*
X004628Y005678D01*
X004628Y005608D01*
X004558Y005538D01*
X004418Y005538D01*
X004348Y005608D01*
X004348Y005748D02*
X004488Y005888D01*
X004628Y005958D01*
X004168Y005888D02*
X004098Y005958D01*
X003958Y005958D01*
X003888Y005888D01*
X003888Y005608D01*
X003958Y005538D01*
X003999Y006168D02*
X005699Y006168D01*
X005716Y006170D01*
X005733Y006174D01*
X005749Y006181D01*
X005763Y006191D01*
X005776Y006204D01*
X005786Y006218D01*
X005793Y006234D01*
X005797Y006251D01*
X005799Y006268D01*
X005799Y007068D01*
X005797Y007085D01*
X005793Y007102D01*
X005786Y007118D01*
X005776Y007132D01*
X005763Y007145D01*
X005749Y007155D01*
X005733Y007162D01*
X005716Y007166D01*
X005699Y007168D01*
X003999Y007168D01*
X003982Y007166D01*
X003965Y007162D01*
X003949Y007155D01*
X003935Y007145D01*
X003922Y007132D01*
X003912Y007118D01*
X003905Y007102D01*
X003901Y007085D01*
X003899Y007068D01*
X003899Y006268D01*
X003901Y006251D01*
X003905Y006234D01*
X003912Y006218D01*
X003922Y006204D01*
X003935Y006191D01*
X003949Y006181D01*
X003965Y006174D01*
X003982Y006170D01*
X003999Y006168D01*
X003982Y006170D01*
X003965Y006174D01*
X003949Y006181D01*
X003935Y006191D01*
X003922Y006204D01*
X003912Y006218D01*
X003905Y006234D01*
X003901Y006251D01*
X003899Y006268D01*
X003210Y006390D02*
X003210Y006540D01*
X003160Y006590D01*
X003160Y007990D01*
X003210Y008040D01*
X003210Y008190D01*
X003208Y008207D01*
X003204Y008224D01*
X003197Y008240D01*
X003187Y008254D01*
X003174Y008267D01*
X003160Y008277D01*
X003144Y008284D01*
X003127Y008288D01*
X003110Y008290D01*
X002510Y008290D01*
X002493Y008288D01*
X002476Y008284D01*
X002460Y008277D01*
X002446Y008267D01*
X002433Y008254D01*
X002423Y008240D01*
X002416Y008224D01*
X002412Y008207D01*
X002410Y008190D01*
X002410Y008040D01*
X002460Y007990D01*
X002460Y006590D01*
X002410Y006540D01*
X002410Y006390D01*
X002412Y006373D01*
X002416Y006356D01*
X002423Y006340D01*
X002433Y006326D01*
X002446Y006313D01*
X002460Y006303D01*
X002476Y006296D01*
X002493Y006292D01*
X002510Y006290D01*
X003110Y006290D01*
X003127Y006292D01*
X003144Y006296D01*
X003160Y006303D01*
X003174Y006313D01*
X003187Y006326D01*
X003197Y006340D01*
X003204Y006356D01*
X003208Y006373D01*
X003210Y006390D01*
X003899Y007068D02*
X003901Y007085D01*
X003905Y007102D01*
X003912Y007118D01*
X003922Y007132D01*
X003935Y007145D01*
X003949Y007155D01*
X003965Y007162D01*
X003982Y007166D01*
X003999Y007168D01*
X003999Y007786D02*
X005699Y007786D01*
X005716Y007788D01*
X005733Y007792D01*
X005749Y007799D01*
X005763Y007809D01*
X005776Y007822D01*
X005786Y007836D01*
X005793Y007852D01*
X005797Y007869D01*
X005799Y007886D01*
X005799Y008686D01*
X005797Y008703D01*
X005793Y008720D01*
X005786Y008736D01*
X005776Y008750D01*
X005763Y008763D01*
X005749Y008773D01*
X005733Y008780D01*
X005716Y008784D01*
X005699Y008786D01*
X003999Y008786D01*
X003982Y008784D01*
X003965Y008780D01*
X003949Y008773D01*
X003935Y008763D01*
X003922Y008750D01*
X003912Y008736D01*
X003905Y008720D01*
X003901Y008703D01*
X003899Y008686D01*
X003899Y007886D01*
X003901Y007869D01*
X003905Y007852D01*
X003912Y007836D01*
X003922Y007822D01*
X003935Y007809D01*
X003949Y007799D01*
X003965Y007792D01*
X003982Y007788D01*
X003999Y007786D01*
X003982Y007788D01*
X003965Y007792D01*
X003949Y007799D01*
X003935Y007809D01*
X003922Y007822D01*
X003912Y007836D01*
X003905Y007852D01*
X003901Y007869D01*
X003899Y007886D01*
X003899Y008686D02*
X003901Y008703D01*
X003905Y008720D01*
X003912Y008736D01*
X003922Y008750D01*
X003935Y008763D01*
X003949Y008773D01*
X003965Y008780D01*
X003982Y008784D01*
X003999Y008786D01*
X003958Y008976D02*
X004098Y008976D01*
X004168Y009046D01*
X004348Y009046D02*
X004418Y008976D01*
X004558Y008976D01*
X004628Y009046D01*
X004628Y009186D01*
X004558Y009256D01*
X004488Y009256D01*
X004348Y009186D01*
X004348Y009397D01*
X004628Y009397D01*
X004168Y009327D02*
X004098Y009397D01*
X003958Y009397D01*
X003888Y009327D01*
X003888Y009046D01*
X003958Y008976D01*
X004699Y008286D02*
X004749Y008286D01*
X004949Y008286D02*
X004999Y008286D01*
X005699Y007786D02*
X005716Y007788D01*
X005733Y007792D01*
X005749Y007799D01*
X005763Y007809D01*
X005776Y007822D01*
X005786Y007836D01*
X005793Y007852D01*
X005797Y007869D01*
X005799Y007886D01*
X005799Y008686D02*
X005797Y008703D01*
X005793Y008720D01*
X005786Y008736D01*
X005776Y008750D01*
X005763Y008763D01*
X005749Y008773D01*
X005733Y008780D01*
X005716Y008784D01*
X005699Y008786D01*
X006110Y009760D02*
X006110Y007060D01*
X005799Y007068D02*
X005797Y007085D01*
X005793Y007102D01*
X005786Y007118D01*
X005776Y007132D01*
X005763Y007145D01*
X005749Y007155D01*
X005733Y007162D01*
X005716Y007166D01*
X005699Y007168D01*
X004999Y006668D02*
X004949Y006668D01*
X004749Y006668D02*
X004699Y006668D01*
X005699Y006168D02*
X005716Y006170D01*
X005733Y006174D01*
X005749Y006181D01*
X005763Y006191D01*
X005776Y006204D01*
X005786Y006218D01*
X005793Y006234D01*
X005797Y006251D01*
X005799Y006268D01*
X006560Y005720D02*
X006560Y005440D01*
X006630Y005370D01*
X006770Y005370D01*
X006840Y005440D01*
X007020Y005440D02*
X007090Y005370D01*
X007231Y005370D01*
X007301Y005440D01*
X007301Y005720D01*
X007231Y005790D01*
X007090Y005790D01*
X007020Y005720D01*
X007020Y005650D01*
X007090Y005580D01*
X007301Y005580D01*
X007600Y005280D02*
X007600Y006080D01*
X007602Y006097D01*
X007606Y006114D01*
X007613Y006130D01*
X007623Y006144D01*
X007636Y006157D01*
X007650Y006167D01*
X007666Y006174D01*
X007683Y006178D01*
X007700Y006180D01*
X009400Y006180D01*
X009417Y006178D01*
X009434Y006174D01*
X009450Y006167D01*
X009464Y006157D01*
X009477Y006144D01*
X009487Y006130D01*
X009494Y006114D01*
X009498Y006097D01*
X009500Y006080D01*
X009500Y005280D01*
X009498Y005263D01*
X009494Y005246D01*
X009487Y005230D01*
X009477Y005216D01*
X009464Y005203D01*
X009450Y005193D01*
X009434Y005186D01*
X009417Y005182D01*
X009400Y005180D01*
X007700Y005180D01*
X007683Y005182D01*
X007666Y005186D01*
X007650Y005193D01*
X007636Y005203D01*
X007623Y005216D01*
X007613Y005230D01*
X007606Y005246D01*
X007602Y005263D01*
X007600Y005280D01*
X007602Y005263D01*
X007606Y005246D01*
X007613Y005230D01*
X007623Y005216D01*
X007636Y005203D01*
X007650Y005193D01*
X007666Y005186D01*
X007683Y005182D01*
X007700Y005180D01*
X008400Y005680D02*
X008450Y005680D01*
X008650Y005680D02*
X008700Y005680D01*
X009400Y005180D02*
X009417Y005182D01*
X009434Y005186D01*
X009450Y005193D01*
X009464Y005203D01*
X009477Y005216D01*
X009487Y005230D01*
X009494Y005246D01*
X009498Y005263D01*
X009500Y005280D01*
X009500Y006080D02*
X009498Y006097D01*
X009494Y006114D01*
X009487Y006130D01*
X009477Y006144D01*
X009464Y006157D01*
X009450Y006167D01*
X009434Y006174D01*
X009417Y006178D01*
X009400Y006180D01*
X008520Y007010D02*
X008590Y007080D01*
X008590Y007220D01*
X008520Y007290D01*
X008590Y007470D02*
X008310Y007470D01*
X008450Y007470D02*
X008310Y007611D01*
X008310Y007681D01*
X008310Y007854D02*
X008520Y007854D01*
X008590Y007924D01*
X008590Y008134D01*
X008660Y008134D02*
X008730Y008064D01*
X008730Y007994D01*
X008660Y008134D02*
X008310Y008134D01*
X008380Y008314D02*
X008310Y008385D01*
X008310Y008595D01*
X008450Y008525D02*
X008450Y008385D01*
X008380Y008314D01*
X008590Y008314D02*
X008590Y008525D01*
X008520Y008595D01*
X008450Y008525D01*
X008310Y008775D02*
X008310Y008915D01*
X008240Y008845D02*
X008520Y008845D01*
X008590Y008915D01*
X008520Y009082D02*
X008450Y009152D01*
X008450Y009362D01*
X008380Y009362D02*
X008590Y009362D01*
X008590Y009152D01*
X008520Y009082D01*
X008310Y009152D02*
X008310Y009292D01*
X008380Y009362D01*
X008590Y009542D02*
X008590Y009682D01*
X008590Y009612D02*
X008170Y009612D01*
X008170Y009542D01*
X007910Y009760D02*
X007910Y007060D01*
X008170Y007080D02*
X008170Y007220D01*
X008240Y007290D01*
X008170Y007080D02*
X008240Y007010D01*
X008520Y007010D01*
X007700Y006180D02*
X007683Y006178D01*
X007666Y006174D01*
X007650Y006167D01*
X007636Y006157D01*
X007623Y006144D01*
X007613Y006130D01*
X007606Y006114D01*
X007602Y006097D01*
X007600Y006080D01*
X006840Y005720D02*
X006770Y005790D01*
X006630Y005790D01*
X006560Y005720D01*
X006110Y007060D02*
X006112Y007001D01*
X006118Y006943D01*
X006127Y006884D01*
X006141Y006827D01*
X006158Y006771D01*
X006179Y006716D01*
X006203Y006662D01*
X006231Y006610D01*
X006262Y006560D01*
X006296Y006512D01*
X006333Y006467D01*
X006374Y006424D01*
X006417Y006383D01*
X006462Y006346D01*
X006510Y006312D01*
X006560Y006281D01*
X006612Y006253D01*
X006666Y006229D01*
X006721Y006208D01*
X006777Y006191D01*
X006834Y006177D01*
X006893Y006168D01*
X006951Y006162D01*
X007010Y006160D01*
X007069Y006162D01*
X007127Y006168D01*
X007186Y006177D01*
X007243Y006191D01*
X007299Y006208D01*
X007354Y006229D01*
X007408Y006253D01*
X007460Y006281D01*
X007510Y006312D01*
X007558Y006346D01*
X007603Y006383D01*
X007646Y006424D01*
X007687Y006467D01*
X007724Y006512D01*
X007758Y006560D01*
X007789Y006610D01*
X007817Y006662D01*
X007841Y006716D01*
X007862Y006771D01*
X007879Y006827D01*
X007893Y006884D01*
X007902Y006943D01*
X007908Y007001D01*
X007910Y007060D01*
X007908Y007001D01*
X007902Y006943D01*
X007893Y006884D01*
X007879Y006827D01*
X007862Y006771D01*
X007841Y006716D01*
X007817Y006662D01*
X007789Y006610D01*
X007758Y006560D01*
X007724Y006512D01*
X007687Y006467D01*
X007646Y006424D01*
X007603Y006383D01*
X007558Y006346D01*
X007510Y006312D01*
X007460Y006281D01*
X007408Y006253D01*
X007354Y006229D01*
X007299Y006208D01*
X007243Y006191D01*
X007186Y006177D01*
X007127Y006168D01*
X007069Y006162D01*
X007010Y006160D01*
X006951Y006162D01*
X006893Y006168D01*
X006834Y006177D01*
X006777Y006191D01*
X006721Y006208D01*
X006666Y006229D01*
X006612Y006253D01*
X006560Y006281D01*
X006510Y006312D01*
X006462Y006346D01*
X006417Y006383D01*
X006374Y006424D01*
X006333Y006467D01*
X006296Y006512D01*
X006262Y006560D01*
X006231Y006610D01*
X006203Y006662D01*
X006179Y006716D01*
X006158Y006771D01*
X006141Y006827D01*
X006127Y006884D01*
X006118Y006943D01*
X006112Y007001D01*
X006110Y007060D01*
X006112Y007001D01*
X006118Y006943D01*
X006127Y006884D01*
X006141Y006827D01*
X006158Y006771D01*
X006179Y006716D01*
X006203Y006662D01*
X006231Y006610D01*
X006262Y006560D01*
X006296Y006512D01*
X006333Y006467D01*
X006374Y006424D01*
X006417Y006383D01*
X006462Y006346D01*
X006510Y006312D01*
X006560Y006281D01*
X006612Y006253D01*
X006666Y006229D01*
X006721Y006208D01*
X006777Y006191D01*
X006834Y006177D01*
X006893Y006168D01*
X006951Y006162D01*
X007010Y006160D01*
X007069Y006162D01*
X007127Y006168D01*
X007186Y006177D01*
X007243Y006191D01*
X007299Y006208D01*
X007354Y006229D01*
X007408Y006253D01*
X007460Y006281D01*
X007510Y006312D01*
X007558Y006346D01*
X007603Y006383D01*
X007646Y006424D01*
X007687Y006467D01*
X007724Y006512D01*
X007758Y006560D01*
X007789Y006610D01*
X007817Y006662D01*
X007841Y006716D01*
X007862Y006771D01*
X007879Y006827D01*
X007893Y006884D01*
X007902Y006943D01*
X007908Y007001D01*
X007910Y007060D01*
X007910Y009760D02*
X007908Y009819D01*
X007902Y009877D01*
X007893Y009936D01*
X007879Y009993D01*
X007862Y010049D01*
X007841Y010104D01*
X007817Y010158D01*
X007789Y010210D01*
X007758Y010260D01*
X007724Y010308D01*
X007687Y010353D01*
X007646Y010396D01*
X007603Y010437D01*
X007558Y010474D01*
X007510Y010508D01*
X007460Y010539D01*
X007408Y010567D01*
X007354Y010591D01*
X007299Y010612D01*
X007243Y010629D01*
X007186Y010643D01*
X007127Y010652D01*
X007069Y010658D01*
X007010Y010660D01*
X006951Y010658D01*
X006893Y010652D01*
X006834Y010643D01*
X006777Y010629D01*
X006721Y010612D01*
X006666Y010591D01*
X006612Y010567D01*
X006560Y010539D01*
X006510Y010508D01*
X006462Y010474D01*
X006417Y010437D01*
X006374Y010396D01*
X006333Y010353D01*
X006296Y010308D01*
X006262Y010260D01*
X006231Y010210D01*
X006203Y010158D01*
X006179Y010104D01*
X006158Y010049D01*
X006141Y009993D01*
X006127Y009936D01*
X006118Y009877D01*
X006112Y009819D01*
X006110Y009760D01*
X006112Y009819D01*
X006118Y009877D01*
X006127Y009936D01*
X006141Y009993D01*
X006158Y010049D01*
X006179Y010104D01*
X006203Y010158D01*
X006231Y010210D01*
X006262Y010260D01*
X006296Y010308D01*
X006333Y010353D01*
X006374Y010396D01*
X006417Y010437D01*
X006462Y010474D01*
X006510Y010508D01*
X006560Y010539D01*
X006612Y010567D01*
X006666Y010591D01*
X006721Y010612D01*
X006777Y010629D01*
X006834Y010643D01*
X006893Y010652D01*
X006951Y010658D01*
X007010Y010660D01*
X007069Y010658D01*
X007127Y010652D01*
X007186Y010643D01*
X007243Y010629D01*
X007299Y010612D01*
X007354Y010591D01*
X007408Y010567D01*
X007460Y010539D01*
X007510Y010508D01*
X007558Y010474D01*
X007603Y010437D01*
X007646Y010396D01*
X007687Y010353D01*
X007724Y010308D01*
X007758Y010260D01*
X007789Y010210D01*
X007817Y010158D01*
X007841Y010104D01*
X007862Y010049D01*
X007879Y009993D01*
X007893Y009936D01*
X007902Y009877D01*
X007908Y009819D01*
X007910Y009760D01*
X007908Y009819D01*
X007902Y009877D01*
X007893Y009936D01*
X007879Y009993D01*
X007862Y010049D01*
X007841Y010104D01*
X007817Y010158D01*
X007789Y010210D01*
X007758Y010260D01*
X007724Y010308D01*
X007687Y010353D01*
X007646Y010396D01*
X007603Y010437D01*
X007558Y010474D01*
X007510Y010508D01*
X007460Y010539D01*
X007408Y010567D01*
X007354Y010591D01*
X007299Y010612D01*
X007243Y010629D01*
X007186Y010643D01*
X007127Y010652D01*
X007069Y010658D01*
X007010Y010660D01*
X006951Y010658D01*
X006893Y010652D01*
X006834Y010643D01*
X006777Y010629D01*
X006721Y010612D01*
X006666Y010591D01*
X006612Y010567D01*
X006560Y010539D01*
X006510Y010508D01*
X006462Y010474D01*
X006417Y010437D01*
X006374Y010396D01*
X006333Y010353D01*
X006296Y010308D01*
X006262Y010260D01*
X006231Y010210D01*
X006203Y010158D01*
X006179Y010104D01*
X006158Y010049D01*
X006141Y009993D01*
X006127Y009936D01*
X006118Y009877D01*
X006112Y009819D01*
X006110Y009760D01*
X006910Y011250D02*
X007050Y011250D01*
X007120Y011320D01*
X006910Y011250D02*
X006840Y011320D01*
X006840Y011600D01*
X006910Y011670D01*
X007050Y011670D01*
X007120Y011600D01*
X007300Y011460D02*
X007581Y011460D01*
X007511Y011250D02*
X007511Y011670D01*
X007300Y011460D01*
X007573Y012861D02*
X008073Y012861D01*
X009178Y011777D02*
X009178Y011377D01*
X007644Y011077D02*
X007646Y011139D01*
X007652Y011202D01*
X007662Y011263D01*
X007676Y011324D01*
X007693Y011384D01*
X007714Y011443D01*
X007740Y011500D01*
X007768Y011555D01*
X007800Y011609D01*
X007836Y011660D01*
X007874Y011710D01*
X007916Y011756D01*
X007960Y011800D01*
X008008Y011841D01*
X008057Y011879D01*
X008109Y011913D01*
X008163Y011944D01*
X008219Y011972D01*
X008277Y011996D01*
X008336Y012017D01*
X008396Y012033D01*
X008457Y012046D01*
X008519Y012055D01*
X008581Y012060D01*
X008644Y012061D01*
X008706Y012058D01*
X008768Y012051D01*
X008830Y012040D01*
X008890Y012025D01*
X008950Y012007D01*
X009008Y011985D01*
X009065Y011959D01*
X009120Y011929D01*
X009173Y011896D01*
X009224Y011860D01*
X009272Y011821D01*
X009318Y011778D01*
X009361Y011733D01*
X009401Y011685D01*
X009438Y011635D01*
X009472Y011582D01*
X009503Y011528D01*
X009529Y011472D01*
X009553Y011414D01*
X009572Y011354D01*
X009588Y011294D01*
X009600Y011232D01*
X009608Y011171D01*
X009612Y011108D01*
X009612Y011046D01*
X009608Y010983D01*
X009600Y010922D01*
X009588Y010860D01*
X009572Y010800D01*
X009553Y010740D01*
X009529Y010682D01*
X009503Y010626D01*
X009472Y010572D01*
X009438Y010519D01*
X009401Y010469D01*
X009361Y010421D01*
X009318Y010376D01*
X009272Y010333D01*
X009224Y010294D01*
X009173Y010258D01*
X009120Y010225D01*
X009065Y010195D01*
X009008Y010169D01*
X008950Y010147D01*
X008890Y010129D01*
X008830Y010114D01*
X008768Y010103D01*
X008706Y010096D01*
X008644Y010093D01*
X008581Y010094D01*
X008519Y010099D01*
X008457Y010108D01*
X008396Y010121D01*
X008336Y010137D01*
X008277Y010158D01*
X008219Y010182D01*
X008163Y010210D01*
X008109Y010241D01*
X008057Y010275D01*
X008008Y010313D01*
X007960Y010354D01*
X007916Y010398D01*
X007874Y010444D01*
X007836Y010494D01*
X007800Y010545D01*
X007768Y010599D01*
X007740Y010654D01*
X007714Y010711D01*
X007693Y010770D01*
X007676Y010830D01*
X007662Y010891D01*
X007652Y010952D01*
X007646Y011015D01*
X007644Y011077D01*
X007646Y011139D01*
X007652Y011202D01*
X007662Y011263D01*
X007676Y011324D01*
X007693Y011384D01*
X007714Y011443D01*
X007740Y011500D01*
X007768Y011555D01*
X007800Y011609D01*
X007836Y011660D01*
X007874Y011710D01*
X007916Y011756D01*
X007960Y011800D01*
X008008Y011841D01*
X008057Y011879D01*
X008109Y011913D01*
X008163Y011944D01*
X008219Y011972D01*
X008277Y011996D01*
X008336Y012017D01*
X008396Y012033D01*
X008457Y012046D01*
X008519Y012055D01*
X008581Y012060D01*
X008644Y012061D01*
X008706Y012058D01*
X008768Y012051D01*
X008830Y012040D01*
X008890Y012025D01*
X008950Y012007D01*
X009008Y011985D01*
X009065Y011959D01*
X009120Y011929D01*
X009173Y011896D01*
X009224Y011860D01*
X009272Y011821D01*
X009318Y011778D01*
X009361Y011733D01*
X009401Y011685D01*
X009438Y011635D01*
X009472Y011582D01*
X009503Y011528D01*
X009529Y011472D01*
X009553Y011414D01*
X009572Y011354D01*
X009588Y011294D01*
X009600Y011232D01*
X009608Y011171D01*
X009612Y011108D01*
X009612Y011046D01*
X009608Y010983D01*
X009600Y010922D01*
X009588Y010860D01*
X009572Y010800D01*
X009553Y010740D01*
X009529Y010682D01*
X009503Y010626D01*
X009472Y010572D01*
X009438Y010519D01*
X009401Y010469D01*
X009361Y010421D01*
X009318Y010376D01*
X009272Y010333D01*
X009224Y010294D01*
X009173Y010258D01*
X009120Y010225D01*
X009065Y010195D01*
X009008Y010169D01*
X008950Y010147D01*
X008890Y010129D01*
X008830Y010114D01*
X008768Y010103D01*
X008706Y010096D01*
X008644Y010093D01*
X008581Y010094D01*
X008519Y010099D01*
X008457Y010108D01*
X008396Y010121D01*
X008336Y010137D01*
X008277Y010158D01*
X008219Y010182D01*
X008163Y010210D01*
X008109Y010241D01*
X008057Y010275D01*
X008008Y010313D01*
X007960Y010354D01*
X007916Y010398D01*
X007874Y010444D01*
X007836Y010494D01*
X007800Y010545D01*
X007768Y010599D01*
X007740Y010654D01*
X007714Y010711D01*
X007693Y010770D01*
X007676Y010830D01*
X007662Y010891D01*
X007652Y010952D01*
X007646Y011015D01*
X007644Y011077D01*
X007646Y011139D01*
X007652Y011202D01*
X007662Y011263D01*
X007676Y011324D01*
X007693Y011384D01*
X007714Y011443D01*
X007740Y011500D01*
X007768Y011555D01*
X007800Y011609D01*
X007836Y011660D01*
X007874Y011710D01*
X007916Y011756D01*
X007960Y011800D01*
X008008Y011841D01*
X008057Y011879D01*
X008109Y011913D01*
X008163Y011944D01*
X008219Y011972D01*
X008277Y011996D01*
X008336Y012017D01*
X008396Y012033D01*
X008457Y012046D01*
X008519Y012055D01*
X008581Y012060D01*
X008644Y012061D01*
X008706Y012058D01*
X008768Y012051D01*
X008830Y012040D01*
X008890Y012025D01*
X008950Y012007D01*
X009008Y011985D01*
X009065Y011959D01*
X009120Y011929D01*
X009173Y011896D01*
X009224Y011860D01*
X009272Y011821D01*
X009318Y011778D01*
X009361Y011733D01*
X009401Y011685D01*
X009438Y011635D01*
X009472Y011582D01*
X009503Y011528D01*
X009529Y011472D01*
X009553Y011414D01*
X009572Y011354D01*
X009588Y011294D01*
X009600Y011232D01*
X009608Y011171D01*
X009612Y011108D01*
X009612Y011046D01*
X009608Y010983D01*
X009600Y010922D01*
X009588Y010860D01*
X009572Y010800D01*
X009553Y010740D01*
X009529Y010682D01*
X009503Y010626D01*
X009472Y010572D01*
X009438Y010519D01*
X009401Y010469D01*
X009361Y010421D01*
X009318Y010376D01*
X009272Y010333D01*
X009224Y010294D01*
X009173Y010258D01*
X009120Y010225D01*
X009065Y010195D01*
X009008Y010169D01*
X008950Y010147D01*
X008890Y010129D01*
X008830Y010114D01*
X008768Y010103D01*
X008706Y010096D01*
X008644Y010093D01*
X008581Y010094D01*
X008519Y010099D01*
X008457Y010108D01*
X008396Y010121D01*
X008336Y010137D01*
X008277Y010158D01*
X008219Y010182D01*
X008163Y010210D01*
X008109Y010241D01*
X008057Y010275D01*
X008008Y010313D01*
X007960Y010354D01*
X007916Y010398D01*
X007874Y010444D01*
X007836Y010494D01*
X007800Y010545D01*
X007768Y010599D01*
X007740Y010654D01*
X007714Y010711D01*
X007693Y010770D01*
X007676Y010830D01*
X007662Y010891D01*
X007652Y010952D01*
X007646Y011015D01*
X007644Y011077D01*
X006849Y013186D02*
X006428Y013186D01*
X006568Y013326D01*
X006428Y013466D01*
X006849Y013466D01*
X006849Y013646D02*
X006568Y013646D01*
X006428Y013786D01*
X006568Y013926D01*
X006849Y013926D01*
X006849Y014107D02*
X006428Y014107D01*
X006428Y014317D01*
X006498Y014387D01*
X006638Y014387D01*
X006708Y014317D01*
X006708Y014107D01*
X006638Y013926D02*
X006638Y013646D01*
X007573Y018861D02*
X008073Y018861D01*
X010730Y018960D02*
X010730Y018560D01*
X010970Y017970D02*
X010900Y017900D01*
X010900Y017620D01*
X010970Y017550D01*
X011110Y017550D01*
X011180Y017620D01*
X011360Y017550D02*
X011641Y017550D01*
X011501Y017550D02*
X011501Y017970D01*
X011360Y017830D01*
X011180Y017900D02*
X011110Y017970D01*
X010970Y017970D01*
X010296Y019260D02*
X010298Y019322D01*
X010304Y019385D01*
X010314Y019446D01*
X010328Y019507D01*
X010345Y019567D01*
X010366Y019626D01*
X010392Y019683D01*
X010420Y019738D01*
X010452Y019792D01*
X010488Y019843D01*
X010526Y019893D01*
X010568Y019939D01*
X010612Y019983D01*
X010660Y020024D01*
X010709Y020062D01*
X010761Y020096D01*
X010815Y020127D01*
X010871Y020155D01*
X010929Y020179D01*
X010988Y020200D01*
X011048Y020216D01*
X011109Y020229D01*
X011171Y020238D01*
X011233Y020243D01*
X011296Y020244D01*
X011358Y020241D01*
X011420Y020234D01*
X011482Y020223D01*
X011542Y020208D01*
X011602Y020190D01*
X011660Y020168D01*
X011717Y020142D01*
X011772Y020112D01*
X011825Y020079D01*
X011876Y020043D01*
X011924Y020004D01*
X011970Y019961D01*
X012013Y019916D01*
X012053Y019868D01*
X012090Y019818D01*
X012124Y019765D01*
X012155Y019711D01*
X012181Y019655D01*
X012205Y019597D01*
X012224Y019537D01*
X012240Y019477D01*
X012252Y019415D01*
X012260Y019354D01*
X012264Y019291D01*
X012264Y019229D01*
X012260Y019166D01*
X012252Y019105D01*
X012240Y019043D01*
X012224Y018983D01*
X012205Y018923D01*
X012181Y018865D01*
X012155Y018809D01*
X012124Y018755D01*
X012090Y018702D01*
X012053Y018652D01*
X012013Y018604D01*
X011970Y018559D01*
X011924Y018516D01*
X011876Y018477D01*
X011825Y018441D01*
X011772Y018408D01*
X011717Y018378D01*
X011660Y018352D01*
X011602Y018330D01*
X011542Y018312D01*
X011482Y018297D01*
X011420Y018286D01*
X011358Y018279D01*
X011296Y018276D01*
X011233Y018277D01*
X011171Y018282D01*
X011109Y018291D01*
X011048Y018304D01*
X010988Y018320D01*
X010929Y018341D01*
X010871Y018365D01*
X010815Y018393D01*
X010761Y018424D01*
X010709Y018458D01*
X010660Y018496D01*
X010612Y018537D01*
X010568Y018581D01*
X010526Y018627D01*
X010488Y018677D01*
X010452Y018728D01*
X010420Y018782D01*
X010392Y018837D01*
X010366Y018894D01*
X010345Y018953D01*
X010328Y019013D01*
X010314Y019074D01*
X010304Y019135D01*
X010298Y019198D01*
X010296Y019260D01*
X010298Y019322D01*
X010304Y019385D01*
X010314Y019446D01*
X010328Y019507D01*
X010345Y019567D01*
X010366Y019626D01*
X010392Y019683D01*
X010420Y019738D01*
X010452Y019792D01*
X010488Y019843D01*
X010526Y019893D01*
X010568Y019939D01*
X010612Y019983D01*
X010660Y020024D01*
X010709Y020062D01*
X010761Y020096D01*
X010815Y020127D01*
X010871Y020155D01*
X010929Y020179D01*
X010988Y020200D01*
X011048Y020216D01*
X011109Y020229D01*
X011171Y020238D01*
X011233Y020243D01*
X011296Y020244D01*
X011358Y020241D01*
X011420Y020234D01*
X011482Y020223D01*
X011542Y020208D01*
X011602Y020190D01*
X011660Y020168D01*
X011717Y020142D01*
X011772Y020112D01*
X011825Y020079D01*
X011876Y020043D01*
X011924Y020004D01*
X011970Y019961D01*
X012013Y019916D01*
X012053Y019868D01*
X012090Y019818D01*
X012124Y019765D01*
X012155Y019711D01*
X012181Y019655D01*
X012205Y019597D01*
X012224Y019537D01*
X012240Y019477D01*
X012252Y019415D01*
X012260Y019354D01*
X012264Y019291D01*
X012264Y019229D01*
X012260Y019166D01*
X012252Y019105D01*
X012240Y019043D01*
X012224Y018983D01*
X012205Y018923D01*
X012181Y018865D01*
X012155Y018809D01*
X012124Y018755D01*
X012090Y018702D01*
X012053Y018652D01*
X012013Y018604D01*
X011970Y018559D01*
X011924Y018516D01*
X011876Y018477D01*
X011825Y018441D01*
X011772Y018408D01*
X011717Y018378D01*
X011660Y018352D01*
X011602Y018330D01*
X011542Y018312D01*
X011482Y018297D01*
X011420Y018286D01*
X011358Y018279D01*
X011296Y018276D01*
X011233Y018277D01*
X011171Y018282D01*
X011109Y018291D01*
X011048Y018304D01*
X010988Y018320D01*
X010929Y018341D01*
X010871Y018365D01*
X010815Y018393D01*
X010761Y018424D01*
X010709Y018458D01*
X010660Y018496D01*
X010612Y018537D01*
X010568Y018581D01*
X010526Y018627D01*
X010488Y018677D01*
X010452Y018728D01*
X010420Y018782D01*
X010392Y018837D01*
X010366Y018894D01*
X010345Y018953D01*
X010328Y019013D01*
X010314Y019074D01*
X010304Y019135D01*
X010298Y019198D01*
X010296Y019260D01*
X010298Y019322D01*
X010304Y019385D01*
X010314Y019446D01*
X010328Y019507D01*
X010345Y019567D01*
X010366Y019626D01*
X010392Y019683D01*
X010420Y019738D01*
X010452Y019792D01*
X010488Y019843D01*
X010526Y019893D01*
X010568Y019939D01*
X010612Y019983D01*
X010660Y020024D01*
X010709Y020062D01*
X010761Y020096D01*
X010815Y020127D01*
X010871Y020155D01*
X010929Y020179D01*
X010988Y020200D01*
X011048Y020216D01*
X011109Y020229D01*
X011171Y020238D01*
X011233Y020243D01*
X011296Y020244D01*
X011358Y020241D01*
X011420Y020234D01*
X011482Y020223D01*
X011542Y020208D01*
X011602Y020190D01*
X011660Y020168D01*
X011717Y020142D01*
X011772Y020112D01*
X011825Y020079D01*
X011876Y020043D01*
X011924Y020004D01*
X011970Y019961D01*
X012013Y019916D01*
X012053Y019868D01*
X012090Y019818D01*
X012124Y019765D01*
X012155Y019711D01*
X012181Y019655D01*
X012205Y019597D01*
X012224Y019537D01*
X012240Y019477D01*
X012252Y019415D01*
X012260Y019354D01*
X012264Y019291D01*
X012264Y019229D01*
X012260Y019166D01*
X012252Y019105D01*
X012240Y019043D01*
X012224Y018983D01*
X012205Y018923D01*
X012181Y018865D01*
X012155Y018809D01*
X012124Y018755D01*
X012090Y018702D01*
X012053Y018652D01*
X012013Y018604D01*
X011970Y018559D01*
X011924Y018516D01*
X011876Y018477D01*
X011825Y018441D01*
X011772Y018408D01*
X011717Y018378D01*
X011660Y018352D01*
X011602Y018330D01*
X011542Y018312D01*
X011482Y018297D01*
X011420Y018286D01*
X011358Y018279D01*
X011296Y018276D01*
X011233Y018277D01*
X011171Y018282D01*
X011109Y018291D01*
X011048Y018304D01*
X010988Y018320D01*
X010929Y018341D01*
X010871Y018365D01*
X010815Y018393D01*
X010761Y018424D01*
X010709Y018458D01*
X010660Y018496D01*
X010612Y018537D01*
X010568Y018581D01*
X010526Y018627D01*
X010488Y018677D01*
X010452Y018728D01*
X010420Y018782D01*
X010392Y018837D01*
X010366Y018894D01*
X010345Y018953D01*
X010328Y019013D01*
X010314Y019074D01*
X010304Y019135D01*
X010298Y019198D01*
X010296Y019260D01*
X011120Y016670D02*
X011620Y016670D01*
X011622Y016626D01*
X011628Y016583D01*
X011637Y016541D01*
X011650Y016499D01*
X011667Y016459D01*
X011687Y016420D01*
X011710Y016383D01*
X011737Y016349D01*
X011766Y016316D01*
X011799Y016287D01*
X011833Y016260D01*
X011870Y016237D01*
X011909Y016217D01*
X011949Y016200D01*
X011991Y016187D01*
X012033Y016178D01*
X012076Y016172D01*
X012120Y016170D01*
X012164Y016172D01*
X012207Y016178D01*
X012249Y016187D01*
X012291Y016200D01*
X012331Y016217D01*
X012370Y016237D01*
X012407Y016260D01*
X012441Y016287D01*
X012474Y016316D01*
X012503Y016349D01*
X012530Y016383D01*
X012553Y016420D01*
X012573Y016459D01*
X012590Y016499D01*
X012603Y016541D01*
X012612Y016583D01*
X012618Y016626D01*
X012620Y016670D01*
X013120Y016670D01*
X013210Y017550D02*
X013350Y017550D01*
X013420Y017620D01*
X013600Y017550D02*
X013881Y017830D01*
X013881Y017900D01*
X013811Y017970D01*
X013670Y017970D01*
X013600Y017900D01*
X013420Y017900D02*
X013350Y017970D01*
X013210Y017970D01*
X013140Y017900D01*
X013140Y017620D01*
X013210Y017550D01*
X013600Y017550D02*
X013881Y017550D01*
X012536Y019190D02*
X012538Y019252D01*
X012544Y019315D01*
X012554Y019376D01*
X012568Y019437D01*
X012585Y019497D01*
X012606Y019556D01*
X012632Y019613D01*
X012660Y019668D01*
X012692Y019722D01*
X012728Y019773D01*
X012766Y019823D01*
X012808Y019869D01*
X012852Y019913D01*
X012900Y019954D01*
X012949Y019992D01*
X013001Y020026D01*
X013055Y020057D01*
X013111Y020085D01*
X013169Y020109D01*
X013228Y020130D01*
X013288Y020146D01*
X013349Y020159D01*
X013411Y020168D01*
X013473Y020173D01*
X013536Y020174D01*
X013598Y020171D01*
X013660Y020164D01*
X013722Y020153D01*
X013782Y020138D01*
X013842Y020120D01*
X013900Y020098D01*
X013957Y020072D01*
X014012Y020042D01*
X014065Y020009D01*
X014116Y019973D01*
X014164Y019934D01*
X014210Y019891D01*
X014253Y019846D01*
X014293Y019798D01*
X014330Y019748D01*
X014364Y019695D01*
X014395Y019641D01*
X014421Y019585D01*
X014445Y019527D01*
X014464Y019467D01*
X014480Y019407D01*
X014492Y019345D01*
X014500Y019284D01*
X014504Y019221D01*
X014504Y019159D01*
X014500Y019096D01*
X014492Y019035D01*
X014480Y018973D01*
X014464Y018913D01*
X014445Y018853D01*
X014421Y018795D01*
X014395Y018739D01*
X014364Y018685D01*
X014330Y018632D01*
X014293Y018582D01*
X014253Y018534D01*
X014210Y018489D01*
X014164Y018446D01*
X014116Y018407D01*
X014065Y018371D01*
X014012Y018338D01*
X013957Y018308D01*
X013900Y018282D01*
X013842Y018260D01*
X013782Y018242D01*
X013722Y018227D01*
X013660Y018216D01*
X013598Y018209D01*
X013536Y018206D01*
X013473Y018207D01*
X013411Y018212D01*
X013349Y018221D01*
X013288Y018234D01*
X013228Y018250D01*
X013169Y018271D01*
X013111Y018295D01*
X013055Y018323D01*
X013001Y018354D01*
X012949Y018388D01*
X012900Y018426D01*
X012852Y018467D01*
X012808Y018511D01*
X012766Y018557D01*
X012728Y018607D01*
X012692Y018658D01*
X012660Y018712D01*
X012632Y018767D01*
X012606Y018824D01*
X012585Y018883D01*
X012568Y018943D01*
X012554Y019004D01*
X012544Y019065D01*
X012538Y019128D01*
X012536Y019190D01*
X012820Y019740D02*
X013220Y019740D01*
X012536Y019190D02*
X012538Y019252D01*
X012544Y019315D01*
X012554Y019376D01*
X012568Y019437D01*
X012585Y019497D01*
X012606Y019556D01*
X012632Y019613D01*
X012660Y019668D01*
X012692Y019722D01*
X012728Y019773D01*
X012766Y019823D01*
X012808Y019869D01*
X012852Y019913D01*
X012900Y019954D01*
X012949Y019992D01*
X013001Y020026D01*
X013055Y020057D01*
X013111Y020085D01*
X013169Y020109D01*
X013228Y020130D01*
X013288Y020146D01*
X013349Y020159D01*
X013411Y020168D01*
X013473Y020173D01*
X013536Y020174D01*
X013598Y020171D01*
X013660Y020164D01*
X013722Y020153D01*
X013782Y020138D01*
X013842Y020120D01*
X013900Y020098D01*
X013957Y020072D01*
X014012Y020042D01*
X014065Y020009D01*
X014116Y019973D01*
X014164Y019934D01*
X014210Y019891D01*
X014253Y019846D01*
X014293Y019798D01*
X014330Y019748D01*
X014364Y019695D01*
X014395Y019641D01*
X014421Y019585D01*
X014445Y019527D01*
X014464Y019467D01*
X014480Y019407D01*
X014492Y019345D01*
X014500Y019284D01*
X014504Y019221D01*
X014504Y019159D01*
X014500Y019096D01*
X014492Y019035D01*
X014480Y018973D01*
X014464Y018913D01*
X014445Y018853D01*
X014421Y018795D01*
X014395Y018739D01*
X014364Y018685D01*
X014330Y018632D01*
X014293Y018582D01*
X014253Y018534D01*
X014210Y018489D01*
X014164Y018446D01*
X014116Y018407D01*
X014065Y018371D01*
X014012Y018338D01*
X013957Y018308D01*
X013900Y018282D01*
X013842Y018260D01*
X013782Y018242D01*
X013722Y018227D01*
X013660Y018216D01*
X013598Y018209D01*
X013536Y018206D01*
X013473Y018207D01*
X013411Y018212D01*
X013349Y018221D01*
X013288Y018234D01*
X013228Y018250D01*
X013169Y018271D01*
X013111Y018295D01*
X013055Y018323D01*
X013001Y018354D01*
X012949Y018388D01*
X012900Y018426D01*
X012852Y018467D01*
X012808Y018511D01*
X012766Y018557D01*
X012728Y018607D01*
X012692Y018658D01*
X012660Y018712D01*
X012632Y018767D01*
X012606Y018824D01*
X012585Y018883D01*
X012568Y018943D01*
X012554Y019004D01*
X012544Y019065D01*
X012538Y019128D01*
X012536Y019190D01*
X012538Y019252D01*
X012544Y019315D01*
X012554Y019376D01*
X012568Y019437D01*
X012585Y019497D01*
X012606Y019556D01*
X012632Y019613D01*
X012660Y019668D01*
X012692Y019722D01*
X012728Y019773D01*
X012766Y019823D01*
X012808Y019869D01*
X012852Y019913D01*
X012900Y019954D01*
X012949Y019992D01*
X013001Y020026D01*
X013055Y020057D01*
X013111Y020085D01*
X013169Y020109D01*
X013228Y020130D01*
X013288Y020146D01*
X013349Y020159D01*
X013411Y020168D01*
X013473Y020173D01*
X013536Y020174D01*
X013598Y020171D01*
X013660Y020164D01*
X013722Y020153D01*
X013782Y020138D01*
X013842Y020120D01*
X013900Y020098D01*
X013957Y020072D01*
X014012Y020042D01*
X014065Y020009D01*
X014116Y019973D01*
X014164Y019934D01*
X014210Y019891D01*
X014253Y019846D01*
X014293Y019798D01*
X014330Y019748D01*
X014364Y019695D01*
X014395Y019641D01*
X014421Y019585D01*
X014445Y019527D01*
X014464Y019467D01*
X014480Y019407D01*
X014492Y019345D01*
X014500Y019284D01*
X014504Y019221D01*
X014504Y019159D01*
X014500Y019096D01*
X014492Y019035D01*
X014480Y018973D01*
X014464Y018913D01*
X014445Y018853D01*
X014421Y018795D01*
X014395Y018739D01*
X014364Y018685D01*
X014330Y018632D01*
X014293Y018582D01*
X014253Y018534D01*
X014210Y018489D01*
X014164Y018446D01*
X014116Y018407D01*
X014065Y018371D01*
X014012Y018338D01*
X013957Y018308D01*
X013900Y018282D01*
X013842Y018260D01*
X013782Y018242D01*
X013722Y018227D01*
X013660Y018216D01*
X013598Y018209D01*
X013536Y018206D01*
X013473Y018207D01*
X013411Y018212D01*
X013349Y018221D01*
X013288Y018234D01*
X013228Y018250D01*
X013169Y018271D01*
X013111Y018295D01*
X013055Y018323D01*
X013001Y018354D01*
X012949Y018388D01*
X012900Y018426D01*
X012852Y018467D01*
X012808Y018511D01*
X012766Y018557D01*
X012728Y018607D01*
X012692Y018658D01*
X012660Y018712D01*
X012632Y018767D01*
X012606Y018824D01*
X012585Y018883D01*
X012568Y018943D01*
X012554Y019004D01*
X012544Y019065D01*
X012538Y019128D01*
X012536Y019190D01*
X012620Y016670D02*
X012618Y016626D01*
X012612Y016583D01*
X012603Y016541D01*
X012590Y016499D01*
X012573Y016459D01*
X012553Y016420D01*
X012530Y016383D01*
X012503Y016349D01*
X012474Y016316D01*
X012441Y016287D01*
X012407Y016260D01*
X012370Y016237D01*
X012331Y016217D01*
X012291Y016200D01*
X012249Y016187D01*
X012207Y016178D01*
X012164Y016172D01*
X012120Y016170D01*
X012076Y016172D01*
X012033Y016178D01*
X011991Y016187D01*
X011949Y016200D01*
X011909Y016217D01*
X011870Y016237D01*
X011833Y016260D01*
X011799Y016287D01*
X011766Y016316D01*
X011737Y016349D01*
X011710Y016383D01*
X011687Y016420D01*
X011667Y016459D01*
X011650Y016499D01*
X011637Y016541D01*
X011628Y016583D01*
X011622Y016626D01*
X011620Y016670D01*
X014980Y020500D02*
X019880Y020500D01*
X019880Y020850D01*
X020480Y020850D01*
X020480Y020500D01*
X021230Y020500D01*
X021230Y024600D01*
X020480Y024600D01*
X020480Y024250D01*
X019880Y024250D01*
X019880Y024600D01*
X014980Y024600D01*
X014980Y020500D01*
X015230Y020750D02*
X018480Y020750D01*
X018480Y024350D01*
X015230Y024350D01*
X015230Y020750D01*
X016680Y018330D02*
X016830Y018330D01*
X016880Y018280D01*
X018280Y018280D01*
X018330Y018330D01*
X018480Y018330D01*
X018497Y018328D01*
X018514Y018324D01*
X018530Y018317D01*
X018544Y018307D01*
X018557Y018294D01*
X018567Y018280D01*
X018574Y018264D01*
X018578Y018247D01*
X018580Y018230D01*
X018580Y017630D01*
X018578Y017613D01*
X018574Y017596D01*
X018567Y017580D01*
X018557Y017566D01*
X018544Y017553D01*
X018530Y017543D01*
X018514Y017536D01*
X018497Y017532D01*
X018480Y017530D01*
X018330Y017530D01*
X018280Y017580D01*
X016880Y017580D01*
X016830Y017530D01*
X016680Y017530D01*
X016663Y017532D01*
X016646Y017536D01*
X016630Y017543D01*
X016616Y017553D01*
X016603Y017566D01*
X016593Y017580D01*
X016586Y017596D01*
X016582Y017613D01*
X016580Y017630D01*
X016580Y018230D01*
X016582Y018247D01*
X016586Y018264D01*
X016593Y018280D01*
X016603Y018294D01*
X016616Y018307D01*
X016630Y018317D01*
X016646Y018324D01*
X016663Y018328D01*
X016680Y018330D01*
X016663Y018328D01*
X016646Y018324D01*
X016630Y018317D01*
X016616Y018307D01*
X016603Y018294D01*
X016593Y018280D01*
X016586Y018264D01*
X016582Y018247D01*
X016580Y018230D01*
X016580Y017630D02*
X016582Y017613D01*
X016586Y017596D01*
X016593Y017580D01*
X016603Y017566D01*
X016616Y017553D01*
X016630Y017543D01*
X016646Y017536D01*
X016663Y017532D01*
X016680Y017530D01*
X016680Y016930D02*
X016830Y016930D01*
X016880Y016880D01*
X018280Y016880D01*
X018330Y016930D01*
X018480Y016930D01*
X018497Y016928D01*
X018514Y016924D01*
X018530Y016917D01*
X018544Y016907D01*
X018557Y016894D01*
X018567Y016880D01*
X018574Y016864D01*
X018578Y016847D01*
X018580Y016830D01*
X018580Y016230D01*
X018578Y016213D01*
X018574Y016196D01*
X018567Y016180D01*
X018557Y016166D01*
X018544Y016153D01*
X018530Y016143D01*
X018514Y016136D01*
X018497Y016132D01*
X018480Y016130D01*
X018330Y016130D01*
X018280Y016180D01*
X016880Y016180D01*
X016830Y016130D01*
X016680Y016130D01*
X016663Y016132D01*
X016646Y016136D01*
X016630Y016143D01*
X016616Y016153D01*
X016603Y016166D01*
X016593Y016180D01*
X016586Y016196D01*
X016582Y016213D01*
X016580Y016230D01*
X016580Y016830D01*
X016582Y016847D01*
X016586Y016864D01*
X016593Y016880D01*
X016603Y016894D01*
X016616Y016907D01*
X016630Y016917D01*
X016646Y016924D01*
X016663Y016928D01*
X016680Y016930D01*
X016663Y016928D01*
X016646Y016924D01*
X016630Y016917D01*
X016616Y016907D01*
X016603Y016894D01*
X016593Y016880D01*
X016586Y016864D01*
X016582Y016847D01*
X016580Y016830D01*
X016580Y016230D02*
X016582Y016213D01*
X016586Y016196D01*
X016593Y016180D01*
X016603Y016166D01*
X016616Y016153D01*
X016630Y016143D01*
X016646Y016136D01*
X016663Y016132D01*
X016680Y016130D01*
X016680Y015530D02*
X016830Y015530D01*
X016880Y015480D01*
X018280Y015480D01*
X018330Y015530D01*
X018480Y015530D01*
X018497Y015528D01*
X018514Y015524D01*
X018530Y015517D01*
X018544Y015507D01*
X018557Y015494D01*
X018567Y015480D01*
X018574Y015464D01*
X018578Y015447D01*
X018580Y015430D01*
X018580Y014830D01*
X018578Y014813D01*
X018574Y014796D01*
X018567Y014780D01*
X018557Y014766D01*
X018544Y014753D01*
X018530Y014743D01*
X018514Y014736D01*
X018497Y014732D01*
X018480Y014730D01*
X018330Y014730D01*
X018280Y014780D01*
X016880Y014780D01*
X016830Y014730D01*
X016680Y014730D01*
X016663Y014732D01*
X016646Y014736D01*
X016630Y014743D01*
X016616Y014753D01*
X016603Y014766D01*
X016593Y014780D01*
X016586Y014796D01*
X016582Y014813D01*
X016580Y014830D01*
X016580Y015430D01*
X016582Y015447D01*
X016586Y015464D01*
X016593Y015480D01*
X016603Y015494D01*
X016616Y015507D01*
X016630Y015517D01*
X016646Y015524D01*
X016663Y015528D01*
X016680Y015530D01*
X016663Y015528D01*
X016646Y015524D01*
X016630Y015517D01*
X016616Y015507D01*
X016603Y015494D01*
X016593Y015480D01*
X016586Y015464D01*
X016582Y015447D01*
X016580Y015430D01*
X016580Y014830D02*
X016582Y014813D01*
X016586Y014796D01*
X016593Y014780D01*
X016603Y014766D01*
X016616Y014753D01*
X016630Y014743D01*
X016646Y014736D01*
X016663Y014732D01*
X016680Y014730D01*
X016680Y014200D02*
X016830Y014200D01*
X016880Y014150D01*
X018280Y014150D01*
X018330Y014200D01*
X018480Y014200D01*
X018497Y014198D01*
X018514Y014194D01*
X018530Y014187D01*
X018544Y014177D01*
X018557Y014164D01*
X018567Y014150D01*
X018574Y014134D01*
X018578Y014117D01*
X018580Y014100D01*
X018580Y013500D01*
X018578Y013483D01*
X018574Y013466D01*
X018567Y013450D01*
X018557Y013436D01*
X018544Y013423D01*
X018530Y013413D01*
X018514Y013406D01*
X018497Y013402D01*
X018480Y013400D01*
X018330Y013400D01*
X018280Y013450D01*
X016880Y013450D01*
X016830Y013400D01*
X016680Y013400D01*
X016663Y013402D01*
X016646Y013406D01*
X016630Y013413D01*
X016616Y013423D01*
X016603Y013436D01*
X016593Y013450D01*
X016586Y013466D01*
X016582Y013483D01*
X016580Y013500D01*
X016580Y014100D01*
X016582Y014117D01*
X016586Y014134D01*
X016593Y014150D01*
X016603Y014164D01*
X016616Y014177D01*
X016630Y014187D01*
X016646Y014194D01*
X016663Y014198D01*
X016680Y014200D01*
X016663Y014198D01*
X016646Y014194D01*
X016630Y014187D01*
X016616Y014177D01*
X016603Y014164D01*
X016593Y014150D01*
X016586Y014134D01*
X016582Y014117D01*
X016580Y014100D01*
X016580Y013500D02*
X016582Y013483D01*
X016586Y013466D01*
X016593Y013450D01*
X016603Y013436D01*
X016616Y013423D01*
X016630Y013413D01*
X016646Y013406D01*
X016663Y013402D01*
X016680Y013400D01*
X016468Y012573D02*
X016188Y012573D01*
X016328Y012573D02*
X016328Y012152D01*
X016007Y012222D02*
X016007Y012293D01*
X015937Y012363D01*
X015727Y012363D01*
X015727Y012573D02*
X015727Y012152D01*
X015937Y012152D01*
X016007Y012222D01*
X015937Y012363D02*
X016007Y012433D01*
X016007Y012503D01*
X015937Y012573D01*
X015727Y012573D01*
X015294Y012900D02*
X020412Y012900D01*
X020412Y009553D01*
X021180Y010002D02*
X021600Y010002D01*
X021600Y009862D02*
X021600Y010142D01*
X021600Y010323D02*
X021600Y010393D01*
X021530Y010393D01*
X021530Y010323D01*
X021600Y010323D01*
X021530Y010553D02*
X021250Y010833D01*
X021530Y010833D01*
X021600Y010763D01*
X021600Y010623D01*
X021530Y010553D01*
X021250Y010553D01*
X021180Y010623D01*
X021180Y010763D01*
X021250Y010833D01*
X021180Y010002D02*
X021320Y009862D01*
X021320Y009682D02*
X021600Y009542D01*
X021320Y009402D01*
X021390Y008761D02*
X021460Y008761D01*
X021460Y008481D01*
X021530Y008481D02*
X021390Y008481D01*
X021320Y008551D01*
X021320Y008691D01*
X021390Y008761D01*
X021600Y008691D02*
X021600Y008551D01*
X021530Y008481D01*
X021600Y008301D02*
X021600Y008091D01*
X021530Y008021D01*
X021390Y008021D01*
X021320Y008091D01*
X021320Y008301D01*
X021670Y008301D01*
X021740Y008231D01*
X021740Y008161D01*
X021600Y007841D02*
X021320Y007841D01*
X021600Y007841D02*
X021600Y007630D01*
X021530Y007560D01*
X021320Y007560D01*
X021390Y007380D02*
X021600Y007380D01*
X021600Y007170D01*
X021530Y007100D01*
X021460Y007170D01*
X021460Y007380D01*
X021390Y007380D02*
X021320Y007310D01*
X021320Y007170D01*
X021390Y006920D02*
X021390Y006780D01*
X021390Y006920D02*
X021530Y006920D01*
X021600Y006850D01*
X021600Y006710D01*
X021530Y006639D01*
X021250Y006639D01*
X021180Y006710D01*
X021180Y006850D01*
X021250Y006920D01*
X021320Y006012D02*
X021320Y005872D01*
X021250Y005942D02*
X021530Y005942D01*
X021600Y006012D01*
X021530Y005692D02*
X021390Y005692D01*
X021320Y005622D01*
X021320Y005482D01*
X021390Y005412D01*
X021530Y005412D01*
X021600Y005482D01*
X021600Y005622D01*
X021530Y005692D01*
X021600Y005245D02*
X021600Y005105D01*
X021600Y005175D02*
X021320Y005175D01*
X021320Y005105D01*
X021180Y005175D02*
X021110Y005175D01*
X021320Y004931D02*
X021320Y004861D01*
X021460Y004721D01*
X021600Y004721D02*
X021320Y004721D01*
X021390Y004541D02*
X021600Y004541D01*
X021600Y004331D01*
X021530Y004261D01*
X021460Y004331D01*
X021460Y004541D01*
X021390Y004541D02*
X021320Y004471D01*
X021320Y004331D01*
X021390Y004081D02*
X021600Y004081D01*
X021390Y004081D02*
X021320Y004011D01*
X021320Y003870D01*
X021390Y003800D01*
X021180Y003800D02*
X021600Y003800D01*
X021530Y003620D02*
X021600Y003550D01*
X021600Y003410D01*
X021530Y003340D01*
X021250Y003340D01*
X021180Y003410D01*
X021180Y003550D01*
X021250Y003620D01*
X015294Y009553D02*
X015294Y012900D01*
X018480Y013400D02*
X018497Y013402D01*
X018514Y013406D01*
X018530Y013413D01*
X018544Y013423D01*
X018557Y013436D01*
X018567Y013450D01*
X018574Y013466D01*
X018578Y013483D01*
X018580Y013500D01*
X018580Y014100D02*
X018578Y014117D01*
X018574Y014134D01*
X018567Y014150D01*
X018557Y014164D01*
X018544Y014177D01*
X018530Y014187D01*
X018514Y014194D01*
X018497Y014198D01*
X018480Y014200D01*
X018480Y014730D02*
X018497Y014732D01*
X018514Y014736D01*
X018530Y014743D01*
X018544Y014753D01*
X018557Y014766D01*
X018567Y014780D01*
X018574Y014796D01*
X018578Y014813D01*
X018580Y014830D01*
X018580Y015430D02*
X018578Y015447D01*
X018574Y015464D01*
X018567Y015480D01*
X018557Y015494D01*
X018544Y015507D01*
X018530Y015517D01*
X018514Y015524D01*
X018497Y015528D01*
X018480Y015530D01*
X018480Y016130D02*
X018497Y016132D01*
X018514Y016136D01*
X018530Y016143D01*
X018544Y016153D01*
X018557Y016166D01*
X018567Y016180D01*
X018574Y016196D01*
X018578Y016213D01*
X018580Y016230D01*
X018580Y016830D02*
X018578Y016847D01*
X018574Y016864D01*
X018567Y016880D01*
X018557Y016894D01*
X018544Y016907D01*
X018530Y016917D01*
X018514Y016924D01*
X018497Y016928D01*
X018480Y016930D01*
X018480Y017530D02*
X018497Y017532D01*
X018514Y017536D01*
X018530Y017543D01*
X018544Y017553D01*
X018557Y017566D01*
X018567Y017580D01*
X018574Y017596D01*
X018578Y017613D01*
X018580Y017630D01*
X018580Y018230D02*
X018578Y018247D01*
X018574Y018264D01*
X018567Y018280D01*
X018557Y018294D01*
X018544Y018307D01*
X018530Y018317D01*
X018514Y018324D01*
X018497Y018328D01*
X018480Y018330D01*
X019918Y019640D02*
X019918Y020060D01*
X019918Y019640D02*
X020199Y019640D01*
X020379Y019640D02*
X020659Y019640D01*
X020839Y019640D02*
X021049Y019640D01*
X021119Y019710D01*
X021119Y019990D01*
X021049Y020060D01*
X020839Y020060D01*
X020839Y019640D01*
X020519Y019850D02*
X020379Y019850D01*
X020379Y020060D02*
X020379Y019640D01*
X020050Y019420D02*
X021550Y019420D01*
X021580Y019640D02*
X021300Y019640D01*
X021440Y019640D02*
X021440Y020060D01*
X021300Y019920D01*
X020659Y020060D02*
X020379Y020060D01*
X019800Y018420D02*
X019802Y018483D01*
X019808Y018545D01*
X019818Y018607D01*
X019831Y018669D01*
X019849Y018729D01*
X019870Y018788D01*
X019895Y018846D01*
X019924Y018902D01*
X019956Y018956D01*
X019991Y019008D01*
X020029Y019057D01*
X020071Y019105D01*
X020115Y019149D01*
X020163Y019191D01*
X020212Y019229D01*
X020264Y019264D01*
X020318Y019296D01*
X020374Y019325D01*
X020432Y019350D01*
X020491Y019371D01*
X020551Y019389D01*
X020613Y019402D01*
X020675Y019412D01*
X020737Y019418D01*
X020800Y019420D01*
X020863Y019418D01*
X020925Y019412D01*
X020987Y019402D01*
X021049Y019389D01*
X021109Y019371D01*
X021168Y019350D01*
X021226Y019325D01*
X021282Y019296D01*
X021336Y019264D01*
X021388Y019229D01*
X021437Y019191D01*
X021485Y019149D01*
X021529Y019105D01*
X021571Y019057D01*
X021609Y019008D01*
X021644Y018956D01*
X021676Y018902D01*
X021705Y018846D01*
X021730Y018788D01*
X021751Y018729D01*
X021769Y018669D01*
X021782Y018607D01*
X021792Y018545D01*
X021798Y018483D01*
X021800Y018420D01*
X021798Y018357D01*
X021792Y018295D01*
X021782Y018233D01*
X021769Y018171D01*
X021751Y018111D01*
X021730Y018052D01*
X021705Y017994D01*
X021676Y017938D01*
X021644Y017884D01*
X021609Y017832D01*
X021571Y017783D01*
X021529Y017735D01*
X021485Y017691D01*
X021437Y017649D01*
X021388Y017611D01*
X021336Y017576D01*
X021282Y017544D01*
X021226Y017515D01*
X021168Y017490D01*
X021109Y017469D01*
X021049Y017451D01*
X020987Y017438D01*
X020925Y017428D01*
X020863Y017422D01*
X020800Y017420D01*
X020737Y017422D01*
X020675Y017428D01*
X020613Y017438D01*
X020551Y017451D01*
X020491Y017469D01*
X020432Y017490D01*
X020374Y017515D01*
X020318Y017544D01*
X020264Y017576D01*
X020212Y017611D01*
X020163Y017649D01*
X020115Y017691D01*
X020071Y017735D01*
X020029Y017783D01*
X019991Y017832D01*
X019956Y017884D01*
X019924Y017938D01*
X019895Y017994D01*
X019870Y018052D01*
X019849Y018111D01*
X019831Y018171D01*
X019818Y018233D01*
X019808Y018295D01*
X019802Y018357D01*
X019800Y018420D01*
X019802Y018483D01*
X019808Y018545D01*
X019818Y018607D01*
X019831Y018669D01*
X019849Y018729D01*
X019870Y018788D01*
X019895Y018846D01*
X019924Y018902D01*
X019956Y018956D01*
X019991Y019008D01*
X020029Y019057D01*
X020071Y019105D01*
X020115Y019149D01*
X020163Y019191D01*
X020212Y019229D01*
X020264Y019264D01*
X020318Y019296D01*
X020374Y019325D01*
X020432Y019350D01*
X020491Y019371D01*
X020551Y019389D01*
X020613Y019402D01*
X020675Y019412D01*
X020737Y019418D01*
X020800Y019420D01*
X020863Y019418D01*
X020925Y019412D01*
X020987Y019402D01*
X021049Y019389D01*
X021109Y019371D01*
X021168Y019350D01*
X021226Y019325D01*
X021282Y019296D01*
X021336Y019264D01*
X021388Y019229D01*
X021437Y019191D01*
X021485Y019149D01*
X021529Y019105D01*
X021571Y019057D01*
X021609Y019008D01*
X021644Y018956D01*
X021676Y018902D01*
X021705Y018846D01*
X021730Y018788D01*
X021751Y018729D01*
X021769Y018669D01*
X021782Y018607D01*
X021792Y018545D01*
X021798Y018483D01*
X021800Y018420D01*
X021798Y018357D01*
X021792Y018295D01*
X021782Y018233D01*
X021769Y018171D01*
X021751Y018111D01*
X021730Y018052D01*
X021705Y017994D01*
X021676Y017938D01*
X021644Y017884D01*
X021609Y017832D01*
X021571Y017783D01*
X021529Y017735D01*
X021485Y017691D01*
X021437Y017649D01*
X021388Y017611D01*
X021336Y017576D01*
X021282Y017544D01*
X021226Y017515D01*
X021168Y017490D01*
X021109Y017469D01*
X021049Y017451D01*
X020987Y017438D01*
X020925Y017428D01*
X020863Y017422D01*
X020800Y017420D01*
X020737Y017422D01*
X020675Y017428D01*
X020613Y017438D01*
X020551Y017451D01*
X020491Y017469D01*
X020432Y017490D01*
X020374Y017515D01*
X020318Y017544D01*
X020264Y017576D01*
X020212Y017611D01*
X020163Y017649D01*
X020115Y017691D01*
X020071Y017735D01*
X020029Y017783D01*
X019991Y017832D01*
X019956Y017884D01*
X019924Y017938D01*
X019895Y017994D01*
X019870Y018052D01*
X019849Y018111D01*
X019831Y018171D01*
X019818Y018233D01*
X019808Y018295D01*
X019802Y018357D01*
X019800Y018420D01*
X019800Y015550D02*
X019802Y015613D01*
X019808Y015675D01*
X019818Y015737D01*
X019831Y015799D01*
X019849Y015859D01*
X019870Y015918D01*
X019895Y015976D01*
X019924Y016032D01*
X019956Y016086D01*
X019991Y016138D01*
X020029Y016187D01*
X020071Y016235D01*
X020115Y016279D01*
X020163Y016321D01*
X020212Y016359D01*
X020264Y016394D01*
X020318Y016426D01*
X020374Y016455D01*
X020432Y016480D01*
X020491Y016501D01*
X020551Y016519D01*
X020613Y016532D01*
X020675Y016542D01*
X020737Y016548D01*
X020800Y016550D01*
X020863Y016548D01*
X020925Y016542D01*
X020987Y016532D01*
X021049Y016519D01*
X021109Y016501D01*
X021168Y016480D01*
X021226Y016455D01*
X021282Y016426D01*
X021336Y016394D01*
X021388Y016359D01*
X021437Y016321D01*
X021485Y016279D01*
X021529Y016235D01*
X021571Y016187D01*
X021609Y016138D01*
X021644Y016086D01*
X021676Y016032D01*
X021705Y015976D01*
X021730Y015918D01*
X021751Y015859D01*
X021769Y015799D01*
X021782Y015737D01*
X021792Y015675D01*
X021798Y015613D01*
X021800Y015550D01*
X021798Y015487D01*
X021792Y015425D01*
X021782Y015363D01*
X021769Y015301D01*
X021751Y015241D01*
X021730Y015182D01*
X021705Y015124D01*
X021676Y015068D01*
X021644Y015014D01*
X021609Y014962D01*
X021571Y014913D01*
X021529Y014865D01*
X021485Y014821D01*
X021437Y014779D01*
X021388Y014741D01*
X021336Y014706D01*
X021282Y014674D01*
X021226Y014645D01*
X021168Y014620D01*
X021109Y014599D01*
X021049Y014581D01*
X020987Y014568D01*
X020925Y014558D01*
X020863Y014552D01*
X020800Y014550D01*
X020737Y014552D01*
X020675Y014558D01*
X020613Y014568D01*
X020551Y014581D01*
X020491Y014599D01*
X020432Y014620D01*
X020374Y014645D01*
X020318Y014674D01*
X020264Y014706D01*
X020212Y014741D01*
X020163Y014779D01*
X020115Y014821D01*
X020071Y014865D01*
X020029Y014913D01*
X019991Y014962D01*
X019956Y015014D01*
X019924Y015068D01*
X019895Y015124D01*
X019870Y015182D01*
X019849Y015241D01*
X019831Y015301D01*
X019818Y015363D01*
X019808Y015425D01*
X019802Y015487D01*
X019800Y015550D01*
X019802Y015613D01*
X019808Y015675D01*
X019818Y015737D01*
X019831Y015799D01*
X019849Y015859D01*
X019870Y015918D01*
X019895Y015976D01*
X019924Y016032D01*
X019956Y016086D01*
X019991Y016138D01*
X020029Y016187D01*
X020071Y016235D01*
X020115Y016279D01*
X020163Y016321D01*
X020212Y016359D01*
X020264Y016394D01*
X020318Y016426D01*
X020374Y016455D01*
X020432Y016480D01*
X020491Y016501D01*
X020551Y016519D01*
X020613Y016532D01*
X020675Y016542D01*
X020737Y016548D01*
X020800Y016550D01*
X020863Y016548D01*
X020925Y016542D01*
X020987Y016532D01*
X021049Y016519D01*
X021109Y016501D01*
X021168Y016480D01*
X021226Y016455D01*
X021282Y016426D01*
X021336Y016394D01*
X021388Y016359D01*
X021437Y016321D01*
X021485Y016279D01*
X021529Y016235D01*
X021571Y016187D01*
X021609Y016138D01*
X021644Y016086D01*
X021676Y016032D01*
X021705Y015976D01*
X021730Y015918D01*
X021751Y015859D01*
X021769Y015799D01*
X021782Y015737D01*
X021792Y015675D01*
X021798Y015613D01*
X021800Y015550D01*
X021798Y015487D01*
X021792Y015425D01*
X021782Y015363D01*
X021769Y015301D01*
X021751Y015241D01*
X021730Y015182D01*
X021705Y015124D01*
X021676Y015068D01*
X021644Y015014D01*
X021609Y014962D01*
X021571Y014913D01*
X021529Y014865D01*
X021485Y014821D01*
X021437Y014779D01*
X021388Y014741D01*
X021336Y014706D01*
X021282Y014674D01*
X021226Y014645D01*
X021168Y014620D01*
X021109Y014599D01*
X021049Y014581D01*
X020987Y014568D01*
X020925Y014558D01*
X020863Y014552D01*
X020800Y014550D01*
X020737Y014552D01*
X020675Y014558D01*
X020613Y014568D01*
X020551Y014581D01*
X020491Y014599D01*
X020432Y014620D01*
X020374Y014645D01*
X020318Y014674D01*
X020264Y014706D01*
X020212Y014741D01*
X020163Y014779D01*
X020115Y014821D01*
X020071Y014865D01*
X020029Y014913D01*
X019991Y014962D01*
X019956Y015014D01*
X019924Y015068D01*
X019895Y015124D01*
X019870Y015182D01*
X019849Y015241D01*
X019831Y015301D01*
X019818Y015363D01*
X019808Y015425D01*
X019802Y015487D01*
X019800Y015550D01*
X020050Y014550D02*
X021550Y014550D01*
X021581Y014330D02*
X021441Y014330D01*
X021371Y014260D01*
X021191Y014260D02*
X021191Y013980D01*
X021121Y013910D01*
X020911Y013910D01*
X020911Y014330D01*
X021121Y014330D01*
X021191Y014260D01*
X021371Y013910D02*
X021651Y014190D01*
X021651Y014260D01*
X021581Y014330D01*
X021651Y013910D02*
X021371Y013910D01*
X020731Y013910D02*
X020450Y013910D01*
X020450Y014330D01*
X020731Y014330D01*
X020591Y014120D02*
X020450Y014120D01*
X020270Y013910D02*
X019990Y013910D01*
X019990Y014330D01*
X019170Y022550D02*
X019172Y022603D01*
X019178Y022656D01*
X019188Y022708D01*
X019202Y022759D01*
X019219Y022809D01*
X019240Y022858D01*
X019265Y022905D01*
X019293Y022950D01*
X019325Y022993D01*
X019360Y023033D01*
X019397Y023070D01*
X019437Y023105D01*
X019480Y023137D01*
X019525Y023165D01*
X019572Y023190D01*
X019621Y023211D01*
X019671Y023228D01*
X019722Y023242D01*
X019774Y023252D01*
X019827Y023258D01*
X019880Y023260D01*
X019933Y023258D01*
X019986Y023252D01*
X020038Y023242D01*
X020089Y023228D01*
X020139Y023211D01*
X020188Y023190D01*
X020235Y023165D01*
X020280Y023137D01*
X020323Y023105D01*
X020363Y023070D01*
X020400Y023033D01*
X020435Y022993D01*
X020467Y022950D01*
X020495Y022905D01*
X020520Y022858D01*
X020541Y022809D01*
X020558Y022759D01*
X020572Y022708D01*
X020582Y022656D01*
X020588Y022603D01*
X020590Y022550D01*
X020588Y022497D01*
X020582Y022444D01*
X020572Y022392D01*
X020558Y022341D01*
X020541Y022291D01*
X020520Y022242D01*
X020495Y022195D01*
X020467Y022150D01*
X020435Y022107D01*
X020400Y022067D01*
X020363Y022030D01*
X020323Y021995D01*
X020280Y021963D01*
X020235Y021935D01*
X020188Y021910D01*
X020139Y021889D01*
X020089Y021872D01*
X020038Y021858D01*
X019986Y021848D01*
X019933Y021842D01*
X019880Y021840D01*
X019827Y021842D01*
X019774Y021848D01*
X019722Y021858D01*
X019671Y021872D01*
X019621Y021889D01*
X019572Y021910D01*
X019525Y021935D01*
X019480Y021963D01*
X019437Y021995D01*
X019397Y022030D01*
X019360Y022067D01*
X019325Y022107D01*
X019293Y022150D01*
X019265Y022195D01*
X019240Y022242D01*
X019219Y022291D01*
X019202Y022341D01*
X019188Y022392D01*
X019178Y022444D01*
X019172Y022497D01*
X019170Y022550D01*
X019172Y022603D01*
X019178Y022656D01*
X019188Y022708D01*
X019202Y022759D01*
X019219Y022809D01*
X019240Y022858D01*
X019265Y022905D01*
X019293Y022950D01*
X019325Y022993D01*
X019360Y023033D01*
X019397Y023070D01*
X019437Y023105D01*
X019480Y023137D01*
X019525Y023165D01*
X019572Y023190D01*
X019621Y023211D01*
X019671Y023228D01*
X019722Y023242D01*
X019774Y023252D01*
X019827Y023258D01*
X019880Y023260D01*
X019933Y023258D01*
X019986Y023252D01*
X020038Y023242D01*
X020089Y023228D01*
X020139Y023211D01*
X020188Y023190D01*
X020235Y023165D01*
X020280Y023137D01*
X020323Y023105D01*
X020363Y023070D01*
X020400Y023033D01*
X020435Y022993D01*
X020467Y022950D01*
X020495Y022905D01*
X020520Y022858D01*
X020541Y022809D01*
X020558Y022759D01*
X020572Y022708D01*
X020582Y022656D01*
X020588Y022603D01*
X020590Y022550D01*
X020588Y022497D01*
X020582Y022444D01*
X020572Y022392D01*
X020558Y022341D01*
X020541Y022291D01*
X020520Y022242D01*
X020495Y022195D01*
X020467Y022150D01*
X020435Y022107D01*
X020400Y022067D01*
X020363Y022030D01*
X020323Y021995D01*
X020280Y021963D01*
X020235Y021935D01*
X020188Y021910D01*
X020139Y021889D01*
X020089Y021872D01*
X020038Y021858D01*
X019986Y021848D01*
X019933Y021842D01*
X019880Y021840D01*
X019827Y021842D01*
X019774Y021848D01*
X019722Y021858D01*
X019671Y021872D01*
X019621Y021889D01*
X019572Y021910D01*
X019525Y021935D01*
X019480Y021963D01*
X019437Y021995D01*
X019397Y022030D01*
X019360Y022067D01*
X019325Y022107D01*
X019293Y022150D01*
X019265Y022195D01*
X019240Y022242D01*
X019219Y022291D01*
X019202Y022341D01*
X019188Y022392D01*
X019178Y022444D01*
X019172Y022497D01*
X019170Y022550D01*
X012933Y022428D02*
X000807Y022428D01*
X000807Y024530D01*
X003410Y022240D02*
X003410Y021820D01*
X003620Y021820D01*
X003690Y021890D01*
X003690Y022170D01*
X003620Y022240D01*
X003410Y022240D01*
X003870Y022030D02*
X004151Y022030D01*
X004331Y022100D02*
X004331Y022170D01*
X004401Y022240D01*
X004541Y022240D01*
X004611Y022170D01*
X004541Y022030D02*
X004401Y022030D01*
X004331Y022100D01*
X004331Y021890D02*
X004401Y021820D01*
X004541Y021820D01*
X004611Y021890D01*
X004611Y021960D01*
X004541Y022030D01*
X004791Y021890D02*
X004861Y021820D01*
X005001Y021820D01*
X005071Y021890D01*
X005071Y022240D01*
X005252Y022240D02*
X005462Y022240D01*
X005532Y022170D01*
X005532Y022100D01*
X005462Y022030D01*
X005252Y022030D01*
X005462Y022030D02*
X005532Y021960D01*
X005532Y021890D01*
X005462Y021820D01*
X005252Y021820D01*
X005252Y022240D01*
X004791Y022240D02*
X004791Y021890D01*
X012933Y022428D02*
X012933Y024530D01*
X012290Y010612D02*
X012010Y010612D01*
X011870Y010472D01*
X012010Y010332D01*
X012290Y010332D01*
X012220Y010152D02*
X012080Y010152D01*
X012080Y010012D01*
X012220Y010152D02*
X012290Y010082D01*
X012290Y009942D01*
X012220Y009872D01*
X011940Y009872D01*
X011870Y009942D01*
X011870Y010082D01*
X011940Y010152D01*
X012080Y010332D02*
X012080Y010612D01*
X012290Y009691D02*
X012290Y009411D01*
X011870Y009411D01*
X011870Y009691D01*
X012080Y009551D02*
X012080Y009411D01*
X011870Y009231D02*
X012290Y009231D01*
X012290Y008951D02*
X011870Y008951D01*
X012010Y009091D01*
X011870Y009231D01*
X011870Y008771D02*
X011870Y008490D01*
X011870Y008631D02*
X012290Y008631D01*
X012290Y008310D02*
X012010Y008310D01*
X011870Y008170D01*
X012010Y008030D01*
X012290Y008030D01*
X012080Y008030D02*
X012080Y008310D01*
X011120Y002670D02*
X013120Y002670D01*
X011136Y001410D02*
X011138Y001472D01*
X011144Y001535D01*
X011154Y001596D01*
X011168Y001657D01*
X011185Y001717D01*
X011206Y001776D01*
X011232Y001833D01*
X011260Y001888D01*
X011292Y001942D01*
X011328Y001993D01*
X011366Y002043D01*
X011408Y002089D01*
X011452Y002133D01*
X011500Y002174D01*
X011549Y002212D01*
X011601Y002246D01*
X011655Y002277D01*
X011711Y002305D01*
X011769Y002329D01*
X011828Y002350D01*
X011888Y002366D01*
X011949Y002379D01*
X012011Y002388D01*
X012073Y002393D01*
X012136Y002394D01*
X012198Y002391D01*
X012260Y002384D01*
X012322Y002373D01*
X012382Y002358D01*
X012442Y002340D01*
X012500Y002318D01*
X012557Y002292D01*
X012612Y002262D01*
X012665Y002229D01*
X012716Y002193D01*
X012764Y002154D01*
X012810Y002111D01*
X012853Y002066D01*
X012893Y002018D01*
X012930Y001968D01*
X012964Y001915D01*
X012995Y001861D01*
X013021Y001805D01*
X013045Y001747D01*
X013064Y001687D01*
X013080Y001627D01*
X013092Y001565D01*
X013100Y001504D01*
X013104Y001441D01*
X013104Y001379D01*
X013100Y001316D01*
X013092Y001255D01*
X013080Y001193D01*
X013064Y001133D01*
X013045Y001073D01*
X013021Y001015D01*
X012995Y000959D01*
X012964Y000905D01*
X012930Y000852D01*
X012893Y000802D01*
X012853Y000754D01*
X012810Y000709D01*
X012764Y000666D01*
X012716Y000627D01*
X012665Y000591D01*
X012612Y000558D01*
X012557Y000528D01*
X012500Y000502D01*
X012442Y000480D01*
X012382Y000462D01*
X012322Y000447D01*
X012260Y000436D01*
X012198Y000429D01*
X012136Y000426D01*
X012073Y000427D01*
X012011Y000432D01*
X011949Y000441D01*
X011888Y000454D01*
X011828Y000470D01*
X011769Y000491D01*
X011711Y000515D01*
X011655Y000543D01*
X011601Y000574D01*
X011549Y000608D01*
X011500Y000646D01*
X011452Y000687D01*
X011408Y000731D01*
X011366Y000777D01*
X011328Y000827D01*
X011292Y000878D01*
X011260Y000932D01*
X011232Y000987D01*
X011206Y001044D01*
X011185Y001103D01*
X011168Y001163D01*
X011154Y001224D01*
X011144Y001285D01*
X011138Y001348D01*
X011136Y001410D01*
X010911Y001310D02*
X010911Y001590D01*
X010631Y001310D01*
X010701Y001240D01*
X010841Y001240D01*
X010911Y001310D01*
X010631Y001310D02*
X010631Y001590D01*
X010701Y001660D01*
X010841Y001660D01*
X010911Y001590D01*
X010451Y001240D02*
X010170Y001240D01*
X010311Y001240D02*
X010311Y001660D01*
X010170Y001520D01*
X009990Y001590D02*
X009920Y001660D01*
X009780Y001660D01*
X009710Y001590D01*
X009710Y001310D01*
X009780Y001240D01*
X009920Y001240D01*
X009990Y001310D01*
X011570Y001110D02*
X011570Y000710D01*
X011136Y001410D02*
X011138Y001472D01*
X011144Y001535D01*
X011154Y001596D01*
X011168Y001657D01*
X011185Y001717D01*
X011206Y001776D01*
X011232Y001833D01*
X011260Y001888D01*
X011292Y001942D01*
X011328Y001993D01*
X011366Y002043D01*
X011408Y002089D01*
X011452Y002133D01*
X011500Y002174D01*
X011549Y002212D01*
X011601Y002246D01*
X011655Y002277D01*
X011711Y002305D01*
X011769Y002329D01*
X011828Y002350D01*
X011888Y002366D01*
X011949Y002379D01*
X012011Y002388D01*
X012073Y002393D01*
X012136Y002394D01*
X012198Y002391D01*
X012260Y002384D01*
X012322Y002373D01*
X012382Y002358D01*
X012442Y002340D01*
X012500Y002318D01*
X012557Y002292D01*
X012612Y002262D01*
X012665Y002229D01*
X012716Y002193D01*
X012764Y002154D01*
X012810Y002111D01*
X012853Y002066D01*
X012893Y002018D01*
X012930Y001968D01*
X012964Y001915D01*
X012995Y001861D01*
X013021Y001805D01*
X013045Y001747D01*
X013064Y001687D01*
X013080Y001627D01*
X013092Y001565D01*
X013100Y001504D01*
X013104Y001441D01*
X013104Y001379D01*
X013100Y001316D01*
X013092Y001255D01*
X013080Y001193D01*
X013064Y001133D01*
X013045Y001073D01*
X013021Y001015D01*
X012995Y000959D01*
X012964Y000905D01*
X012930Y000852D01*
X012893Y000802D01*
X012853Y000754D01*
X012810Y000709D01*
X012764Y000666D01*
X012716Y000627D01*
X012665Y000591D01*
X012612Y000558D01*
X012557Y000528D01*
X012500Y000502D01*
X012442Y000480D01*
X012382Y000462D01*
X012322Y000447D01*
X012260Y000436D01*
X012198Y000429D01*
X012136Y000426D01*
X012073Y000427D01*
X012011Y000432D01*
X011949Y000441D01*
X011888Y000454D01*
X011828Y000470D01*
X011769Y000491D01*
X011711Y000515D01*
X011655Y000543D01*
X011601Y000574D01*
X011549Y000608D01*
X011500Y000646D01*
X011452Y000687D01*
X011408Y000731D01*
X011366Y000777D01*
X011328Y000827D01*
X011292Y000878D01*
X011260Y000932D01*
X011232Y000987D01*
X011206Y001044D01*
X011185Y001103D01*
X011168Y001163D01*
X011154Y001224D01*
X011144Y001285D01*
X011138Y001348D01*
X011136Y001410D01*
X011138Y001472D01*
X011144Y001535D01*
X011154Y001596D01*
X011168Y001657D01*
X011185Y001717D01*
X011206Y001776D01*
X011232Y001833D01*
X011260Y001888D01*
X011292Y001942D01*
X011328Y001993D01*
X011366Y002043D01*
X011408Y002089D01*
X011452Y002133D01*
X011500Y002174D01*
X011549Y002212D01*
X011601Y002246D01*
X011655Y002277D01*
X011711Y002305D01*
X011769Y002329D01*
X011828Y002350D01*
X011888Y002366D01*
X011949Y002379D01*
X012011Y002388D01*
X012073Y002393D01*
X012136Y002394D01*
X012198Y002391D01*
X012260Y002384D01*
X012322Y002373D01*
X012382Y002358D01*
X012442Y002340D01*
X012500Y002318D01*
X012557Y002292D01*
X012612Y002262D01*
X012665Y002229D01*
X012716Y002193D01*
X012764Y002154D01*
X012810Y002111D01*
X012853Y002066D01*
X012893Y002018D01*
X012930Y001968D01*
X012964Y001915D01*
X012995Y001861D01*
X013021Y001805D01*
X013045Y001747D01*
X013064Y001687D01*
X013080Y001627D01*
X013092Y001565D01*
X013100Y001504D01*
X013104Y001441D01*
X013104Y001379D01*
X013100Y001316D01*
X013092Y001255D01*
X013080Y001193D01*
X013064Y001133D01*
X013045Y001073D01*
X013021Y001015D01*
X012995Y000959D01*
X012964Y000905D01*
X012930Y000852D01*
X012893Y000802D01*
X012853Y000754D01*
X012810Y000709D01*
X012764Y000666D01*
X012716Y000627D01*
X012665Y000591D01*
X012612Y000558D01*
X012557Y000528D01*
X012500Y000502D01*
X012442Y000480D01*
X012382Y000462D01*
X012322Y000447D01*
X012260Y000436D01*
X012198Y000429D01*
X012136Y000426D01*
X012073Y000427D01*
X012011Y000432D01*
X011949Y000441D01*
X011888Y000454D01*
X011828Y000470D01*
X011769Y000491D01*
X011711Y000515D01*
X011655Y000543D01*
X011601Y000574D01*
X011549Y000608D01*
X011500Y000646D01*
X011452Y000687D01*
X011408Y000731D01*
X011366Y000777D01*
X011328Y000827D01*
X011292Y000878D01*
X011260Y000932D01*
X011232Y000987D01*
X011206Y001044D01*
X011185Y001103D01*
X011168Y001163D01*
X011154Y001224D01*
X011144Y001285D01*
X011138Y001348D01*
X011136Y001410D01*
X002020Y006390D02*
X002020Y006540D01*
X001970Y006590D01*
X001970Y007990D01*
X002020Y008040D01*
X002020Y008190D01*
X002018Y008207D01*
X002014Y008224D01*
X002007Y008240D01*
X001997Y008254D01*
X001984Y008267D01*
X001970Y008277D01*
X001954Y008284D01*
X001937Y008288D01*
X001920Y008290D01*
X001320Y008290D01*
X001303Y008288D01*
X001286Y008284D01*
X001270Y008277D01*
X001256Y008267D01*
X001243Y008254D01*
X001233Y008240D01*
X001226Y008224D01*
X001222Y008207D01*
X001220Y008190D01*
X001220Y008040D01*
X001270Y007990D01*
X001270Y006590D01*
X001220Y006540D01*
X001220Y006390D01*
X001222Y006373D01*
X001226Y006356D01*
X001233Y006340D01*
X001243Y006326D01*
X001256Y006313D01*
X001270Y006303D01*
X001286Y006296D01*
X001303Y006292D01*
X001320Y006290D01*
X001920Y006290D01*
X001937Y006292D01*
X001954Y006296D01*
X001970Y006303D01*
X001984Y006313D01*
X001997Y006326D01*
X002007Y006340D01*
X002014Y006356D01*
X002018Y006373D01*
X002020Y006390D01*
D13*
X004749Y006368D02*
X004749Y006668D01*
X004749Y006968D01*
X004949Y006968D02*
X004949Y006668D01*
X004949Y006368D01*
X004949Y007986D02*
X004949Y008286D01*
X004949Y008586D01*
X004749Y008586D02*
X004749Y008286D01*
X004749Y007986D01*
X008450Y005980D02*
X008450Y005680D01*
X008450Y005380D01*
X008650Y005380D02*
X008650Y005680D01*
X008650Y005980D01*
X020050Y014550D02*
X019996Y014593D01*
X019944Y014639D01*
X019895Y014688D01*
X019848Y014740D01*
X019805Y014794D01*
X019764Y014850D01*
X019727Y014909D01*
X019693Y014969D01*
X019663Y015032D01*
X019636Y015095D01*
X019612Y015161D01*
X019592Y015227D01*
X019576Y015295D01*
X019564Y015363D01*
X019556Y015432D01*
X019551Y015501D01*
X019550Y015571D01*
X019553Y015640D01*
X019560Y015709D01*
X019571Y015777D01*
X019585Y015845D01*
X019604Y015912D01*
X019626Y015978D01*
X019651Y016043D01*
X019680Y016106D01*
X019713Y016167D01*
X019749Y016226D01*
X019788Y016283D01*
X019830Y016339D01*
X019875Y016391D01*
X019923Y016441D01*
X019974Y016488D01*
X020028Y016533D01*
X020083Y016574D01*
X020141Y016612D01*
X020201Y016647D01*
X020263Y016679D01*
X020326Y016707D01*
X020391Y016731D01*
X020457Y016752D01*
X020525Y016769D01*
X020593Y016783D01*
X020662Y016792D01*
X020731Y016798D01*
X020800Y016800D01*
X020869Y016798D01*
X020938Y016792D01*
X021007Y016783D01*
X021075Y016769D01*
X021143Y016752D01*
X021209Y016731D01*
X021274Y016707D01*
X021337Y016679D01*
X021399Y016647D01*
X021459Y016612D01*
X021517Y016574D01*
X021572Y016533D01*
X021626Y016488D01*
X021677Y016441D01*
X021725Y016391D01*
X021770Y016339D01*
X021812Y016283D01*
X021851Y016226D01*
X021887Y016167D01*
X021920Y016106D01*
X021949Y016043D01*
X021974Y015978D01*
X021996Y015912D01*
X022015Y015845D01*
X022029Y015777D01*
X022040Y015709D01*
X022047Y015640D01*
X022050Y015571D01*
X022049Y015501D01*
X022044Y015432D01*
X022036Y015363D01*
X022024Y015295D01*
X022008Y015227D01*
X021988Y015161D01*
X021964Y015095D01*
X021937Y015032D01*
X021907Y014969D01*
X021873Y014909D01*
X021836Y014850D01*
X021795Y014794D01*
X021752Y014740D01*
X021705Y014688D01*
X021656Y014639D01*
X021604Y014593D01*
X021550Y014550D01*
X021604Y014593D01*
X021656Y014639D01*
X021705Y014688D01*
X021752Y014740D01*
X021795Y014794D01*
X021836Y014850D01*
X021873Y014909D01*
X021907Y014969D01*
X021937Y015032D01*
X021964Y015095D01*
X021988Y015161D01*
X022008Y015227D01*
X022024Y015295D01*
X022036Y015363D01*
X022044Y015432D01*
X022049Y015501D01*
X022050Y015571D01*
X022047Y015640D01*
X022040Y015709D01*
X022029Y015777D01*
X022015Y015845D01*
X021996Y015912D01*
X021974Y015978D01*
X021949Y016043D01*
X021920Y016106D01*
X021887Y016167D01*
X021851Y016226D01*
X021812Y016283D01*
X021770Y016339D01*
X021725Y016391D01*
X021677Y016441D01*
X021626Y016488D01*
X021572Y016533D01*
X021517Y016574D01*
X021459Y016612D01*
X021399Y016647D01*
X021337Y016679D01*
X021274Y016707D01*
X021209Y016731D01*
X021143Y016752D01*
X021075Y016769D01*
X021007Y016783D01*
X020938Y016792D01*
X020869Y016798D01*
X020800Y016800D01*
X020731Y016798D01*
X020662Y016792D01*
X020593Y016783D01*
X020525Y016769D01*
X020457Y016752D01*
X020391Y016731D01*
X020326Y016707D01*
X020263Y016679D01*
X020201Y016647D01*
X020141Y016612D01*
X020083Y016574D01*
X020028Y016533D01*
X019974Y016488D01*
X019923Y016441D01*
X019875Y016391D01*
X019830Y016339D01*
X019788Y016283D01*
X019749Y016226D01*
X019713Y016167D01*
X019680Y016106D01*
X019651Y016043D01*
X019626Y015978D01*
X019604Y015912D01*
X019585Y015845D01*
X019571Y015777D01*
X019560Y015709D01*
X019553Y015640D01*
X019550Y015571D01*
X019551Y015501D01*
X019556Y015432D01*
X019564Y015363D01*
X019576Y015295D01*
X019592Y015227D01*
X019612Y015161D01*
X019636Y015095D01*
X019663Y015032D01*
X019693Y014969D01*
X019727Y014909D01*
X019764Y014850D01*
X019805Y014794D01*
X019848Y014740D01*
X019895Y014688D01*
X019944Y014639D01*
X019996Y014593D01*
X020050Y014550D01*
X019996Y014593D01*
X019944Y014639D01*
X019895Y014688D01*
X019848Y014740D01*
X019805Y014794D01*
X019764Y014850D01*
X019727Y014909D01*
X019693Y014969D01*
X019663Y015032D01*
X019636Y015095D01*
X019612Y015161D01*
X019592Y015227D01*
X019576Y015295D01*
X019564Y015363D01*
X019556Y015432D01*
X019551Y015501D01*
X019550Y015571D01*
X019553Y015640D01*
X019560Y015709D01*
X019571Y015777D01*
X019585Y015845D01*
X019604Y015912D01*
X019626Y015978D01*
X019651Y016043D01*
X019680Y016106D01*
X019713Y016167D01*
X019749Y016226D01*
X019788Y016283D01*
X019830Y016339D01*
X019875Y016391D01*
X019923Y016441D01*
X019974Y016488D01*
X020028Y016533D01*
X020083Y016574D01*
X020141Y016612D01*
X020201Y016647D01*
X020263Y016679D01*
X020326Y016707D01*
X020391Y016731D01*
X020457Y016752D01*
X020525Y016769D01*
X020593Y016783D01*
X020662Y016792D01*
X020731Y016798D01*
X020800Y016800D01*
X020869Y016798D01*
X020938Y016792D01*
X021007Y016783D01*
X021075Y016769D01*
X021143Y016752D01*
X021209Y016731D01*
X021274Y016707D01*
X021337Y016679D01*
X021399Y016647D01*
X021459Y016612D01*
X021517Y016574D01*
X021572Y016533D01*
X021626Y016488D01*
X021677Y016441D01*
X021725Y016391D01*
X021770Y016339D01*
X021812Y016283D01*
X021851Y016226D01*
X021887Y016167D01*
X021920Y016106D01*
X021949Y016043D01*
X021974Y015978D01*
X021996Y015912D01*
X022015Y015845D01*
X022029Y015777D01*
X022040Y015709D01*
X022047Y015640D01*
X022050Y015571D01*
X022049Y015501D01*
X022044Y015432D01*
X022036Y015363D01*
X022024Y015295D01*
X022008Y015227D01*
X021988Y015161D01*
X021964Y015095D01*
X021937Y015032D01*
X021907Y014969D01*
X021873Y014909D01*
X021836Y014850D01*
X021795Y014794D01*
X021752Y014740D01*
X021705Y014688D01*
X021656Y014639D01*
X021604Y014593D01*
X021550Y014550D01*
X021550Y019420D02*
X021604Y019377D01*
X021656Y019331D01*
X021705Y019282D01*
X021752Y019230D01*
X021795Y019176D01*
X021836Y019120D01*
X021873Y019061D01*
X021907Y019001D01*
X021937Y018938D01*
X021964Y018875D01*
X021988Y018809D01*
X022008Y018743D01*
X022024Y018675D01*
X022036Y018607D01*
X022044Y018538D01*
X022049Y018469D01*
X022050Y018399D01*
X022047Y018330D01*
X022040Y018261D01*
X022029Y018193D01*
X022015Y018125D01*
X021996Y018058D01*
X021974Y017992D01*
X021949Y017927D01*
X021920Y017864D01*
X021887Y017803D01*
X021851Y017744D01*
X021812Y017687D01*
X021770Y017631D01*
X021725Y017579D01*
X021677Y017529D01*
X021626Y017482D01*
X021572Y017437D01*
X021517Y017396D01*
X021459Y017358D01*
X021399Y017323D01*
X021337Y017291D01*
X021274Y017263D01*
X021209Y017239D01*
X021143Y017218D01*
X021075Y017201D01*
X021007Y017187D01*
X020938Y017178D01*
X020869Y017172D01*
X020800Y017170D01*
X020731Y017172D01*
X020662Y017178D01*
X020593Y017187D01*
X020525Y017201D01*
X020457Y017218D01*
X020391Y017239D01*
X020326Y017263D01*
X020263Y017291D01*
X020201Y017323D01*
X020141Y017358D01*
X020083Y017396D01*
X020028Y017437D01*
X019974Y017482D01*
X019923Y017529D01*
X019875Y017579D01*
X019830Y017631D01*
X019788Y017687D01*
X019749Y017744D01*
X019713Y017803D01*
X019680Y017864D01*
X019651Y017927D01*
X019626Y017992D01*
X019604Y018058D01*
X019585Y018125D01*
X019571Y018193D01*
X019560Y018261D01*
X019553Y018330D01*
X019550Y018399D01*
X019551Y018469D01*
X019556Y018538D01*
X019564Y018607D01*
X019576Y018675D01*
X019592Y018743D01*
X019612Y018809D01*
X019636Y018875D01*
X019663Y018938D01*
X019693Y019001D01*
X019727Y019061D01*
X019764Y019120D01*
X019805Y019176D01*
X019848Y019230D01*
X019895Y019282D01*
X019944Y019331D01*
X019996Y019377D01*
X020050Y019420D01*
X019996Y019377D01*
X019944Y019331D01*
X019895Y019282D01*
X019848Y019230D01*
X019805Y019176D01*
X019764Y019120D01*
X019727Y019061D01*
X019693Y019001D01*
X019663Y018938D01*
X019636Y018875D01*
X019612Y018809D01*
X019592Y018743D01*
X019576Y018675D01*
X019564Y018607D01*
X019556Y018538D01*
X019551Y018469D01*
X019550Y018399D01*
X019553Y018330D01*
X019560Y018261D01*
X019571Y018193D01*
X019585Y018125D01*
X019604Y018058D01*
X019626Y017992D01*
X019651Y017927D01*
X019680Y017864D01*
X019713Y017803D01*
X019749Y017744D01*
X019788Y017687D01*
X019830Y017631D01*
X019875Y017579D01*
X019923Y017529D01*
X019974Y017482D01*
X020028Y017437D01*
X020083Y017396D01*
X020141Y017358D01*
X020201Y017323D01*
X020263Y017291D01*
X020326Y017263D01*
X020391Y017239D01*
X020457Y017218D01*
X020525Y017201D01*
X020593Y017187D01*
X020662Y017178D01*
X020731Y017172D01*
X020800Y017170D01*
X020869Y017172D01*
X020938Y017178D01*
X021007Y017187D01*
X021075Y017201D01*
X021143Y017218D01*
X021209Y017239D01*
X021274Y017263D01*
X021337Y017291D01*
X021399Y017323D01*
X021459Y017358D01*
X021517Y017396D01*
X021572Y017437D01*
X021626Y017482D01*
X021677Y017529D01*
X021725Y017579D01*
X021770Y017631D01*
X021812Y017687D01*
X021851Y017744D01*
X021887Y017803D01*
X021920Y017864D01*
X021949Y017927D01*
X021974Y017992D01*
X021996Y018058D01*
X022015Y018125D01*
X022029Y018193D01*
X022040Y018261D01*
X022047Y018330D01*
X022050Y018399D01*
X022049Y018469D01*
X022044Y018538D01*
X022036Y018607D01*
X022024Y018675D01*
X022008Y018743D01*
X021988Y018809D01*
X021964Y018875D01*
X021937Y018938D01*
X021907Y019001D01*
X021873Y019061D01*
X021836Y019120D01*
X021795Y019176D01*
X021752Y019230D01*
X021705Y019282D01*
X021656Y019331D01*
X021604Y019377D01*
X021550Y019420D01*
X021604Y019377D01*
X021656Y019331D01*
X021705Y019282D01*
X021752Y019230D01*
X021795Y019176D01*
X021836Y019120D01*
X021873Y019061D01*
X021907Y019001D01*
X021937Y018938D01*
X021964Y018875D01*
X021988Y018809D01*
X022008Y018743D01*
X022024Y018675D01*
X022036Y018607D01*
X022044Y018538D01*
X022049Y018469D01*
X022050Y018399D01*
X022047Y018330D01*
X022040Y018261D01*
X022029Y018193D01*
X022015Y018125D01*
X021996Y018058D01*
X021974Y017992D01*
X021949Y017927D01*
X021920Y017864D01*
X021887Y017803D01*
X021851Y017744D01*
X021812Y017687D01*
X021770Y017631D01*
X021725Y017579D01*
X021677Y017529D01*
X021626Y017482D01*
X021572Y017437D01*
X021517Y017396D01*
X021459Y017358D01*
X021399Y017323D01*
X021337Y017291D01*
X021274Y017263D01*
X021209Y017239D01*
X021143Y017218D01*
X021075Y017201D01*
X021007Y017187D01*
X020938Y017178D01*
X020869Y017172D01*
X020800Y017170D01*
X020731Y017172D01*
X020662Y017178D01*
X020593Y017187D01*
X020525Y017201D01*
X020457Y017218D01*
X020391Y017239D01*
X020326Y017263D01*
X020263Y017291D01*
X020201Y017323D01*
X020141Y017358D01*
X020083Y017396D01*
X020028Y017437D01*
X019974Y017482D01*
X019923Y017529D01*
X019875Y017579D01*
X019830Y017631D01*
X019788Y017687D01*
X019749Y017744D01*
X019713Y017803D01*
X019680Y017864D01*
X019651Y017927D01*
X019626Y017992D01*
X019604Y018058D01*
X019585Y018125D01*
X019571Y018193D01*
X019560Y018261D01*
X019553Y018330D01*
X019550Y018399D01*
X019551Y018469D01*
X019556Y018538D01*
X019564Y018607D01*
X019576Y018675D01*
X019592Y018743D01*
X019612Y018809D01*
X019636Y018875D01*
X019663Y018938D01*
X019693Y019001D01*
X019727Y019061D01*
X019764Y019120D01*
X019805Y019176D01*
X019848Y019230D01*
X019895Y019282D01*
X019944Y019331D01*
X019996Y019377D01*
X020050Y019420D01*
D14*
X018655Y017930D03*
X018655Y017930D03*
X018655Y017930D03*
X018655Y016530D03*
X018655Y016530D03*
X018655Y016530D03*
X018655Y015130D03*
X018655Y015130D03*
X018655Y015130D03*
X018655Y013800D03*
X018655Y013800D03*
X018655Y013800D03*
X016505Y013800D03*
X016505Y013800D03*
X016505Y013800D03*
X016505Y015130D03*
X016505Y015130D03*
X016505Y015130D03*
X016505Y016530D03*
X016505Y016530D03*
X016505Y016530D03*
X016505Y017930D03*
X016505Y017930D03*
X016505Y017930D03*
X002810Y008365D03*
X001620Y008365D03*
X001620Y006215D03*
X002810Y006215D03*
D15*
X002715Y006550D02*
X002660Y006605D01*
X002660Y006715D01*
X002715Y006770D01*
X002770Y006770D01*
X002990Y006550D01*
X002990Y006770D01*
X002990Y006909D02*
X002660Y006909D01*
X002770Y007074D02*
X002880Y006909D01*
X002990Y007074D01*
X001730Y007074D02*
X001730Y006964D01*
X001675Y006909D01*
X001455Y007129D01*
X001675Y007129D01*
X001730Y007074D01*
X001675Y006909D02*
X001455Y006909D01*
X001400Y006964D01*
X001400Y007074D01*
X001455Y007129D01*
X001400Y007268D02*
X001730Y007268D01*
X001620Y007268D02*
X001510Y007433D01*
X001620Y007268D02*
X001730Y007433D01*
X001730Y006770D02*
X001730Y006550D01*
X001730Y006660D02*
X001400Y006660D01*
X001510Y006550D01*
X001470Y009350D02*
X001470Y009515D01*
X001525Y009570D01*
X001635Y009570D01*
X001690Y009515D01*
X001690Y009350D01*
X001800Y009350D02*
X001470Y009350D01*
X001690Y009460D02*
X001800Y009570D01*
X001745Y009709D02*
X001800Y009764D01*
X001800Y009874D01*
X001745Y009929D01*
X001635Y009929D01*
X001580Y009874D01*
X001580Y009819D01*
X001635Y009709D01*
X001470Y009709D01*
X001470Y009929D01*
X002660Y009929D02*
X002715Y009819D01*
X002825Y009709D01*
X002825Y009874D01*
X002880Y009929D01*
X002935Y009929D01*
X002990Y009874D01*
X002990Y009764D01*
X002935Y009709D01*
X002825Y009709D01*
X002825Y009570D02*
X002880Y009515D01*
X002880Y009350D01*
X002990Y009350D02*
X002660Y009350D01*
X002660Y009515D01*
X002715Y009570D01*
X002825Y009570D01*
X002880Y009460D02*
X002990Y009570D01*
X007640Y006170D02*
X009460Y006170D01*
X009460Y005190D02*
X007640Y005190D01*
D16*
X006915Y004020D03*
X006915Y004020D03*
X006915Y003020D03*
X006915Y003020D03*
X006915Y002020D03*
X006915Y002020D03*
X014805Y021550D03*
X014805Y021550D03*
X014805Y022550D03*
X014805Y022550D03*
X014805Y023550D03*
X014805Y023550D03*
M02*
